<mxfile host="app.diagrams.net" modified="2020-10-28T20:37:22.613Z" agent="5.0 (Windows NT 10.0; Win64; x64) AppleWebKit/537.36 (KHTML, like Gecko) Chrome/86.0.4240.111 Safari/537.36" etag="_MKpF6WwtyJFULjaSMio" version="13.8.6" type="github">
  <diagram id="gAeZ5qogOcAtX_3uWWpz" name="Page-1">
    <mxGraphModel dx="1067" dy="635" grid="1" gridSize="10" guides="1" tooltips="1" connect="1" arrows="1" fold="1" page="1" pageScale="1" pageWidth="850" pageHeight="1100" math="0" shadow="0">
      <root>
        <mxCell id="0" />
        <mxCell id="1" parent="0" />
        <mxCell id="RijjFH4tVb_KaYhUiYPn-372" value="" style="ellipse;whiteSpace=wrap;html=1;aspect=fixed;dashed=1;" vertex="1" parent="1">
          <mxGeometry x="2072.5" y="104" width="86" height="86" as="geometry" />
        </mxCell>
        <UserObject label="s" lucidchartObjectId="ZnUIjXc_kmb0" id="mhpVxY0XPYVUC-uozozE-1">
          <mxCell style="html=1;whiteSpace=wrap;ellipse;whiteSpace=wrap;fontSize=13;fontColor=#333333;spacing=3;strokeColor=#5e5e5e;strokeOpacity=100;rounded=1;absoluteArcSize=1;arcSize=7.199999999999999;strokeWidth=2;" parent="1" vertex="1" zOrder="1">
            <mxGeometry x="8" y="136" width="48" height="48" as="geometry" />
          </mxCell>
        </UserObject>
        <UserObject label="v1" lucidchartObjectId="1nUIu77bN5cJ" id="mhpVxY0XPYVUC-uozozE-2">
          <mxCell style="html=1;whiteSpace=wrap;ellipse;whiteSpace=wrap;fontSize=13;fontColor=#333333;spacing=3;strokeColor=#5e5e5e;strokeOpacity=100;rounded=1;absoluteArcSize=1;arcSize=7.199999999999999;strokeWidth=2;" parent="1" vertex="1" zOrder="2">
            <mxGeometry x="104" y="40" width="48" height="48" as="geometry" />
          </mxCell>
        </UserObject>
        <UserObject label="v2" lucidchartObjectId="5nUIj8~bi~18" id="mhpVxY0XPYVUC-uozozE-3">
          <mxCell style="html=1;whiteSpace=wrap;ellipse;whiteSpace=wrap;fontSize=13;fontColor=#333333;spacing=3;strokeColor=#5e5e5e;strokeOpacity=100;rounded=1;absoluteArcSize=1;arcSize=7.199999999999999;strokeWidth=2;" parent="1" vertex="1" zOrder="3">
            <mxGeometry x="104" y="232" width="48" height="48" as="geometry" />
          </mxCell>
        </UserObject>
        <UserObject label="v3" lucidchartObjectId="9nUIeAun2bo8" id="mhpVxY0XPYVUC-uozozE-4">
          <mxCell style="html=1;whiteSpace=wrap;ellipse;whiteSpace=wrap;fontSize=13;fontColor=#333333;spacing=3;strokeColor=#5e5e5e;strokeOpacity=100;rounded=1;absoluteArcSize=1;arcSize=7.199999999999999;strokeWidth=2;" parent="1" vertex="1" zOrder="4">
            <mxGeometry x="248" y="40" width="48" height="48" as="geometry" />
          </mxCell>
        </UserObject>
        <UserObject label="v4" lucidchartObjectId=".nUIgbhJbNnH" id="mhpVxY0XPYVUC-uozozE-5">
          <mxCell style="html=1;whiteSpace=wrap;ellipse;whiteSpace=wrap;fontSize=13;fontColor=#333333;spacing=3;strokeColor=#5e5e5e;strokeOpacity=100;rounded=1;absoluteArcSize=1;arcSize=7.199999999999999;strokeWidth=2;" parent="1" vertex="1" zOrder="5">
            <mxGeometry x="248" y="232" width="48" height="48" as="geometry" />
          </mxCell>
        </UserObject>
        <UserObject label="t" lucidchartObjectId="aoUIaZl6RQ12" id="mhpVxY0XPYVUC-uozozE-6">
          <mxCell style="html=1;whiteSpace=wrap;ellipse;whiteSpace=wrap;fontSize=13;fontColor=#333333;spacing=3;strokeColor=#5e5e5e;strokeOpacity=100;rounded=1;absoluteArcSize=1;arcSize=7.199999999999999;strokeWidth=2;" parent="1" vertex="1" zOrder="6">
            <mxGeometry x="344" y="136" width="48" height="48" as="geometry" />
          </mxCell>
        </UserObject>
        <UserObject label="" lucidchartObjectId=".oUIhgs6FC0Z" id="mhpVxY0XPYVUC-uozozE-7">
          <mxCell style="html=1;jettySize=18;whiteSpace=wrap;fontSize=11;strokeColor=#5E5E5E;rounded=0;startArrow=none;;endArrow=block;endFill=1;;exitX=0.8233273001386603;exitY=0.09551767611224467;exitPerimeter=0;entryX=0.11055244517752665;entryY=0.8417647223116876;entryPerimeter=0;" parent="1" source="mhpVxY0XPYVUC-uozozE-1" target="mhpVxY0XPYVUC-uozozE-2" edge="1">
            <mxGeometry width="100" height="100" relative="1" as="geometry">
              <Array as="points" />
            </mxGeometry>
          </mxCell>
        </UserObject>
        <mxCell id="mhpVxY0XPYVUC-uozozE-8" value="16" style="text;html=1;resizable=0;labelBackgroundColor=#ffffff;align=center;verticalAlign=middle;fontStyle=1;fontColor=#333333;;fontSize=10.666666666666666;" parent="mhpVxY0XPYVUC-uozozE-7" vertex="1">
          <mxGeometry x="-0.13717128299779502" relative="1" as="geometry" />
        </mxCell>
        <UserObject label="" lucidchartObjectId="hpUIiBKR2QBZ" id="mhpVxY0XPYVUC-uozozE-9">
          <mxCell style="html=1;jettySize=18;whiteSpace=wrap;fontSize=11;strokeColor=#5E5E5E;rounded=0;startArrow=none;;endArrow=block;endFill=1;;exitX=0.8505496542527412;exitY=0.8811264669643892;exitPerimeter=0;entryX=0.1183242864720833;entryY=0.14890109918373123;entryPerimeter=0;" parent="1" source="mhpVxY0XPYVUC-uozozE-1" target="mhpVxY0XPYVUC-uozozE-3" edge="1">
            <mxGeometry width="100" height="100" relative="1" as="geometry">
              <Array as="points" />
            </mxGeometry>
          </mxCell>
        </UserObject>
        <mxCell id="mhpVxY0XPYVUC-uozozE-10" value="13" style="text;html=1;resizable=0;labelBackgroundColor=#ffffff;align=center;verticalAlign=middle;fontStyle=1;fontColor=#333333;;fontSize=10.666666666666666;" parent="mhpVxY0XPYVUC-uozozE-9" vertex="1">
          <mxGeometry x="-0.13204608129133955" relative="1" as="geometry" />
        </mxCell>
        <UserObject label="" lucidchartObjectId="upUI60eIve.l" id="mhpVxY0XPYVUC-uozozE-11">
          <mxCell style="html=1;jettySize=18;whiteSpace=wrap;fontSize=11;strokeColor=#5E5E5E;rounded=1;arcSize=12;edgeStyle=orthogonalEdgeStyle;startArrow=none;;endArrow=block;endFill=1;;exitX=0.5;exitY=-0.018761694744157075;exitPerimeter=0;entryX=0.5000000000000007;entryY=1.0187616947441571;entryPerimeter=0;" parent="1" source="mhpVxY0XPYVUC-uozozE-3" target="mhpVxY0XPYVUC-uozozE-2" edge="1">
            <mxGeometry width="100" height="100" relative="1" as="geometry">
              <Array as="points" />
            </mxGeometry>
          </mxCell>
        </UserObject>
        <mxCell id="mhpVxY0XPYVUC-uozozE-12" value="4" style="text;html=1;resizable=0;labelBackgroundColor=#ffffff;align=center;verticalAlign=middle;fontStyle=1;fontColor=#333333;;fontSize=10.666666666666666;" parent="mhpVxY0XPYVUC-uozozE-11" vertex="1">
          <mxGeometry relative="1" as="geometry" />
        </mxCell>
        <UserObject label="" lucidchartObjectId="xpUI5aLAPI.g" id="mhpVxY0XPYVUC-uozozE-13">
          <mxCell style="html=1;jettySize=18;whiteSpace=wrap;fontSize=11;strokeColor=#5E5E5E;rounded=1;arcSize=12;edgeStyle=orthogonalEdgeStyle;startArrow=none;;endArrow=block;endFill=1;;exitX=1.0187616947441571;exitY=0.5;exitPerimeter=0;entryX=-0.018761694744157075;entryY=0.5;entryPerimeter=0;" parent="1" source="mhpVxY0XPYVUC-uozozE-2" target="mhpVxY0XPYVUC-uozozE-4" edge="1">
            <mxGeometry width="100" height="100" relative="1" as="geometry">
              <Array as="points" />
            </mxGeometry>
          </mxCell>
        </UserObject>
        <mxCell id="mhpVxY0XPYVUC-uozozE-14" value="12" style="text;html=1;resizable=0;labelBackgroundColor=#ffffff;align=center;verticalAlign=middle;fontStyle=1;fontColor=#333333;;fontSize=10.666666666666666;" parent="mhpVxY0XPYVUC-uozozE-13" vertex="1">
          <mxGeometry x="-0.1012666223036216" relative="1" as="geometry" />
        </mxCell>
        <UserObject label="" lucidchartObjectId="ApUIYKcBbeEU" id="mhpVxY0XPYVUC-uozozE-15">
          <mxCell style="html=1;jettySize=18;whiteSpace=wrap;fontSize=11;strokeColor=#5E5E5E;rounded=0;startArrow=block;endFill=1;;endArrow=none;;exitX=0.9401428532893356;exitY=0.22597078667528753;exitPerimeter=0;entryX=0.12631591462875336;entryY=0.8584068980278552;entryPerimeter=0;" parent="1" source="mhpVxY0XPYVUC-uozozE-3" target="mhpVxY0XPYVUC-uozozE-4" edge="1">
            <mxGeometry width="100" height="100" relative="1" as="geometry">
              <Array as="points" />
            </mxGeometry>
          </mxCell>
        </UserObject>
        <mxCell id="mhpVxY0XPYVUC-uozozE-16" value="9" style="text;html=1;resizable=0;labelBackgroundColor=#ffffff;align=center;verticalAlign=middle;fontStyle=1;fontColor=#333333;;fontSize=10.666666666666666;" parent="mhpVxY0XPYVUC-uozozE-15" vertex="1">
          <mxGeometry x="0.1173580955875253" relative="1" as="geometry" />
        </mxCell>
        <UserObject label="" lucidchartObjectId="EpUIOwtv2aAE" id="mhpVxY0XPYVUC-uozozE-17">
          <mxCell style="html=1;jettySize=18;whiteSpace=wrap;fontSize=11;strokeColor=#5E5E5E;rounded=1;arcSize=12;edgeStyle=orthogonalEdgeStyle;startArrow=none;;endArrow=block;endFill=1;;exitX=1.0187616947441571;exitY=0.5;exitPerimeter=0;entryX=-0.018761694744157075;entryY=0.5;entryPerimeter=0;" parent="1" source="mhpVxY0XPYVUC-uozozE-3" target="mhpVxY0XPYVUC-uozozE-5" edge="1">
            <mxGeometry width="100" height="100" relative="1" as="geometry">
              <Array as="points" />
            </mxGeometry>
          </mxCell>
        </UserObject>
        <mxCell id="mhpVxY0XPYVUC-uozozE-18" value="14" style="text;html=1;resizable=0;labelBackgroundColor=#ffffff;align=center;verticalAlign=middle;fontStyle=1;fontColor=#333333;;fontSize=10.666666666666666;" parent="mhpVxY0XPYVUC-uozozE-17" vertex="1">
          <mxGeometry relative="1" as="geometry" />
        </mxCell>
        <UserObject label="" lucidchartObjectId="GpUI-jV9bbxE" id="mhpVxY0XPYVUC-uozozE-19">
          <mxCell style="html=1;jettySize=18;whiteSpace=wrap;fontSize=11;strokeColor=#5E5E5E;rounded=1;arcSize=12;edgeStyle=orthogonalEdgeStyle;startArrow=none;;endArrow=block;endFill=1;;exitX=0.5;exitY=-0.018761694744157075;exitPerimeter=0;entryX=0.5;entryY=1.0187616947441571;entryPerimeter=0;" parent="1" source="mhpVxY0XPYVUC-uozozE-5" target="mhpVxY0XPYVUC-uozozE-4" edge="1">
            <mxGeometry width="100" height="100" relative="1" as="geometry">
              <Array as="points" />
            </mxGeometry>
          </mxCell>
        </UserObject>
        <mxCell id="mhpVxY0XPYVUC-uozozE-20" value="7" style="text;html=1;resizable=0;labelBackgroundColor=#ffffff;align=center;verticalAlign=middle;fontStyle=1;fontColor=#333333;;fontSize=10.666666666666666;" parent="mhpVxY0XPYVUC-uozozE-19" vertex="1">
          <mxGeometry relative="1" as="geometry" />
        </mxCell>
        <UserObject label="" lucidchartObjectId="IpUIgpipOUyD" id="mhpVxY0XPYVUC-uozozE-21">
          <mxCell style="html=1;jettySize=18;whiteSpace=wrap;fontSize=11;strokeColor=#5E5E5E;rounded=0;startArrow=none;;endArrow=block;endFill=1;;exitX=0.9543155829079784;exitY=0.251407374261471;exitPerimeter=0;entryX=0.2507194964896599;entryY=0.9550034606797893;entryPerimeter=0;" parent="1" source="mhpVxY0XPYVUC-uozozE-5" target="mhpVxY0XPYVUC-uozozE-6" edge="1">
            <mxGeometry width="100" height="100" relative="1" as="geometry">
              <Array as="points" />
            </mxGeometry>
          </mxCell>
        </UserObject>
        <mxCell id="mhpVxY0XPYVUC-uozozE-22" value="4" style="text;html=1;resizable=0;labelBackgroundColor=#ffffff;align=center;verticalAlign=middle;fontStyle=1;fontColor=#333333;;fontSize=10.666666666666666;" parent="mhpVxY0XPYVUC-uozozE-21" vertex="1">
          <mxGeometry relative="1" as="geometry" />
        </mxCell>
        <UserObject label="" lucidchartObjectId="OpUIBMjoT3qL" id="mhpVxY0XPYVUC-uozozE-23">
          <mxCell style="html=1;jettySize=18;whiteSpace=wrap;fontSize=11;strokeColor=#5E5E5E;rounded=0;startArrow=none;;endArrow=block;endFill=1;;exitX=0.9829058849722145;exitY=0.6899484597333447;exitPerimeter=0;entryX=0.16009065402019015;entryY=0.10879503264764492;entryPerimeter=0;" parent="1" source="mhpVxY0XPYVUC-uozozE-4" target="mhpVxY0XPYVUC-uozozE-6" edge="1">
            <mxGeometry width="100" height="100" relative="1" as="geometry">
              <Array as="points" />
            </mxGeometry>
          </mxCell>
        </UserObject>
        <mxCell id="mhpVxY0XPYVUC-uozozE-24" value="20" style="text;html=1;resizable=0;labelBackgroundColor=#ffffff;align=center;verticalAlign=middle;fontStyle=1;fontColor=#333333;;fontSize=10.666666666666666;" parent="mhpVxY0XPYVUC-uozozE-23" vertex="1">
          <mxGeometry relative="1" as="geometry" />
        </mxCell>
        <UserObject label="s" lucidchartObjectId=".LUIGVGOrkdu" id="mhpVxY0XPYVUC-uozozE-25">
          <mxCell style="html=1;whiteSpace=wrap;ellipse;whiteSpace=wrap;fontSize=13;fontColor=#333333;spacing=3;strokeColor=#5e5e5e;strokeOpacity=100;rounded=1;absoluteArcSize=1;arcSize=7.199999999999999;strokeWidth=2;" parent="1" vertex="1" zOrder="16">
            <mxGeometry x="460" y="136" width="48" height="48" as="geometry" />
          </mxCell>
        </UserObject>
        <UserObject label="v1" lucidchartObjectId=".LUIppkhuQ~B" id="mhpVxY0XPYVUC-uozozE-26">
          <mxCell style="html=1;whiteSpace=wrap;ellipse;whiteSpace=wrap;fontSize=13;fontColor=#333333;spacing=3;strokeColor=#5e5e5e;strokeOpacity=100;rounded=1;absoluteArcSize=1;arcSize=7.199999999999999;strokeWidth=2;" parent="1" vertex="1" zOrder="17">
            <mxGeometry x="556" y="40" width="48" height="48" as="geometry" />
          </mxCell>
        </UserObject>
        <UserObject label="v2" lucidchartObjectId=".LUI9.0Gh3YM" id="mhpVxY0XPYVUC-uozozE-27">
          <mxCell style="html=1;whiteSpace=wrap;ellipse;whiteSpace=wrap;fontSize=13;fontColor=#333333;spacing=3;strokeColor=#5e5e5e;strokeOpacity=100;rounded=1;absoluteArcSize=1;arcSize=7.199999999999999;strokeWidth=2;" parent="1" vertex="1" zOrder="18">
            <mxGeometry x="556" y="232" width="48" height="48" as="geometry" />
          </mxCell>
        </UserObject>
        <UserObject label="v3" lucidchartObjectId=".LUIXegZ76E8" id="mhpVxY0XPYVUC-uozozE-28">
          <mxCell style="html=1;whiteSpace=wrap;ellipse;whiteSpace=wrap;fontSize=13;fontColor=#333333;spacing=3;strokeColor=#5e5e5e;strokeOpacity=100;rounded=1;absoluteArcSize=1;arcSize=7.199999999999999;strokeWidth=2;" parent="1" vertex="1" zOrder="19">
            <mxGeometry x="700" y="40" width="48" height="48" as="geometry" />
          </mxCell>
        </UserObject>
        <UserObject label="v4" lucidchartObjectId=".LUIvUsG8~vd" id="mhpVxY0XPYVUC-uozozE-29">
          <mxCell style="html=1;whiteSpace=wrap;ellipse;whiteSpace=wrap;fontSize=13;fontColor=#333333;spacing=3;strokeColor=#5e5e5e;strokeOpacity=100;rounded=1;absoluteArcSize=1;arcSize=7.199999999999999;strokeWidth=2;" parent="1" vertex="1" zOrder="20">
            <mxGeometry x="700" y="232" width="48" height="48" as="geometry" />
          </mxCell>
        </UserObject>
        <UserObject label="t" lucidchartObjectId=".LUI9pvnDOSG" id="mhpVxY0XPYVUC-uozozE-30">
          <mxCell style="html=1;whiteSpace=wrap;ellipse;whiteSpace=wrap;fontSize=13;fontColor=#333333;spacing=3;strokeColor=#5e5e5e;strokeOpacity=100;rounded=1;absoluteArcSize=1;arcSize=7.199999999999999;strokeWidth=2;" parent="1" vertex="1" zOrder="21">
            <mxGeometry x="796" y="136" width="48" height="48" as="geometry" />
          </mxCell>
        </UserObject>
        <UserObject label="" lucidchartObjectId=".LUID4dQUFRF" id="mhpVxY0XPYVUC-uozozE-31">
          <mxCell style="html=1;jettySize=18;whiteSpace=wrap;fontSize=11;strokeColor=#5E5E5E;rounded=0;startArrow=none;;endArrow=block;endFill=1;;exitX=0.8233273001386603;exitY=0.09551767611224475;exitPerimeter=0;entryX=0.11055244517752616;entryY=0.841764722311688;entryPerimeter=0;" parent="1" source="mhpVxY0XPYVUC-uozozE-25" target="mhpVxY0XPYVUC-uozozE-26" edge="1">
            <mxGeometry width="100" height="100" relative="1" as="geometry">
              <Array as="points" />
            </mxGeometry>
          </mxCell>
        </UserObject>
        <mxCell id="mhpVxY0XPYVUC-uozozE-32" value="0/16" style="text;html=1;resizable=0;labelBackgroundColor=#ffffff;align=center;verticalAlign=middle;fontStyle=1;fontColor=#333333;;fontSize=10.666666666666666;" parent="mhpVxY0XPYVUC-uozozE-31" vertex="1">
          <mxGeometry x="-0.13717128299779502" relative="1" as="geometry" />
        </mxCell>
        <UserObject label="" lucidchartObjectId=".LUIV43UfsNs" id="mhpVxY0XPYVUC-uozozE-33">
          <mxCell style="html=1;jettySize=18;whiteSpace=wrap;fontSize=11;strokeColor=#5E5E5E;rounded=0;startArrow=none;;endArrow=block;endFill=1;;exitX=0.8505496542527411;exitY=0.881126466964389;exitPerimeter=0;entryX=0.1183242864720834;entryY=0.14890109918373132;entryPerimeter=0;" parent="1" source="mhpVxY0XPYVUC-uozozE-25" target="mhpVxY0XPYVUC-uozozE-27" edge="1">
            <mxGeometry width="100" height="100" relative="1" as="geometry">
              <Array as="points" />
            </mxGeometry>
          </mxCell>
        </UserObject>
        <mxCell id="mhpVxY0XPYVUC-uozozE-34" value="0/13" style="text;html=1;resizable=0;labelBackgroundColor=#ffffff;align=center;verticalAlign=middle;fontStyle=1;fontColor=#333333;;fontSize=10.666666666666666;" parent="mhpVxY0XPYVUC-uozozE-33" vertex="1">
          <mxGeometry x="-0.13204608129133955" relative="1" as="geometry" />
        </mxCell>
        <UserObject label="" lucidchartObjectId=".LUIat2PT1j." id="mhpVxY0XPYVUC-uozozE-35">
          <mxCell style="html=1;jettySize=18;whiteSpace=wrap;fontSize=11;strokeColor=#5E5E5E;rounded=1;arcSize=12;edgeStyle=orthogonalEdgeStyle;startArrow=none;;endArrow=block;endFill=1;;exitX=0.5;exitY=-0.018761694744157165;exitPerimeter=0;entryX=0.5000000000000007;entryY=1.0187616947441573;entryPerimeter=0;" parent="1" source="mhpVxY0XPYVUC-uozozE-27" target="mhpVxY0XPYVUC-uozozE-26" edge="1">
            <mxGeometry width="100" height="100" relative="1" as="geometry">
              <Array as="points" />
            </mxGeometry>
          </mxCell>
        </UserObject>
        <mxCell id="mhpVxY0XPYVUC-uozozE-36" value="0/4" style="text;html=1;resizable=0;labelBackgroundColor=#ffffff;align=center;verticalAlign=middle;fontStyle=1;fontColor=#333333;;fontSize=10.666666666666666;" parent="mhpVxY0XPYVUC-uozozE-35" vertex="1">
          <mxGeometry relative="1" as="geometry" />
        </mxCell>
        <UserObject label="" lucidchartObjectId=".LUIbJKGF7qM" id="mhpVxY0XPYVUC-uozozE-37">
          <mxCell style="html=1;jettySize=18;whiteSpace=wrap;fontSize=11;strokeColor=#5E5E5E;rounded=1;arcSize=12;edgeStyle=orthogonalEdgeStyle;startArrow=none;;endArrow=block;endFill=1;;exitX=1.0187616947441587;exitY=0.5;exitPerimeter=0;entryX=-0.018761694744158584;entryY=0.5;entryPerimeter=0;" parent="1" source="mhpVxY0XPYVUC-uozozE-26" target="mhpVxY0XPYVUC-uozozE-28" edge="1">
            <mxGeometry width="100" height="100" relative="1" as="geometry">
              <Array as="points" />
            </mxGeometry>
          </mxCell>
        </UserObject>
        <mxCell id="mhpVxY0XPYVUC-uozozE-38" value="0/12" style="text;html=1;resizable=0;labelBackgroundColor=#ffffff;align=center;verticalAlign=middle;fontStyle=1;fontColor=#333333;;fontSize=10.666666666666666;" parent="mhpVxY0XPYVUC-uozozE-37" vertex="1">
          <mxGeometry x="-0.1012666223036216" relative="1" as="geometry" />
        </mxCell>
        <UserObject label="" lucidchartObjectId=".LUIxXhlI37e" id="mhpVxY0XPYVUC-uozozE-39">
          <mxCell style="html=1;jettySize=18;whiteSpace=wrap;fontSize=11;strokeColor=#5E5E5E;rounded=0;startArrow=block;endFill=1;;endArrow=none;;exitX=0.9401428532893344;exitY=0.2259707866752881;exitPerimeter=0;entryX=0.12631591462875308;entryY=0.8584068980278554;entryPerimeter=0;" parent="1" source="mhpVxY0XPYVUC-uozozE-27" target="mhpVxY0XPYVUC-uozozE-28" edge="1">
            <mxGeometry width="100" height="100" relative="1" as="geometry">
              <Array as="points" />
            </mxGeometry>
          </mxCell>
        </UserObject>
        <mxCell id="mhpVxY0XPYVUC-uozozE-40" value="0/9" style="text;html=1;resizable=0;labelBackgroundColor=#ffffff;align=center;verticalAlign=middle;fontStyle=1;fontColor=#333333;;fontSize=10.666666666666666;" parent="mhpVxY0XPYVUC-uozozE-39" vertex="1">
          <mxGeometry x="0.1173580955875253" relative="1" as="geometry" />
        </mxCell>
        <UserObject label="" lucidchartObjectId=".LUI989tZU_b" id="mhpVxY0XPYVUC-uozozE-41">
          <mxCell style="html=1;jettySize=18;whiteSpace=wrap;fontSize=11;strokeColor=#5E5E5E;rounded=1;arcSize=12;edgeStyle=orthogonalEdgeStyle;startArrow=none;;endArrow=block;endFill=1;;exitX=1.0187616947441587;exitY=0.5;exitPerimeter=0;entryX=-0.018761694744158584;entryY=0.5;entryPerimeter=0;" parent="1" source="mhpVxY0XPYVUC-uozozE-27" target="mhpVxY0XPYVUC-uozozE-29" edge="1">
            <mxGeometry width="100" height="100" relative="1" as="geometry">
              <Array as="points" />
            </mxGeometry>
          </mxCell>
        </UserObject>
        <mxCell id="mhpVxY0XPYVUC-uozozE-42" value="0/14" style="text;html=1;resizable=0;labelBackgroundColor=#ffffff;align=center;verticalAlign=middle;fontStyle=1;fontColor=#333333;;fontSize=10.666666666666666;" parent="mhpVxY0XPYVUC-uozozE-41" vertex="1">
          <mxGeometry relative="1" as="geometry" />
        </mxCell>
        <UserObject label="" lucidchartObjectId=".LUIPkeaChjE" id="mhpVxY0XPYVUC-uozozE-43">
          <mxCell style="html=1;jettySize=18;whiteSpace=wrap;fontSize=11;strokeColor=#5E5E5E;rounded=1;arcSize=12;edgeStyle=orthogonalEdgeStyle;startArrow=none;;endArrow=block;endFill=1;;exitX=0.5;exitY=-0.018761694744157165;exitPerimeter=0;entryX=0.5;entryY=1.0187616947441573;entryPerimeter=0;" parent="1" source="mhpVxY0XPYVUC-uozozE-29" target="mhpVxY0XPYVUC-uozozE-28" edge="1">
            <mxGeometry width="100" height="100" relative="1" as="geometry">
              <Array as="points" />
            </mxGeometry>
          </mxCell>
        </UserObject>
        <mxCell id="mhpVxY0XPYVUC-uozozE-44" value="0/7" style="text;html=1;resizable=0;labelBackgroundColor=#ffffff;align=center;verticalAlign=middle;fontStyle=1;fontColor=#333333;;fontSize=10.666666666666666;" parent="mhpVxY0XPYVUC-uozozE-43" vertex="1">
          <mxGeometry relative="1" as="geometry" />
        </mxCell>
        <UserObject label="" lucidchartObjectId=".LUIUwsV0jVs" id="mhpVxY0XPYVUC-uozozE-45">
          <mxCell style="html=1;jettySize=18;whiteSpace=wrap;fontSize=11;strokeColor=#5E5E5E;rounded=0;startArrow=none;;endArrow=block;endFill=1;;exitX=0.9543155829079779;exitY=0.2514073742614712;exitPerimeter=0;entryX=0.25071949648965997;entryY=0.9550034606797893;entryPerimeter=0;" parent="1" source="mhpVxY0XPYVUC-uozozE-29" target="mhpVxY0XPYVUC-uozozE-30" edge="1">
            <mxGeometry width="100" height="100" relative="1" as="geometry">
              <Array as="points" />
            </mxGeometry>
          </mxCell>
        </UserObject>
        <mxCell id="mhpVxY0XPYVUC-uozozE-46" value="0/4" style="text;html=1;resizable=0;labelBackgroundColor=#ffffff;align=center;verticalAlign=middle;fontStyle=1;fontColor=#333333;;fontSize=10.666666666666666;" parent="mhpVxY0XPYVUC-uozozE-45" vertex="1">
          <mxGeometry relative="1" as="geometry" />
        </mxCell>
        <UserObject label="" lucidchartObjectId=".LUIquEHdEtt" id="mhpVxY0XPYVUC-uozozE-47">
          <mxCell style="html=1;jettySize=18;whiteSpace=wrap;fontSize=11;strokeColor=#5E5E5E;rounded=0;startArrow=none;;endArrow=block;endFill=1;;exitX=0.9829058849722145;exitY=0.6899484597333447;exitPerimeter=0;entryX=0.1600906540201902;entryY=0.10879503264764492;entryPerimeter=0;" parent="1" source="mhpVxY0XPYVUC-uozozE-28" target="mhpVxY0XPYVUC-uozozE-30" edge="1">
            <mxGeometry width="100" height="100" relative="1" as="geometry">
              <Array as="points" />
            </mxGeometry>
          </mxCell>
        </UserObject>
        <mxCell id="mhpVxY0XPYVUC-uozozE-48" value="0/20" style="text;html=1;resizable=0;labelBackgroundColor=#ffffff;align=center;verticalAlign=middle;fontStyle=1;fontColor=#333333;;fontSize=10.666666666666666;" parent="mhpVxY0XPYVUC-uozozE-47" vertex="1">
          <mxGeometry relative="1" as="geometry" />
        </mxCell>
        <UserObject label="s" lucidchartObjectId="gQUIt-RiTsQZ" id="mhpVxY0XPYVUC-uozozE-49">
          <mxCell style="html=1;whiteSpace=wrap;ellipse;whiteSpace=wrap;fontSize=13;fontColor=#333333;spacing=3;strokeColor=#5e5e5e;strokeOpacity=100;rounded=1;absoluteArcSize=1;arcSize=7.199999999999999;strokeWidth=2;" parent="1" vertex="1" zOrder="31">
            <mxGeometry x="10" y="454" width="48" height="48" as="geometry" />
          </mxCell>
        </UserObject>
        <UserObject label="v1" lucidchartObjectId="gQUIlorGE2I0" id="mhpVxY0XPYVUC-uozozE-50">
          <mxCell style="html=1;whiteSpace=wrap;ellipse;whiteSpace=wrap;fontSize=13;fontColor=#333333;spacing=3;strokeColor=#5e5e5e;strokeOpacity=100;rounded=1;absoluteArcSize=1;arcSize=7.199999999999999;strokeWidth=2;" parent="1" vertex="1" zOrder="32">
            <mxGeometry x="106" y="358" width="48" height="48" as="geometry" />
          </mxCell>
        </UserObject>
        <UserObject label="v2" lucidchartObjectId="gQUInCv8jl.R" id="mhpVxY0XPYVUC-uozozE-51">
          <mxCell style="html=1;whiteSpace=wrap;ellipse;whiteSpace=wrap;fontSize=13;fontColor=#333333;spacing=3;strokeColor=#5e5e5e;strokeOpacity=100;rounded=1;absoluteArcSize=1;arcSize=7.199999999999999;strokeWidth=2;" parent="1" vertex="1" zOrder="33">
            <mxGeometry x="106" y="550" width="48" height="48" as="geometry" />
          </mxCell>
        </UserObject>
        <UserObject label="v3" lucidchartObjectId="gQUIrsVcYYmC" id="mhpVxY0XPYVUC-uozozE-52">
          <mxCell style="html=1;whiteSpace=wrap;ellipse;whiteSpace=wrap;fontSize=13;fontColor=#333333;spacing=3;strokeColor=#5e5e5e;strokeOpacity=100;rounded=1;absoluteArcSize=1;arcSize=7.199999999999999;strokeWidth=2;" parent="1" vertex="1" zOrder="34">
            <mxGeometry x="250" y="358" width="48" height="48" as="geometry" />
          </mxCell>
        </UserObject>
        <UserObject label="v4" lucidchartObjectId="gQUIMnKBW81H" id="mhpVxY0XPYVUC-uozozE-53">
          <mxCell style="html=1;whiteSpace=wrap;ellipse;whiteSpace=wrap;fontSize=13;fontColor=#333333;spacing=3;strokeColor=#5e5e5e;strokeOpacity=100;rounded=1;absoluteArcSize=1;arcSize=7.199999999999999;strokeWidth=2;" parent="1" vertex="1" zOrder="35">
            <mxGeometry x="250" y="550" width="48" height="48" as="geometry" />
          </mxCell>
        </UserObject>
        <UserObject label="t" lucidchartObjectId="gQUIm8Gg_kkW" id="mhpVxY0XPYVUC-uozozE-54">
          <mxCell style="html=1;whiteSpace=wrap;ellipse;whiteSpace=wrap;fontSize=13;fontColor=#333333;spacing=3;strokeColor=#5e5e5e;strokeOpacity=100;rounded=1;absoluteArcSize=1;arcSize=7.199999999999999;strokeWidth=2;" parent="1" vertex="1" zOrder="36">
            <mxGeometry x="346" y="454" width="48" height="48" as="geometry" />
          </mxCell>
        </UserObject>
        <UserObject label="" lucidchartObjectId="gQUIvWcypoST" id="mhpVxY0XPYVUC-uozozE-55">
          <mxCell style="html=1;jettySize=18;whiteSpace=wrap;fontSize=11;strokeColor=#99d2f2;strokeOpacity=100;rounded=0;startArrow=none;;endArrow=block;endFill=1;;exitX=0.8233273001386603;exitY=0.09551767611224475;exitPerimeter=0;entryX=0.1105524451775266;entryY=0.8417647223116876;entryPerimeter=0;" parent="1" source="mhpVxY0XPYVUC-uozozE-49" target="mhpVxY0XPYVUC-uozozE-50" edge="1">
            <mxGeometry width="100" height="100" relative="1" as="geometry">
              <Array as="points" />
            </mxGeometry>
          </mxCell>
        </UserObject>
        <mxCell id="mhpVxY0XPYVUC-uozozE-56" value="12/16" style="text;html=1;resizable=0;labelBackgroundColor=#ffffff;align=center;verticalAlign=middle;fontStyle=1;fontColor=#333333;;fontSize=10.666666666666666;" parent="mhpVxY0XPYVUC-uozozE-55" vertex="1">
          <mxGeometry x="-0.13717128299779502" relative="1" as="geometry" />
        </mxCell>
        <UserObject label="" lucidchartObjectId="gQUIZWf6jAox" id="mhpVxY0XPYVUC-uozozE-57">
          <mxCell style="html=1;jettySize=18;whiteSpace=wrap;fontSize=11;strokeColor=#5E5E5E;rounded=0;startArrow=none;;endArrow=block;endFill=1;;exitX=0.8505496542527411;exitY=0.881126466964389;exitPerimeter=0;entryX=0.11832428647208357;entryY=0.14890109918373148;entryPerimeter=0;" parent="1" source="mhpVxY0XPYVUC-uozozE-49" target="mhpVxY0XPYVUC-uozozE-51" edge="1">
            <mxGeometry width="100" height="100" relative="1" as="geometry">
              <Array as="points" />
            </mxGeometry>
          </mxCell>
        </UserObject>
        <mxCell id="mhpVxY0XPYVUC-uozozE-58" value="0/13" style="text;html=1;resizable=0;labelBackgroundColor=#ffffff;align=center;verticalAlign=middle;fontStyle=1;fontColor=#333333;;fontSize=10.666666666666666;" parent="mhpVxY0XPYVUC-uozozE-57" vertex="1">
          <mxGeometry x="-0.13204608129133955" relative="1" as="geometry" />
        </mxCell>
        <UserObject label="" lucidchartObjectId="gQUIQSJL~s-z" id="mhpVxY0XPYVUC-uozozE-59">
          <mxCell style="html=1;jettySize=18;whiteSpace=wrap;fontSize=11;strokeColor=#5E5E5E;rounded=1;arcSize=12;edgeStyle=orthogonalEdgeStyle;startArrow=none;;endArrow=block;endFill=1;;exitX=0.5;exitY=-0.018761694744157075;exitPerimeter=0;entryX=0.5000000000000007;entryY=1.0187616947441571;entryPerimeter=0;" parent="1" source="mhpVxY0XPYVUC-uozozE-51" target="mhpVxY0XPYVUC-uozozE-50" edge="1">
            <mxGeometry width="100" height="100" relative="1" as="geometry">
              <Array as="points" />
            </mxGeometry>
          </mxCell>
        </UserObject>
        <mxCell id="mhpVxY0XPYVUC-uozozE-60" value="0/4" style="text;html=1;resizable=0;labelBackgroundColor=#ffffff;align=center;verticalAlign=middle;fontStyle=1;fontColor=#333333;;fontSize=10.666666666666666;" parent="mhpVxY0XPYVUC-uozozE-59" vertex="1">
          <mxGeometry relative="1" as="geometry" />
        </mxCell>
        <UserObject label="" lucidchartObjectId="gQUIb2Lg6ZBM" id="mhpVxY0XPYVUC-uozozE-61">
          <mxCell style="html=1;jettySize=18;whiteSpace=wrap;fontSize=11;strokeColor=#99d2f2;strokeOpacity=100;rounded=1;arcSize=12;edgeStyle=orthogonalEdgeStyle;startArrow=none;;endArrow=block;endFill=1;;exitX=1.0187616947441571;exitY=0.5;exitPerimeter=0;entryX=-0.018761694744157075;entryY=0.5;entryPerimeter=0;" parent="1" source="mhpVxY0XPYVUC-uozozE-50" target="mhpVxY0XPYVUC-uozozE-52" edge="1">
            <mxGeometry width="100" height="100" relative="1" as="geometry">
              <Array as="points" />
            </mxGeometry>
          </mxCell>
        </UserObject>
        <mxCell id="mhpVxY0XPYVUC-uozozE-62" value="12/12" style="text;html=1;resizable=0;labelBackgroundColor=#ffffff;align=center;verticalAlign=middle;fontStyle=1;fontColor=#333333;;fontSize=10.666666666666666;" parent="mhpVxY0XPYVUC-uozozE-61" vertex="1">
          <mxGeometry x="-0.1012666223036216" relative="1" as="geometry" />
        </mxCell>
        <UserObject label="" lucidchartObjectId="gQUIxIrgQ6~p" id="mhpVxY0XPYVUC-uozozE-63">
          <mxCell style="html=1;jettySize=18;whiteSpace=wrap;fontSize=11;strokeColor=#5E5E5E;rounded=0;startArrow=block;endFill=1;;endArrow=none;;exitX=0.9401428532893352;exitY=0.22597078667528764;exitPerimeter=0;entryX=0.12631591462875344;entryY=0.858406898027855;entryPerimeter=0;" parent="1" source="mhpVxY0XPYVUC-uozozE-51" target="mhpVxY0XPYVUC-uozozE-52" edge="1">
            <mxGeometry width="100" height="100" relative="1" as="geometry">
              <Array as="points" />
            </mxGeometry>
          </mxCell>
        </UserObject>
        <mxCell id="mhpVxY0XPYVUC-uozozE-64" value="0/9" style="text;html=1;resizable=0;labelBackgroundColor=#ffffff;align=center;verticalAlign=middle;fontStyle=1;fontColor=#333333;;fontSize=10.666666666666666;" parent="mhpVxY0XPYVUC-uozozE-63" vertex="1">
          <mxGeometry x="0.1173580955875253" relative="1" as="geometry" />
        </mxCell>
        <UserObject label="" lucidchartObjectId="gQUIu_KAaYiB" id="mhpVxY0XPYVUC-uozozE-65">
          <mxCell style="html=1;jettySize=18;whiteSpace=wrap;fontSize=11;strokeColor=#5E5E5E;rounded=1;arcSize=12;edgeStyle=orthogonalEdgeStyle;startArrow=none;;endArrow=block;endFill=1;;exitX=1.0187616947441571;exitY=0.5;exitPerimeter=0;entryX=-0.018761694744157075;entryY=0.5;entryPerimeter=0;" parent="1" source="mhpVxY0XPYVUC-uozozE-51" target="mhpVxY0XPYVUC-uozozE-53" edge="1">
            <mxGeometry width="100" height="100" relative="1" as="geometry">
              <Array as="points" />
            </mxGeometry>
          </mxCell>
        </UserObject>
        <mxCell id="mhpVxY0XPYVUC-uozozE-66" value="0/14" style="text;html=1;resizable=0;labelBackgroundColor=#ffffff;align=center;verticalAlign=middle;fontStyle=1;fontColor=#333333;;fontSize=10.666666666666666;" parent="mhpVxY0XPYVUC-uozozE-65" vertex="1">
          <mxGeometry relative="1" as="geometry" />
        </mxCell>
        <UserObject label="" lucidchartObjectId="gQUIsP7eEclN" id="mhpVxY0XPYVUC-uozozE-67">
          <mxCell style="html=1;jettySize=18;whiteSpace=wrap;fontSize=11;strokeColor=#5E5E5E;rounded=1;arcSize=12;edgeStyle=orthogonalEdgeStyle;startArrow=none;;endArrow=block;endFill=1;;exitX=0.5;exitY=-0.018761694744157075;exitPerimeter=0;entryX=0.5;entryY=1.0187616947441571;entryPerimeter=0;" parent="1" source="mhpVxY0XPYVUC-uozozE-53" target="mhpVxY0XPYVUC-uozozE-52" edge="1">
            <mxGeometry width="100" height="100" relative="1" as="geometry">
              <Array as="points" />
            </mxGeometry>
          </mxCell>
        </UserObject>
        <mxCell id="mhpVxY0XPYVUC-uozozE-68" value="0/7" style="text;html=1;resizable=0;labelBackgroundColor=#ffffff;align=center;verticalAlign=middle;fontStyle=1;fontColor=#333333;;fontSize=10.666666666666666;" parent="mhpVxY0XPYVUC-uozozE-67" vertex="1">
          <mxGeometry relative="1" as="geometry" />
        </mxCell>
        <UserObject label="" lucidchartObjectId="gQUI5nviNFf2" id="mhpVxY0XPYVUC-uozozE-69">
          <mxCell style="html=1;jettySize=18;whiteSpace=wrap;fontSize=11;strokeColor=#5E5E5E;rounded=0;startArrow=none;;endArrow=block;endFill=1;;exitX=0.9543155829079784;exitY=0.25140737426147103;exitPerimeter=0;entryX=0.25071949648965997;entryY=0.9550034606797893;entryPerimeter=0;" parent="1" source="mhpVxY0XPYVUC-uozozE-53" target="mhpVxY0XPYVUC-uozozE-54" edge="1">
            <mxGeometry width="100" height="100" relative="1" as="geometry">
              <Array as="points" />
            </mxGeometry>
          </mxCell>
        </UserObject>
        <mxCell id="mhpVxY0XPYVUC-uozozE-70" value="0/4" style="text;html=1;resizable=0;labelBackgroundColor=#ffffff;align=center;verticalAlign=middle;fontStyle=1;fontColor=#333333;;fontSize=10.666666666666666;" parent="mhpVxY0XPYVUC-uozozE-69" vertex="1">
          <mxGeometry relative="1" as="geometry" />
        </mxCell>
        <UserObject label="" lucidchartObjectId="gQUIh.QEXFJH" id="mhpVxY0XPYVUC-uozozE-71">
          <mxCell style="html=1;jettySize=18;whiteSpace=wrap;fontSize=11;strokeColor=#99d2f2;strokeOpacity=100;rounded=0;startArrow=none;;endArrow=block;endFill=1;;exitX=0.9829058849722141;exitY=0.6899484597333446;exitPerimeter=0;entryX=0.16009065402019035;entryY=0.10879503264764515;entryPerimeter=0;" parent="1" source="mhpVxY0XPYVUC-uozozE-52" target="mhpVxY0XPYVUC-uozozE-54" edge="1">
            <mxGeometry width="100" height="100" relative="1" as="geometry">
              <Array as="points" />
            </mxGeometry>
          </mxCell>
        </UserObject>
        <mxCell id="mhpVxY0XPYVUC-uozozE-72" value="12/20" style="text;html=1;resizable=0;labelBackgroundColor=#ffffff;align=center;verticalAlign=middle;fontStyle=1;fontColor=#333333;;fontSize=10.666666666666666;" parent="mhpVxY0XPYVUC-uozozE-71" vertex="1">
          <mxGeometry relative="1" as="geometry" />
        </mxCell>
        <UserObject label="s" lucidchartObjectId="0TUIZI8wlxAD" id="mhpVxY0XPYVUC-uozozE-73">
          <mxCell style="html=1;whiteSpace=wrap;ellipse;whiteSpace=wrap;fontSize=13;fontColor=#333333;spacing=3;strokeColor=#5e5e5e;strokeOpacity=100;rounded=1;absoluteArcSize=1;arcSize=7.199999999999999;strokeWidth=2;" parent="1" vertex="1" zOrder="46">
            <mxGeometry x="460" y="454" width="48" height="48" as="geometry" />
          </mxCell>
        </UserObject>
        <UserObject label="v1" lucidchartObjectId="0TUI7hP7bb1-" id="mhpVxY0XPYVUC-uozozE-74">
          <mxCell style="html=1;whiteSpace=wrap;ellipse;whiteSpace=wrap;fontSize=13;fontColor=#333333;spacing=3;strokeColor=#5e5e5e;strokeOpacity=100;rounded=1;absoluteArcSize=1;arcSize=7.199999999999999;strokeWidth=2;" parent="1" vertex="1" zOrder="47">
            <mxGeometry x="556" y="358" width="48" height="48" as="geometry" />
          </mxCell>
        </UserObject>
        <UserObject label="v2" lucidchartObjectId="0TUIu22H0gwX" id="mhpVxY0XPYVUC-uozozE-75">
          <mxCell style="html=1;whiteSpace=wrap;ellipse;whiteSpace=wrap;fontSize=13;fontColor=#333333;spacing=3;strokeColor=#5e5e5e;strokeOpacity=100;rounded=1;absoluteArcSize=1;arcSize=7.199999999999999;strokeWidth=2;" parent="1" vertex="1" zOrder="48">
            <mxGeometry x="556" y="550" width="48" height="48" as="geometry" />
          </mxCell>
        </UserObject>
        <mxCell id="mhpVxY0XPYVUC-uozozE-100" style="edgeStyle=orthogonalEdgeStyle;curved=1;orthogonalLoop=1;jettySize=auto;html=1;exitX=0.5;exitY=0;exitDx=0;exitDy=0;entryX=0.5;entryY=0;entryDx=0;entryDy=0;" parent="1" source="mhpVxY0XPYVUC-uozozE-76" target="mhpVxY0XPYVUC-uozozE-74" edge="1">
          <mxGeometry relative="1" as="geometry" />
        </mxCell>
        <UserObject label="v3" lucidchartObjectId="0TUIEPNrfkuP" id="mhpVxY0XPYVUC-uozozE-76">
          <mxCell style="html=1;whiteSpace=wrap;ellipse;whiteSpace=wrap;fontSize=13;fontColor=#333333;spacing=3;strokeColor=#5e5e5e;strokeOpacity=100;rounded=1;absoluteArcSize=1;arcSize=7.199999999999999;strokeWidth=2;" parent="1" vertex="1" zOrder="49">
            <mxGeometry x="700" y="358" width="48" height="48" as="geometry" />
          </mxCell>
        </UserObject>
        <UserObject label="v4" lucidchartObjectId="0TUIhYQ5SV~0" id="mhpVxY0XPYVUC-uozozE-77">
          <mxCell style="html=1;whiteSpace=wrap;ellipse;whiteSpace=wrap;fontSize=13;fontColor=#333333;spacing=3;strokeColor=#5e5e5e;strokeOpacity=100;rounded=1;absoluteArcSize=1;arcSize=7.199999999999999;strokeWidth=2;" parent="1" vertex="1" zOrder="50">
            <mxGeometry x="700" y="550" width="48" height="48" as="geometry" />
          </mxCell>
        </UserObject>
        <mxCell id="mhpVxY0XPYVUC-uozozE-102" style="edgeStyle=orthogonalEdgeStyle;curved=1;orthogonalLoop=1;jettySize=auto;html=1;exitX=0.5;exitY=0;exitDx=0;exitDy=0;entryX=1;entryY=0.5;entryDx=0;entryDy=0;" parent="1" source="mhpVxY0XPYVUC-uozozE-78" target="mhpVxY0XPYVUC-uozozE-76" edge="1">
          <mxGeometry relative="1" as="geometry" />
        </mxCell>
        <UserObject label="t" lucidchartObjectId="0TUIbhMmOhcr" id="mhpVxY0XPYVUC-uozozE-78">
          <mxCell style="html=1;whiteSpace=wrap;ellipse;whiteSpace=wrap;fontSize=13;fontColor=#333333;spacing=3;strokeColor=#5e5e5e;strokeOpacity=100;rounded=1;absoluteArcSize=1;arcSize=7.199999999999999;strokeWidth=2;" parent="1" vertex="1" zOrder="51">
            <mxGeometry x="796" y="454" width="48" height="48" as="geometry" />
          </mxCell>
        </UserObject>
        <UserObject label="" lucidchartObjectId="0TUIcLSe.Dsl" id="mhpVxY0XPYVUC-uozozE-79">
          <mxCell style="html=1;jettySize=18;whiteSpace=wrap;fontSize=11;strokeColor=#99d2f2;strokeOpacity=100;rounded=0;startArrow=none;;endArrow=block;endFill=1;;exitX=0.8233273001386603;exitY=0.09551767611224485;exitPerimeter=0;entryX=0.1105524451775262;entryY=0.841764722311688;entryPerimeter=0;" parent="1" source="mhpVxY0XPYVUC-uozozE-73" target="mhpVxY0XPYVUC-uozozE-74" edge="1">
            <mxGeometry width="100" height="100" relative="1" as="geometry">
              <Array as="points" />
            </mxGeometry>
          </mxCell>
        </UserObject>
        <mxCell id="mhpVxY0XPYVUC-uozozE-80" value="4" style="text;html=1;resizable=0;labelBackgroundColor=#ffffff;align=center;verticalAlign=middle;fontStyle=1;fontColor=#333333;;fontSize=10.666666666666666;" parent="mhpVxY0XPYVUC-uozozE-79" vertex="1">
          <mxGeometry x="-0.13717128299779502" relative="1" as="geometry" />
        </mxCell>
        <UserObject label="" lucidchartObjectId="0TUI8pHJsigk" id="mhpVxY0XPYVUC-uozozE-81">
          <mxCell style="html=1;jettySize=18;whiteSpace=wrap;fontSize=11;strokeColor=#5E5E5E;rounded=0;startArrow=none;;endArrow=block;endFill=1;;exitX=0.8505496542527411;exitY=0.881126466964389;exitPerimeter=0;entryX=0.1183242864720837;entryY=0.14890109918373157;entryPerimeter=0;" parent="1" source="mhpVxY0XPYVUC-uozozE-73" target="mhpVxY0XPYVUC-uozozE-75" edge="1">
            <mxGeometry width="100" height="100" relative="1" as="geometry">
              <Array as="points" />
            </mxGeometry>
          </mxCell>
        </UserObject>
        <mxCell id="mhpVxY0XPYVUC-uozozE-82" value="0/13" style="text;html=1;resizable=0;labelBackgroundColor=#ffffff;align=center;verticalAlign=middle;fontStyle=1;fontColor=#333333;;fontSize=10.666666666666666;" parent="mhpVxY0XPYVUC-uozozE-81" vertex="1">
          <mxGeometry x="-0.13204608129133955" relative="1" as="geometry" />
        </mxCell>
        <UserObject label="" lucidchartObjectId="0TUIyPDbd9Ul" id="mhpVxY0XPYVUC-uozozE-83">
          <mxCell style="html=1;jettySize=18;whiteSpace=wrap;fontSize=11;strokeColor=#5E5E5E;rounded=1;arcSize=12;edgeStyle=orthogonalEdgeStyle;startArrow=none;;endArrow=block;endFill=1;;exitX=0.5;exitY=-0.018761694744157165;exitPerimeter=0;entryX=0.5000000000000007;entryY=1.0187616947441573;entryPerimeter=0;" parent="1" source="mhpVxY0XPYVUC-uozozE-75" target="mhpVxY0XPYVUC-uozozE-74" edge="1">
            <mxGeometry width="100" height="100" relative="1" as="geometry">
              <Array as="points" />
            </mxGeometry>
          </mxCell>
        </UserObject>
        <mxCell id="mhpVxY0XPYVUC-uozozE-84" value="0/4" style="text;html=1;resizable=0;labelBackgroundColor=#ffffff;align=center;verticalAlign=middle;fontStyle=1;fontColor=#333333;;fontSize=10.666666666666666;" parent="mhpVxY0XPYVUC-uozozE-83" vertex="1">
          <mxGeometry relative="1" as="geometry" />
        </mxCell>
        <UserObject label="" lucidchartObjectId="0TUI1EfdL89q" id="mhpVxY0XPYVUC-uozozE-85">
          <mxCell style="html=1;jettySize=18;whiteSpace=wrap;fontSize=11;strokeColor=#99d2f2;strokeOpacity=100;rounded=1;arcSize=12;edgeStyle=orthogonalEdgeStyle;startArrow=none;;endArrow=block;endFill=1;;exitX=1.0187616947441587;exitY=0.5;exitPerimeter=0;entryX=-0.018761694744158584;entryY=0.5;entryPerimeter=0;" parent="1" source="mhpVxY0XPYVUC-uozozE-74" target="mhpVxY0XPYVUC-uozozE-76" edge="1">
            <mxGeometry width="100" height="100" relative="1" as="geometry">
              <Array as="points" />
            </mxGeometry>
          </mxCell>
        </UserObject>
        <mxCell id="mhpVxY0XPYVUC-uozozE-86" value="0" style="text;html=1;resizable=0;labelBackgroundColor=#ffffff;align=center;verticalAlign=middle;fontStyle=1;fontColor=#333333;;fontSize=10.666666666666666;" parent="mhpVxY0XPYVUC-uozozE-85" vertex="1">
          <mxGeometry x="-0.1012666223036216" relative="1" as="geometry" />
        </mxCell>
        <UserObject label="" lucidchartObjectId="0TUIlrKOtf2." id="mhpVxY0XPYVUC-uozozE-87">
          <mxCell style="html=1;jettySize=18;whiteSpace=wrap;fontSize=11;strokeColor=#5E5E5E;rounded=0;startArrow=block;endFill=1;;endArrow=none;;exitX=0.9401428532893341;exitY=0.22597078667528825;exitPerimeter=0;entryX=0.1263159146287532;entryY=0.8584068980278552;entryPerimeter=0;" parent="1" source="mhpVxY0XPYVUC-uozozE-75" target="mhpVxY0XPYVUC-uozozE-76" edge="1">
            <mxGeometry width="100" height="100" relative="1" as="geometry">
              <Array as="points" />
            </mxGeometry>
          </mxCell>
        </UserObject>
        <mxCell id="mhpVxY0XPYVUC-uozozE-88" value="0/9" style="text;html=1;resizable=0;labelBackgroundColor=#ffffff;align=center;verticalAlign=middle;fontStyle=1;fontColor=#333333;;fontSize=10.666666666666666;" parent="mhpVxY0XPYVUC-uozozE-87" vertex="1">
          <mxGeometry x="0.1173580955875253" relative="1" as="geometry" />
        </mxCell>
        <UserObject label="" lucidchartObjectId="0TUItWgnyY6h" id="mhpVxY0XPYVUC-uozozE-89">
          <mxCell style="html=1;jettySize=18;whiteSpace=wrap;fontSize=11;strokeColor=#5E5E5E;rounded=1;arcSize=12;edgeStyle=orthogonalEdgeStyle;startArrow=none;;endArrow=block;endFill=1;;exitX=1.0187616947441587;exitY=0.5;exitPerimeter=0;entryX=-0.018761694744158584;entryY=0.5;entryPerimeter=0;" parent="1" source="mhpVxY0XPYVUC-uozozE-75" target="mhpVxY0XPYVUC-uozozE-77" edge="1">
            <mxGeometry width="100" height="100" relative="1" as="geometry">
              <Array as="points" />
            </mxGeometry>
          </mxCell>
        </UserObject>
        <mxCell id="mhpVxY0XPYVUC-uozozE-90" value="0/14" style="text;html=1;resizable=0;labelBackgroundColor=#ffffff;align=center;verticalAlign=middle;fontStyle=1;fontColor=#333333;;fontSize=10.666666666666666;" parent="mhpVxY0XPYVUC-uozozE-89" vertex="1">
          <mxGeometry relative="1" as="geometry" />
        </mxCell>
        <UserObject label="" lucidchartObjectId="0TUInPz0SSq~" id="mhpVxY0XPYVUC-uozozE-91">
          <mxCell style="html=1;jettySize=18;whiteSpace=wrap;fontSize=11;strokeColor=#5E5E5E;rounded=1;arcSize=12;edgeStyle=orthogonalEdgeStyle;startArrow=none;;endArrow=block;endFill=1;;exitX=0.5;exitY=-0.018761694744157165;exitPerimeter=0;entryX=0.5;entryY=1.0187616947441573;entryPerimeter=0;" parent="1" source="mhpVxY0XPYVUC-uozozE-77" target="mhpVxY0XPYVUC-uozozE-76" edge="1">
            <mxGeometry width="100" height="100" relative="1" as="geometry">
              <Array as="points" />
            </mxGeometry>
          </mxCell>
        </UserObject>
        <mxCell id="mhpVxY0XPYVUC-uozozE-92" value="0/7" style="text;html=1;resizable=0;labelBackgroundColor=#ffffff;align=center;verticalAlign=middle;fontStyle=1;fontColor=#333333;;fontSize=10.666666666666666;" parent="mhpVxY0XPYVUC-uozozE-91" vertex="1">
          <mxGeometry relative="1" as="geometry" />
        </mxCell>
        <UserObject label="" lucidchartObjectId="0TUIGq3dbJ5p" id="mhpVxY0XPYVUC-uozozE-93">
          <mxCell style="html=1;jettySize=18;whiteSpace=wrap;fontSize=11;strokeColor=#5E5E5E;rounded=0;startArrow=none;;endArrow=block;endFill=1;;exitX=0.9543155829079778;exitY=0.25140737426147136;exitPerimeter=0;entryX=0.25071949648965997;entryY=0.9550034606797893;entryPerimeter=0;" parent="1" source="mhpVxY0XPYVUC-uozozE-77" target="mhpVxY0XPYVUC-uozozE-78" edge="1">
            <mxGeometry width="100" height="100" relative="1" as="geometry">
              <Array as="points" />
            </mxGeometry>
          </mxCell>
        </UserObject>
        <mxCell id="mhpVxY0XPYVUC-uozozE-94" value="0/4" style="text;html=1;resizable=0;labelBackgroundColor=#ffffff;align=center;verticalAlign=middle;fontStyle=1;fontColor=#333333;;fontSize=10.666666666666666;" parent="mhpVxY0XPYVUC-uozozE-93" vertex="1">
          <mxGeometry relative="1" as="geometry" />
        </mxCell>
        <UserObject label="" lucidchartObjectId="0TUIasHpLuB7" id="mhpVxY0XPYVUC-uozozE-95">
          <mxCell style="html=1;jettySize=18;whiteSpace=wrap;fontSize=11;strokeColor=#99d2f2;strokeOpacity=100;rounded=0;startArrow=none;;endArrow=block;endFill=1;;exitX=0.9829058849722141;exitY=0.6899484597333446;exitPerimeter=0;entryX=0.16009065402019038;entryY=0.10879503264764515;entryPerimeter=0;" parent="1" source="mhpVxY0XPYVUC-uozozE-76" target="mhpVxY0XPYVUC-uozozE-78" edge="1">
            <mxGeometry width="100" height="100" relative="1" as="geometry">
              <Array as="points" />
            </mxGeometry>
          </mxCell>
        </UserObject>
        <mxCell id="mhpVxY0XPYVUC-uozozE-96" value="8" style="text;html=1;resizable=0;labelBackgroundColor=#ffffff;align=center;verticalAlign=middle;fontStyle=1;fontColor=#333333;;fontSize=10.666666666666666;" parent="mhpVxY0XPYVUC-uozozE-95" vertex="1">
          <mxGeometry relative="1" as="geometry" />
        </mxCell>
        <mxCell id="mhpVxY0XPYVUC-uozozE-97" value="" style="endArrow=classic;html=1;exitX=-0.003;exitY=0.408;exitDx=0;exitDy=0;exitPerimeter=0;entryX=0;entryY=0;entryDx=0;entryDy=0;curved=1;" parent="1" source="mhpVxY0XPYVUC-uozozE-74" target="mhpVxY0XPYVUC-uozozE-73" edge="1">
          <mxGeometry width="50" height="50" relative="1" as="geometry">
            <mxPoint x="470" y="400" as="sourcePoint" />
            <mxPoint x="520" y="350" as="targetPoint" />
            <Array as="points">
              <mxPoint x="484" y="390" />
            </Array>
          </mxGeometry>
        </mxCell>
        <mxCell id="mhpVxY0XPYVUC-uozozE-98" value="12" style="text;html=1;align=center;verticalAlign=middle;resizable=0;points=[];autosize=1;" parent="1" vertex="1">
          <mxGeometry x="469" y="386" width="30" height="20" as="geometry" />
        </mxCell>
        <mxCell id="mhpVxY0XPYVUC-uozozE-101" value="12" style="text;html=1;align=center;verticalAlign=middle;resizable=0;points=[];autosize=1;" parent="1" vertex="1">
          <mxGeometry x="655" y="320" width="30" height="20" as="geometry" />
        </mxCell>
        <mxCell id="mhpVxY0XPYVUC-uozozE-103" value="12" style="text;html=1;align=center;verticalAlign=middle;resizable=0;points=[];autosize=1;" parent="1" vertex="1">
          <mxGeometry x="805" y="390" width="30" height="20" as="geometry" />
        </mxCell>
        <UserObject label="s" lucidchartObjectId="0TUIZI8wlxAD" id="mhpVxY0XPYVUC-uozozE-104">
          <mxCell style="html=1;whiteSpace=wrap;ellipse;whiteSpace=wrap;fontSize=13;fontColor=#333333;spacing=3;strokeColor=#5e5e5e;strokeOpacity=100;rounded=1;absoluteArcSize=1;arcSize=7.199999999999999;strokeWidth=2;" parent="1" vertex="1" zOrder="46">
            <mxGeometry x="10" y="804" width="48" height="48" as="geometry" />
          </mxCell>
        </UserObject>
        <UserObject label="v1" lucidchartObjectId="0TUI7hP7bb1-" id="mhpVxY0XPYVUC-uozozE-105">
          <mxCell style="html=1;whiteSpace=wrap;ellipse;whiteSpace=wrap;fontSize=13;fontColor=#333333;spacing=3;strokeColor=#5e5e5e;strokeOpacity=100;rounded=1;absoluteArcSize=1;arcSize=7.199999999999999;strokeWidth=2;" parent="1" vertex="1" zOrder="47">
            <mxGeometry x="106" y="708" width="48" height="48" as="geometry" />
          </mxCell>
        </UserObject>
        <UserObject label="v2" lucidchartObjectId="0TUIu22H0gwX" id="mhpVxY0XPYVUC-uozozE-106">
          <mxCell style="html=1;whiteSpace=wrap;ellipse;whiteSpace=wrap;fontSize=13;fontColor=#333333;spacing=3;strokeColor=#5e5e5e;strokeOpacity=100;rounded=1;absoluteArcSize=1;arcSize=7.199999999999999;strokeWidth=2;" parent="1" vertex="1" zOrder="48">
            <mxGeometry x="106" y="900" width="48" height="48" as="geometry" />
          </mxCell>
        </UserObject>
        <mxCell id="mhpVxY0XPYVUC-uozozE-107" style="edgeStyle=orthogonalEdgeStyle;curved=1;orthogonalLoop=1;jettySize=auto;html=1;exitX=0.5;exitY=0;exitDx=0;exitDy=0;entryX=0.5;entryY=0;entryDx=0;entryDy=0;fillColor=#dae8fc;strokeColor=#6c8ebf;" parent="1" source="mhpVxY0XPYVUC-uozozE-108" target="mhpVxY0XPYVUC-uozozE-105" edge="1">
          <mxGeometry relative="1" as="geometry" />
        </mxCell>
        <UserObject label="v3" lucidchartObjectId="0TUIEPNrfkuP" id="mhpVxY0XPYVUC-uozozE-108">
          <mxCell style="html=1;whiteSpace=wrap;ellipse;whiteSpace=wrap;fontSize=13;fontColor=#333333;spacing=3;strokeColor=#5e5e5e;strokeOpacity=100;rounded=1;absoluteArcSize=1;arcSize=7.199999999999999;strokeWidth=2;" parent="1" vertex="1" zOrder="49">
            <mxGeometry x="250" y="708" width="48" height="48" as="geometry" />
          </mxCell>
        </UserObject>
        <UserObject label="v4" lucidchartObjectId="0TUIhYQ5SV~0" id="mhpVxY0XPYVUC-uozozE-109">
          <mxCell style="html=1;whiteSpace=wrap;ellipse;whiteSpace=wrap;fontSize=13;fontColor=#333333;spacing=3;strokeColor=#5e5e5e;strokeOpacity=100;rounded=1;absoluteArcSize=1;arcSize=7.199999999999999;strokeWidth=2;" parent="1" vertex="1" zOrder="50">
            <mxGeometry x="250" y="900" width="48" height="48" as="geometry" />
          </mxCell>
        </UserObject>
        <mxCell id="mhpVxY0XPYVUC-uozozE-110" style="edgeStyle=orthogonalEdgeStyle;curved=1;orthogonalLoop=1;jettySize=auto;html=1;exitX=0.5;exitY=0;exitDx=0;exitDy=0;entryX=1;entryY=0.5;entryDx=0;entryDy=0;fillColor=#dae8fc;strokeColor=#6c8ebf;" parent="1" source="mhpVxY0XPYVUC-uozozE-111" target="mhpVxY0XPYVUC-uozozE-108" edge="1">
          <mxGeometry relative="1" as="geometry" />
        </mxCell>
        <UserObject label="t" lucidchartObjectId="0TUIbhMmOhcr" id="mhpVxY0XPYVUC-uozozE-111">
          <mxCell style="html=1;whiteSpace=wrap;ellipse;whiteSpace=wrap;fontSize=13;fontColor=#333333;spacing=3;strokeColor=#5e5e5e;strokeOpacity=100;rounded=1;absoluteArcSize=1;arcSize=7.199999999999999;strokeWidth=2;" parent="1" vertex="1" zOrder="51">
            <mxGeometry x="346" y="804" width="48" height="48" as="geometry" />
          </mxCell>
        </UserObject>
        <UserObject label="" lucidchartObjectId="0TUIcLSe.Dsl" id="mhpVxY0XPYVUC-uozozE-112">
          <mxCell style="html=1;jettySize=18;whiteSpace=wrap;fontSize=11;strokeColor=#99d2f2;strokeOpacity=100;rounded=0;startArrow=none;;endArrow=block;endFill=1;;exitX=0.8233273001386603;exitY=0.09551767611224485;exitPerimeter=0;entryX=0.1105524451775262;entryY=0.841764722311688;entryPerimeter=0;" parent="1" source="mhpVxY0XPYVUC-uozozE-104" target="mhpVxY0XPYVUC-uozozE-105" edge="1">
            <mxGeometry width="100" height="100" relative="1" as="geometry">
              <Array as="points" />
            </mxGeometry>
          </mxCell>
        </UserObject>
        <mxCell id="mhpVxY0XPYVUC-uozozE-113" value="0/4" style="text;html=1;resizable=0;labelBackgroundColor=#ffffff;align=center;verticalAlign=middle;fontStyle=1;fontColor=#333333;;fontSize=10.666666666666666;" parent="mhpVxY0XPYVUC-uozozE-112" vertex="1">
          <mxGeometry x="-0.13717128299779502" relative="1" as="geometry" />
        </mxCell>
        <UserObject label="" lucidchartObjectId="0TUI8pHJsigk" id="mhpVxY0XPYVUC-uozozE-114">
          <mxCell style="html=1;jettySize=18;whiteSpace=wrap;fontSize=11;strokeColor=#d79b00;rounded=0;startArrow=none;;endArrow=block;endFill=1;;exitX=0.8505496542527411;exitY=0.881126466964389;exitPerimeter=0;entryX=0.1183242864720837;entryY=0.14890109918373157;entryPerimeter=0;fillColor=#ffe6cc;" parent="1" source="mhpVxY0XPYVUC-uozozE-104" target="mhpVxY0XPYVUC-uozozE-106" edge="1">
            <mxGeometry width="100" height="100" relative="1" as="geometry">
              <Array as="points" />
            </mxGeometry>
          </mxCell>
        </UserObject>
        <mxCell id="mhpVxY0XPYVUC-uozozE-115" value="7/13" style="text;html=1;resizable=0;labelBackgroundColor=#ffffff;align=center;verticalAlign=middle;fontStyle=1;fontColor=#333333;;fontSize=10.666666666666666;" parent="mhpVxY0XPYVUC-uozozE-114" vertex="1">
          <mxGeometry x="-0.13204608129133955" relative="1" as="geometry" />
        </mxCell>
        <UserObject label="" lucidchartObjectId="0TUIyPDbd9Ul" id="mhpVxY0XPYVUC-uozozE-116">
          <mxCell style="html=1;jettySize=18;whiteSpace=wrap;fontSize=11;strokeColor=#5E5E5E;rounded=1;arcSize=12;edgeStyle=orthogonalEdgeStyle;startArrow=none;;endArrow=block;endFill=1;;exitX=0.5;exitY=-0.018761694744157165;exitPerimeter=0;entryX=0.5000000000000007;entryY=1.0187616947441573;entryPerimeter=0;" parent="1" source="mhpVxY0XPYVUC-uozozE-106" target="mhpVxY0XPYVUC-uozozE-105" edge="1">
            <mxGeometry width="100" height="100" relative="1" as="geometry">
              <Array as="points" />
            </mxGeometry>
          </mxCell>
        </UserObject>
        <mxCell id="mhpVxY0XPYVUC-uozozE-117" value="0/4" style="text;html=1;resizable=0;labelBackgroundColor=#ffffff;align=center;verticalAlign=middle;fontStyle=1;fontColor=#333333;;fontSize=10.666666666666666;" parent="mhpVxY0XPYVUC-uozozE-116" vertex="1">
          <mxGeometry relative="1" as="geometry" />
        </mxCell>
        <UserObject label="" lucidchartObjectId="0TUI1EfdL89q" id="mhpVxY0XPYVUC-uozozE-118">
          <mxCell style="html=1;jettySize=18;whiteSpace=wrap;fontSize=11;strokeColor=#99d2f2;strokeOpacity=100;rounded=1;arcSize=12;edgeStyle=orthogonalEdgeStyle;startArrow=none;;endArrow=block;endFill=1;;exitX=1.0187616947441587;exitY=0.5;exitPerimeter=0;entryX=-0.018761694744158584;entryY=0.5;entryPerimeter=0;" parent="1" source="mhpVxY0XPYVUC-uozozE-105" target="mhpVxY0XPYVUC-uozozE-108" edge="1">
            <mxGeometry width="100" height="100" relative="1" as="geometry">
              <Array as="points" />
            </mxGeometry>
          </mxCell>
        </UserObject>
        <mxCell id="mhpVxY0XPYVUC-uozozE-119" value="0/0" style="text;html=1;resizable=0;labelBackgroundColor=#ffffff;align=center;verticalAlign=middle;fontStyle=1;fontColor=#333333;;fontSize=10.666666666666666;" parent="mhpVxY0XPYVUC-uozozE-118" vertex="1">
          <mxGeometry x="-0.1012666223036216" relative="1" as="geometry" />
        </mxCell>
        <UserObject label="" lucidchartObjectId="0TUIlrKOtf2." id="mhpVxY0XPYVUC-uozozE-120">
          <mxCell style="html=1;jettySize=18;whiteSpace=wrap;fontSize=11;strokeColor=#5E5E5E;rounded=0;startArrow=block;endFill=1;;endArrow=none;;exitX=0.9401428532893341;exitY=0.22597078667528825;exitPerimeter=0;entryX=0.1263159146287532;entryY=0.8584068980278552;entryPerimeter=0;" parent="1" source="mhpVxY0XPYVUC-uozozE-106" target="mhpVxY0XPYVUC-uozozE-108" edge="1">
            <mxGeometry width="100" height="100" relative="1" as="geometry">
              <Array as="points" />
            </mxGeometry>
          </mxCell>
        </UserObject>
        <mxCell id="mhpVxY0XPYVUC-uozozE-121" value="0/9" style="text;html=1;resizable=0;labelBackgroundColor=#ffffff;align=center;verticalAlign=middle;fontStyle=1;fontColor=#333333;;fontSize=10.666666666666666;" parent="mhpVxY0XPYVUC-uozozE-120" vertex="1">
          <mxGeometry x="0.1173580955875253" relative="1" as="geometry" />
        </mxCell>
        <UserObject label="" lucidchartObjectId="0TUItWgnyY6h" id="mhpVxY0XPYVUC-uozozE-122">
          <mxCell style="html=1;jettySize=18;whiteSpace=wrap;fontSize=11;strokeColor=#d79b00;rounded=1;arcSize=12;edgeStyle=orthogonalEdgeStyle;startArrow=none;;endArrow=block;endFill=1;;exitX=1.0187616947441587;exitY=0.5;exitPerimeter=0;entryX=-0.018761694744158584;entryY=0.5;entryPerimeter=0;fillColor=#ffe6cc;" parent="1" source="mhpVxY0XPYVUC-uozozE-106" target="mhpVxY0XPYVUC-uozozE-109" edge="1">
            <mxGeometry width="100" height="100" relative="1" as="geometry">
              <Array as="points" />
            </mxGeometry>
          </mxCell>
        </UserObject>
        <mxCell id="mhpVxY0XPYVUC-uozozE-123" value="7/14" style="text;html=1;resizable=0;labelBackgroundColor=#ffffff;align=center;verticalAlign=middle;fontStyle=1;fontColor=#333333;;fontSize=10.666666666666666;" parent="mhpVxY0XPYVUC-uozozE-122" vertex="1">
          <mxGeometry relative="1" as="geometry" />
        </mxCell>
        <UserObject label="" lucidchartObjectId="0TUInPz0SSq~" id="mhpVxY0XPYVUC-uozozE-124">
          <mxCell style="html=1;jettySize=18;whiteSpace=wrap;fontSize=11;strokeColor=#d79b00;rounded=1;arcSize=12;edgeStyle=orthogonalEdgeStyle;startArrow=none;;endArrow=block;endFill=1;;exitX=0.5;exitY=-0.018761694744157165;exitPerimeter=0;entryX=0.5;entryY=1.0187616947441573;entryPerimeter=0;fillColor=#ffe6cc;" parent="1" source="mhpVxY0XPYVUC-uozozE-109" target="mhpVxY0XPYVUC-uozozE-108" edge="1">
            <mxGeometry width="100" height="100" relative="1" as="geometry">
              <Array as="points" />
            </mxGeometry>
          </mxCell>
        </UserObject>
        <mxCell id="mhpVxY0XPYVUC-uozozE-125" value="7/7" style="text;html=1;resizable=0;labelBackgroundColor=#ffffff;align=center;verticalAlign=middle;fontStyle=1;fontColor=#333333;;fontSize=10.666666666666666;" parent="mhpVxY0XPYVUC-uozozE-124" vertex="1">
          <mxGeometry relative="1" as="geometry" />
        </mxCell>
        <UserObject label="" lucidchartObjectId="0TUIGq3dbJ5p" id="mhpVxY0XPYVUC-uozozE-126">
          <mxCell style="html=1;jettySize=18;whiteSpace=wrap;fontSize=11;strokeColor=#5E5E5E;rounded=0;startArrow=none;;endArrow=block;endFill=1;;exitX=0.9543155829079778;exitY=0.25140737426147136;exitPerimeter=0;entryX=0.25071949648965997;entryY=0.9550034606797893;entryPerimeter=0;" parent="1" source="mhpVxY0XPYVUC-uozozE-109" target="mhpVxY0XPYVUC-uozozE-111" edge="1">
            <mxGeometry width="100" height="100" relative="1" as="geometry">
              <Array as="points" />
            </mxGeometry>
          </mxCell>
        </UserObject>
        <mxCell id="mhpVxY0XPYVUC-uozozE-127" value="0/4" style="text;html=1;resizable=0;labelBackgroundColor=#ffffff;align=center;verticalAlign=middle;fontStyle=1;fontColor=#333333;;fontSize=10.666666666666666;" parent="mhpVxY0XPYVUC-uozozE-126" vertex="1">
          <mxGeometry relative="1" as="geometry" />
        </mxCell>
        <UserObject label="" lucidchartObjectId="0TUIasHpLuB7" id="mhpVxY0XPYVUC-uozozE-128">
          <mxCell style="html=1;jettySize=18;whiteSpace=wrap;fontSize=11;strokeColor=#99d2f2;strokeOpacity=100;rounded=0;startArrow=none;;endArrow=block;endFill=1;;exitX=0.9829058849722141;exitY=0.6899484597333446;exitPerimeter=0;entryX=0.16009065402019038;entryY=0.10879503264764515;entryPerimeter=0;" parent="1" source="mhpVxY0XPYVUC-uozozE-108" target="mhpVxY0XPYVUC-uozozE-111" edge="1">
            <mxGeometry width="100" height="100" relative="1" as="geometry">
              <Array as="points" />
            </mxGeometry>
          </mxCell>
        </UserObject>
        <mxCell id="mhpVxY0XPYVUC-uozozE-129" value="7/8" style="text;html=1;resizable=0;labelBackgroundColor=#ffffff;align=center;verticalAlign=middle;fontStyle=1;fontColor=#333333;;fontSize=10.666666666666666;" parent="mhpVxY0XPYVUC-uozozE-128" vertex="1">
          <mxGeometry relative="1" as="geometry" />
        </mxCell>
        <mxCell id="mhpVxY0XPYVUC-uozozE-130" value="" style="endArrow=classic;html=1;exitX=-0.003;exitY=0.408;exitDx=0;exitDy=0;exitPerimeter=0;entryX=0;entryY=0;entryDx=0;entryDy=0;curved=1;fillColor=#dae8fc;strokeColor=#6c8ebf;" parent="1" source="mhpVxY0XPYVUC-uozozE-105" target="mhpVxY0XPYVUC-uozozE-104" edge="1">
          <mxGeometry width="50" height="50" relative="1" as="geometry">
            <mxPoint x="20" y="750" as="sourcePoint" />
            <mxPoint x="70" y="700" as="targetPoint" />
            <Array as="points">
              <mxPoint x="34" y="740" />
            </Array>
          </mxGeometry>
        </mxCell>
        <mxCell id="mhpVxY0XPYVUC-uozozE-131" value="12" style="text;html=1;align=center;verticalAlign=middle;resizable=0;points=[];autosize=1;" parent="1" vertex="1">
          <mxGeometry x="19" y="736" width="30" height="20" as="geometry" />
        </mxCell>
        <mxCell id="mhpVxY0XPYVUC-uozozE-132" value="12" style="text;html=1;align=center;verticalAlign=middle;resizable=0;points=[];autosize=1;" parent="1" vertex="1">
          <mxGeometry x="185" y="670" width="30" height="20" as="geometry" />
        </mxCell>
        <mxCell id="mhpVxY0XPYVUC-uozozE-133" value="12" style="text;html=1;align=center;verticalAlign=middle;resizable=0;points=[];autosize=1;" parent="1" vertex="1">
          <mxGeometry x="355" y="740" width="30" height="20" as="geometry" />
        </mxCell>
        <UserObject label="s" lucidchartObjectId="0TUIZI8wlxAD" id="mhpVxY0XPYVUC-uozozE-134">
          <mxCell style="html=1;whiteSpace=wrap;ellipse;whiteSpace=wrap;fontSize=13;fontColor=#333333;spacing=3;strokeColor=#5e5e5e;strokeOpacity=100;rounded=1;absoluteArcSize=1;arcSize=7.199999999999999;strokeWidth=2;" parent="1" vertex="1" zOrder="46">
            <mxGeometry x="460" y="794" width="48" height="48" as="geometry" />
          </mxCell>
        </UserObject>
        <UserObject label="v1" lucidchartObjectId="0TUI7hP7bb1-" id="mhpVxY0XPYVUC-uozozE-135">
          <mxCell style="html=1;whiteSpace=wrap;ellipse;whiteSpace=wrap;fontSize=13;fontColor=#333333;spacing=3;strokeColor=#5e5e5e;strokeOpacity=100;rounded=1;absoluteArcSize=1;arcSize=7.199999999999999;strokeWidth=2;" parent="1" vertex="1" zOrder="47">
            <mxGeometry x="556" y="698" width="48" height="48" as="geometry" />
          </mxCell>
        </UserObject>
        <mxCell id="mhpVxY0XPYVUC-uozozE-168" style="edgeStyle=orthogonalEdgeStyle;curved=1;orthogonalLoop=1;jettySize=auto;html=1;exitX=0;exitY=0.5;exitDx=0;exitDy=0;entryX=0.5;entryY=1;entryDx=0;entryDy=0;fillColor=#fa6800;strokeColor=#C73500;" parent="1" source="mhpVxY0XPYVUC-uozozE-136" target="mhpVxY0XPYVUC-uozozE-134" edge="1">
          <mxGeometry relative="1" as="geometry" />
        </mxCell>
        <mxCell id="mhpVxY0XPYVUC-uozozE-169" value="7" style="edgeLabel;html=1;align=center;verticalAlign=middle;resizable=0;points=[];" parent="mhpVxY0XPYVUC-uozozE-168" vertex="1" connectable="0">
          <mxGeometry x="-0.1329" y="-24" relative="1" as="geometry">
            <mxPoint as="offset" />
          </mxGeometry>
        </mxCell>
        <UserObject label="v2" lucidchartObjectId="0TUIu22H0gwX" id="mhpVxY0XPYVUC-uozozE-136">
          <mxCell style="html=1;whiteSpace=wrap;ellipse;whiteSpace=wrap;fontSize=13;fontColor=#333333;spacing=3;strokeColor=#5e5e5e;strokeOpacity=100;rounded=1;absoluteArcSize=1;arcSize=7.199999999999999;strokeWidth=2;" parent="1" vertex="1" zOrder="48">
            <mxGeometry x="556" y="890" width="48" height="48" as="geometry" />
          </mxCell>
        </UserObject>
        <mxCell id="mhpVxY0XPYVUC-uozozE-137" style="edgeStyle=orthogonalEdgeStyle;curved=1;orthogonalLoop=1;jettySize=auto;html=1;exitX=0.5;exitY=0;exitDx=0;exitDy=0;entryX=0.5;entryY=0;entryDx=0;entryDy=0;fillColor=#dae8fc;strokeColor=#6c8ebf;" parent="1" source="mhpVxY0XPYVUC-uozozE-138" target="mhpVxY0XPYVUC-uozozE-135" edge="1">
          <mxGeometry relative="1" as="geometry" />
        </mxCell>
        <mxCell id="mhpVxY0XPYVUC-uozozE-163" style="edgeStyle=orthogonalEdgeStyle;curved=1;orthogonalLoop=1;jettySize=auto;html=1;exitX=0;exitY=1;exitDx=0;exitDy=0;entryX=0;entryY=0;entryDx=0;entryDy=0;fillColor=#fa6800;strokeColor=#C73500;" parent="1" source="mhpVxY0XPYVUC-uozozE-138" target="mhpVxY0XPYVUC-uozozE-139" edge="1">
          <mxGeometry relative="1" as="geometry" />
        </mxCell>
        <UserObject label="v3" lucidchartObjectId="0TUIEPNrfkuP" id="mhpVxY0XPYVUC-uozozE-138">
          <mxCell style="html=1;whiteSpace=wrap;ellipse;whiteSpace=wrap;fontSize=13;fontColor=#333333;spacing=3;strokeColor=#5e5e5e;strokeOpacity=100;rounded=1;absoluteArcSize=1;arcSize=7.199999999999999;strokeWidth=2;" parent="1" vertex="1" zOrder="49">
            <mxGeometry x="700" y="698" width="48" height="48" as="geometry" />
          </mxCell>
        </UserObject>
        <mxCell id="mhpVxY0XPYVUC-uozozE-166" style="edgeStyle=orthogonalEdgeStyle;curved=1;orthogonalLoop=1;jettySize=auto;html=1;exitX=0.5;exitY=1;exitDx=0;exitDy=0;entryX=0.5;entryY=1;entryDx=0;entryDy=0;fillColor=#fa6800;strokeColor=#C73500;" parent="1" source="mhpVxY0XPYVUC-uozozE-139" target="mhpVxY0XPYVUC-uozozE-136" edge="1">
          <mxGeometry relative="1" as="geometry" />
        </mxCell>
        <mxCell id="mhpVxY0XPYVUC-uozozE-167" value="7" style="edgeLabel;html=1;align=center;verticalAlign=middle;resizable=0;points=[];" parent="mhpVxY0XPYVUC-uozozE-166" vertex="1" connectable="0">
          <mxGeometry x="-0.0533" y="-2" relative="1" as="geometry">
            <mxPoint as="offset" />
          </mxGeometry>
        </mxCell>
        <UserObject label="v4" lucidchartObjectId="0TUIhYQ5SV~0" id="mhpVxY0XPYVUC-uozozE-139">
          <mxCell style="html=1;whiteSpace=wrap;ellipse;whiteSpace=wrap;fontSize=13;fontColor=#333333;spacing=3;strokeColor=#5e5e5e;strokeOpacity=100;rounded=1;absoluteArcSize=1;arcSize=7.199999999999999;strokeWidth=2;" parent="1" vertex="1" zOrder="50">
            <mxGeometry x="700" y="890" width="48" height="48" as="geometry" />
          </mxCell>
        </UserObject>
        <mxCell id="mhpVxY0XPYVUC-uozozE-140" style="edgeStyle=orthogonalEdgeStyle;curved=1;orthogonalLoop=1;jettySize=auto;html=1;exitX=0.5;exitY=0;exitDx=0;exitDy=0;entryX=1;entryY=0.5;entryDx=0;entryDy=0;fillColor=#fa6800;strokeColor=#C73500;" parent="1" source="mhpVxY0XPYVUC-uozozE-141" target="mhpVxY0XPYVUC-uozozE-138" edge="1">
          <mxGeometry relative="1" as="geometry" />
        </mxCell>
        <UserObject label="t" lucidchartObjectId="0TUIbhMmOhcr" id="mhpVxY0XPYVUC-uozozE-141">
          <mxCell style="html=1;whiteSpace=wrap;ellipse;whiteSpace=wrap;fontSize=13;fontColor=#333333;spacing=3;strokeColor=#5e5e5e;strokeOpacity=100;rounded=1;absoluteArcSize=1;arcSize=7.199999999999999;strokeWidth=2;" parent="1" vertex="1" zOrder="51">
            <mxGeometry x="796" y="794" width="48" height="48" as="geometry" />
          </mxCell>
        </UserObject>
        <UserObject label="" lucidchartObjectId="0TUIcLSe.Dsl" id="mhpVxY0XPYVUC-uozozE-142">
          <mxCell style="html=1;jettySize=18;whiteSpace=wrap;fontSize=11;strokeColor=#99d2f2;strokeOpacity=100;rounded=0;startArrow=none;;endArrow=block;endFill=1;;exitX=0.8233273001386603;exitY=0.09551767611224485;exitPerimeter=0;entryX=0.1105524451775262;entryY=0.841764722311688;entryPerimeter=0;" parent="1" source="mhpVxY0XPYVUC-uozozE-134" target="mhpVxY0XPYVUC-uozozE-135" edge="1">
            <mxGeometry width="100" height="100" relative="1" as="geometry">
              <Array as="points" />
            </mxGeometry>
          </mxCell>
        </UserObject>
        <mxCell id="mhpVxY0XPYVUC-uozozE-143" value="0/4" style="text;html=1;resizable=0;labelBackgroundColor=#ffffff;align=center;verticalAlign=middle;fontStyle=1;fontColor=#333333;;fontSize=10.666666666666666;" parent="mhpVxY0XPYVUC-uozozE-142" vertex="1">
          <mxGeometry x="-0.13717128299779502" relative="1" as="geometry" />
        </mxCell>
        <UserObject label="" lucidchartObjectId="0TUI8pHJsigk" id="mhpVxY0XPYVUC-uozozE-144">
          <mxCell style="html=1;jettySize=18;whiteSpace=wrap;fontSize=11;strokeColor=#d79b00;rounded=0;startArrow=none;;endArrow=block;endFill=1;;exitX=0.8505496542527411;exitY=0.881126466964389;exitPerimeter=0;entryX=0.1183242864720837;entryY=0.14890109918373157;entryPerimeter=0;fillColor=#ffe6cc;" parent="1" source="mhpVxY0XPYVUC-uozozE-134" target="mhpVxY0XPYVUC-uozozE-136" edge="1">
            <mxGeometry width="100" height="100" relative="1" as="geometry">
              <Array as="points" />
            </mxGeometry>
          </mxCell>
        </UserObject>
        <mxCell id="mhpVxY0XPYVUC-uozozE-145" value="6" style="text;html=1;resizable=0;labelBackgroundColor=#ffffff;align=center;verticalAlign=middle;fontStyle=1;fontColor=#333333;;fontSize=10.666666666666666;" parent="mhpVxY0XPYVUC-uozozE-144" vertex="1">
          <mxGeometry x="-0.13204608129133955" relative="1" as="geometry" />
        </mxCell>
        <UserObject label="" lucidchartObjectId="0TUIyPDbd9Ul" id="mhpVxY0XPYVUC-uozozE-146">
          <mxCell style="html=1;jettySize=18;whiteSpace=wrap;fontSize=11;strokeColor=#5E5E5E;rounded=1;arcSize=12;edgeStyle=orthogonalEdgeStyle;startArrow=none;;endArrow=block;endFill=1;;exitX=0.5;exitY=-0.018761694744157165;exitPerimeter=0;entryX=0.5000000000000007;entryY=1.0187616947441573;entryPerimeter=0;" parent="1" source="mhpVxY0XPYVUC-uozozE-136" target="mhpVxY0XPYVUC-uozozE-135" edge="1">
            <mxGeometry width="100" height="100" relative="1" as="geometry">
              <Array as="points" />
            </mxGeometry>
          </mxCell>
        </UserObject>
        <mxCell id="mhpVxY0XPYVUC-uozozE-147" value="0/4" style="text;html=1;resizable=0;labelBackgroundColor=#ffffff;align=center;verticalAlign=middle;fontStyle=1;fontColor=#333333;;fontSize=10.666666666666666;" parent="mhpVxY0XPYVUC-uozozE-146" vertex="1">
          <mxGeometry relative="1" as="geometry" />
        </mxCell>
        <UserObject label="" lucidchartObjectId="0TUI1EfdL89q" id="mhpVxY0XPYVUC-uozozE-148">
          <mxCell style="html=1;jettySize=18;whiteSpace=wrap;fontSize=11;strokeColor=#99d2f2;strokeOpacity=100;rounded=1;arcSize=12;edgeStyle=orthogonalEdgeStyle;startArrow=none;;endArrow=block;endFill=1;;exitX=1.0187616947441587;exitY=0.5;exitPerimeter=0;entryX=-0.018761694744158584;entryY=0.5;entryPerimeter=0;" parent="1" source="mhpVxY0XPYVUC-uozozE-135" target="mhpVxY0XPYVUC-uozozE-138" edge="1">
            <mxGeometry width="100" height="100" relative="1" as="geometry">
              <Array as="points" />
            </mxGeometry>
          </mxCell>
        </UserObject>
        <mxCell id="mhpVxY0XPYVUC-uozozE-149" value="0/0" style="text;html=1;resizable=0;labelBackgroundColor=#ffffff;align=center;verticalAlign=middle;fontStyle=1;fontColor=#333333;;fontSize=10.666666666666666;" parent="mhpVxY0XPYVUC-uozozE-148" vertex="1">
          <mxGeometry x="-0.1012666223036216" relative="1" as="geometry" />
        </mxCell>
        <UserObject label="" lucidchartObjectId="0TUIlrKOtf2." id="mhpVxY0XPYVUC-uozozE-150">
          <mxCell style="html=1;jettySize=18;whiteSpace=wrap;fontSize=11;strokeColor=#5E5E5E;rounded=0;startArrow=block;endFill=1;;endArrow=none;;exitX=0.9401428532893341;exitY=0.22597078667528825;exitPerimeter=0;entryX=0.1263159146287532;entryY=0.8584068980278552;entryPerimeter=0;" parent="1" source="mhpVxY0XPYVUC-uozozE-136" target="mhpVxY0XPYVUC-uozozE-138" edge="1">
            <mxGeometry width="100" height="100" relative="1" as="geometry">
              <Array as="points" />
            </mxGeometry>
          </mxCell>
        </UserObject>
        <mxCell id="mhpVxY0XPYVUC-uozozE-151" value="0/9" style="text;html=1;resizable=0;labelBackgroundColor=#ffffff;align=center;verticalAlign=middle;fontStyle=1;fontColor=#333333;;fontSize=10.666666666666666;" parent="mhpVxY0XPYVUC-uozozE-150" vertex="1">
          <mxGeometry x="0.1173580955875253" relative="1" as="geometry" />
        </mxCell>
        <UserObject label="" lucidchartObjectId="0TUItWgnyY6h" id="mhpVxY0XPYVUC-uozozE-152">
          <mxCell style="html=1;jettySize=18;whiteSpace=wrap;fontSize=11;strokeColor=#d79b00;rounded=1;arcSize=12;edgeStyle=orthogonalEdgeStyle;startArrow=none;;endArrow=block;endFill=1;;exitX=1.0187616947441587;exitY=0.5;exitPerimeter=0;entryX=-0.018761694744158584;entryY=0.5;entryPerimeter=0;fillColor=#ffe6cc;" parent="1" source="mhpVxY0XPYVUC-uozozE-136" target="mhpVxY0XPYVUC-uozozE-139" edge="1">
            <mxGeometry width="100" height="100" relative="1" as="geometry">
              <Array as="points" />
            </mxGeometry>
          </mxCell>
        </UserObject>
        <mxCell id="mhpVxY0XPYVUC-uozozE-153" value="7" style="text;html=1;resizable=0;labelBackgroundColor=#ffffff;align=center;verticalAlign=middle;fontStyle=1;fontColor=#333333;;fontSize=10.666666666666666;" parent="mhpVxY0XPYVUC-uozozE-152" vertex="1">
          <mxGeometry relative="1" as="geometry" />
        </mxCell>
        <UserObject label="" lucidchartObjectId="0TUInPz0SSq~" id="mhpVxY0XPYVUC-uozozE-154">
          <mxCell style="html=1;jettySize=18;whiteSpace=wrap;fontSize=11;strokeColor=#d79b00;rounded=1;arcSize=12;edgeStyle=orthogonalEdgeStyle;startArrow=none;;endArrow=block;endFill=1;;exitX=0.5;exitY=-0.018761694744157165;exitPerimeter=0;entryX=0.5;entryY=1.0187616947441573;entryPerimeter=0;fillColor=#ffe6cc;" parent="1" source="mhpVxY0XPYVUC-uozozE-139" target="mhpVxY0XPYVUC-uozozE-138" edge="1">
            <mxGeometry width="100" height="100" relative="1" as="geometry">
              <Array as="points" />
            </mxGeometry>
          </mxCell>
        </UserObject>
        <mxCell id="mhpVxY0XPYVUC-uozozE-155" value="0" style="text;html=1;resizable=0;labelBackgroundColor=#ffffff;align=center;verticalAlign=middle;fontStyle=1;fontColor=#333333;;fontSize=10.666666666666666;" parent="mhpVxY0XPYVUC-uozozE-154" vertex="1">
          <mxGeometry relative="1" as="geometry" />
        </mxCell>
        <UserObject label="" lucidchartObjectId="0TUIGq3dbJ5p" id="mhpVxY0XPYVUC-uozozE-156">
          <mxCell style="html=1;jettySize=18;whiteSpace=wrap;fontSize=11;strokeColor=#5E5E5E;rounded=0;startArrow=none;;endArrow=block;endFill=1;;exitX=0.9543155829079778;exitY=0.25140737426147136;exitPerimeter=0;entryX=0.25071949648965997;entryY=0.9550034606797893;entryPerimeter=0;" parent="1" source="mhpVxY0XPYVUC-uozozE-139" target="mhpVxY0XPYVUC-uozozE-141" edge="1">
            <mxGeometry width="100" height="100" relative="1" as="geometry">
              <Array as="points" />
            </mxGeometry>
          </mxCell>
        </UserObject>
        <mxCell id="mhpVxY0XPYVUC-uozozE-157" value="0/4" style="text;html=1;resizable=0;labelBackgroundColor=#ffffff;align=center;verticalAlign=middle;fontStyle=1;fontColor=#333333;;fontSize=10.666666666666666;" parent="mhpVxY0XPYVUC-uozozE-156" vertex="1">
          <mxGeometry relative="1" as="geometry" />
        </mxCell>
        <UserObject label="" lucidchartObjectId="0TUIasHpLuB7" id="mhpVxY0XPYVUC-uozozE-158">
          <mxCell style="html=1;jettySize=18;whiteSpace=wrap;fontSize=11;strokeColor=#99d2f2;strokeOpacity=100;rounded=0;startArrow=none;;endArrow=block;endFill=1;;exitX=0.9829058849722141;exitY=0.6899484597333446;exitPerimeter=0;entryX=0.16009065402019038;entryY=0.10879503264764515;entryPerimeter=0;" parent="1" source="mhpVxY0XPYVUC-uozozE-138" target="mhpVxY0XPYVUC-uozozE-141" edge="1">
            <mxGeometry width="100" height="100" relative="1" as="geometry">
              <Array as="points" />
            </mxGeometry>
          </mxCell>
        </UserObject>
        <mxCell id="mhpVxY0XPYVUC-uozozE-159" value="1" style="text;html=1;resizable=0;labelBackgroundColor=#ffffff;align=center;verticalAlign=middle;fontStyle=1;fontColor=#333333;;fontSize=10.666666666666666;" parent="mhpVxY0XPYVUC-uozozE-158" vertex="1">
          <mxGeometry relative="1" as="geometry" />
        </mxCell>
        <mxCell id="mhpVxY0XPYVUC-uozozE-160" value="" style="endArrow=classic;html=1;exitX=-0.003;exitY=0.408;exitDx=0;exitDy=0;exitPerimeter=0;entryX=0;entryY=0;entryDx=0;entryDy=0;curved=1;fillColor=#dae8fc;strokeColor=#6c8ebf;" parent="1" source="mhpVxY0XPYVUC-uozozE-135" target="mhpVxY0XPYVUC-uozozE-134" edge="1">
          <mxGeometry width="50" height="50" relative="1" as="geometry">
            <mxPoint x="470" y="740" as="sourcePoint" />
            <mxPoint x="520" y="690" as="targetPoint" />
            <Array as="points">
              <mxPoint x="484" y="730" />
            </Array>
          </mxGeometry>
        </mxCell>
        <mxCell id="mhpVxY0XPYVUC-uozozE-161" value="12" style="text;html=1;align=center;verticalAlign=middle;resizable=0;points=[];autosize=1;" parent="1" vertex="1">
          <mxGeometry x="469" y="726" width="30" height="20" as="geometry" />
        </mxCell>
        <mxCell id="mhpVxY0XPYVUC-uozozE-162" value="19" style="text;html=1;align=center;verticalAlign=middle;resizable=0;points=[];autosize=1;" parent="1" vertex="1">
          <mxGeometry x="805" y="730" width="30" height="20" as="geometry" />
        </mxCell>
        <mxCell id="mhpVxY0XPYVUC-uozozE-164" value="7" style="text;html=1;align=center;verticalAlign=middle;resizable=0;points=[];autosize=1;" parent="1" vertex="1">
          <mxGeometry x="692" y="808" width="20" height="20" as="geometry" />
        </mxCell>
        <UserObject label="s" lucidchartObjectId="0TUIZI8wlxAD" id="mhpVxY0XPYVUC-uozozE-170">
          <mxCell style="html=1;whiteSpace=wrap;ellipse;whiteSpace=wrap;fontSize=13;fontColor=#333333;spacing=3;strokeColor=#5e5e5e;strokeOpacity=100;rounded=1;absoluteArcSize=1;arcSize=7.199999999999999;strokeWidth=2;" parent="1" vertex="1" zOrder="46">
            <mxGeometry x="880" y="156" width="48" height="48" as="geometry" />
          </mxCell>
        </UserObject>
        <UserObject label="v1" lucidchartObjectId="0TUI7hP7bb1-" id="mhpVxY0XPYVUC-uozozE-171">
          <mxCell style="html=1;whiteSpace=wrap;ellipse;whiteSpace=wrap;fontSize=13;fontColor=#333333;spacing=3;strokeColor=#5e5e5e;strokeOpacity=100;rounded=1;absoluteArcSize=1;arcSize=7.199999999999999;strokeWidth=2;" parent="1" vertex="1" zOrder="47">
            <mxGeometry x="976" y="60" width="48" height="48" as="geometry" />
          </mxCell>
        </UserObject>
        <mxCell id="mhpVxY0XPYVUC-uozozE-172" style="edgeStyle=orthogonalEdgeStyle;curved=1;orthogonalLoop=1;jettySize=auto;html=1;exitX=0;exitY=0.5;exitDx=0;exitDy=0;entryX=0.5;entryY=1;entryDx=0;entryDy=0;fillColor=#fa6800;strokeColor=#C73500;" parent="1" source="mhpVxY0XPYVUC-uozozE-174" target="mhpVxY0XPYVUC-uozozE-170" edge="1">
          <mxGeometry relative="1" as="geometry" />
        </mxCell>
        <mxCell id="mhpVxY0XPYVUC-uozozE-173" value="7" style="edgeLabel;html=1;align=center;verticalAlign=middle;resizable=0;points=[];" parent="mhpVxY0XPYVUC-uozozE-172" vertex="1" connectable="0">
          <mxGeometry x="-0.1329" y="-24" relative="1" as="geometry">
            <mxPoint as="offset" />
          </mxGeometry>
        </mxCell>
        <UserObject label="v2" lucidchartObjectId="0TUIu22H0gwX" id="mhpVxY0XPYVUC-uozozE-174">
          <mxCell style="html=1;whiteSpace=wrap;ellipse;whiteSpace=wrap;fontSize=13;fontColor=#333333;spacing=3;strokeColor=#5e5e5e;strokeOpacity=100;rounded=1;absoluteArcSize=1;arcSize=7.199999999999999;strokeWidth=2;" parent="1" vertex="1" zOrder="48">
            <mxGeometry x="976" y="252" width="48" height="48" as="geometry" />
          </mxCell>
        </UserObject>
        <mxCell id="mhpVxY0XPYVUC-uozozE-175" style="edgeStyle=orthogonalEdgeStyle;curved=1;orthogonalLoop=1;jettySize=auto;html=1;exitX=0.5;exitY=0;exitDx=0;exitDy=0;entryX=0.5;entryY=0;entryDx=0;entryDy=0;fillColor=#dae8fc;strokeColor=#6c8ebf;" parent="1" source="mhpVxY0XPYVUC-uozozE-177" target="mhpVxY0XPYVUC-uozozE-171" edge="1">
          <mxGeometry relative="1" as="geometry" />
        </mxCell>
        <mxCell id="mhpVxY0XPYVUC-uozozE-176" style="edgeStyle=orthogonalEdgeStyle;curved=1;orthogonalLoop=1;jettySize=auto;html=1;exitX=0;exitY=1;exitDx=0;exitDy=0;entryX=0;entryY=0;entryDx=0;entryDy=0;fillColor=#fa6800;strokeColor=#C73500;" parent="1" source="mhpVxY0XPYVUC-uozozE-177" target="mhpVxY0XPYVUC-uozozE-180" edge="1">
          <mxGeometry relative="1" as="geometry" />
        </mxCell>
        <UserObject label="v3" lucidchartObjectId="0TUIEPNrfkuP" id="mhpVxY0XPYVUC-uozozE-177">
          <mxCell style="html=1;whiteSpace=wrap;ellipse;whiteSpace=wrap;fontSize=13;fontColor=#333333;spacing=3;strokeColor=#5e5e5e;strokeOpacity=100;rounded=1;absoluteArcSize=1;arcSize=7.199999999999999;strokeWidth=2;" parent="1" vertex="1" zOrder="49">
            <mxGeometry x="1120" y="60" width="48" height="48" as="geometry" />
          </mxCell>
        </UserObject>
        <mxCell id="mhpVxY0XPYVUC-uozozE-178" style="edgeStyle=orthogonalEdgeStyle;curved=1;orthogonalLoop=1;jettySize=auto;html=1;exitX=0.5;exitY=1;exitDx=0;exitDy=0;entryX=0.5;entryY=1;entryDx=0;entryDy=0;fillColor=#fa6800;strokeColor=#C73500;" parent="1" source="mhpVxY0XPYVUC-uozozE-180" target="mhpVxY0XPYVUC-uozozE-174" edge="1">
          <mxGeometry relative="1" as="geometry" />
        </mxCell>
        <mxCell id="mhpVxY0XPYVUC-uozozE-179" value="7" style="edgeLabel;html=1;align=center;verticalAlign=middle;resizable=0;points=[];" parent="mhpVxY0XPYVUC-uozozE-178" vertex="1" connectable="0">
          <mxGeometry x="-0.0533" y="-2" relative="1" as="geometry">
            <mxPoint as="offset" />
          </mxGeometry>
        </mxCell>
        <UserObject label="v4" lucidchartObjectId="0TUIhYQ5SV~0" id="mhpVxY0XPYVUC-uozozE-180">
          <mxCell style="html=1;whiteSpace=wrap;ellipse;whiteSpace=wrap;fontSize=13;fontColor=#333333;spacing=3;strokeColor=#5e5e5e;strokeOpacity=100;rounded=1;absoluteArcSize=1;arcSize=7.199999999999999;strokeWidth=2;" parent="1" vertex="1" zOrder="50">
            <mxGeometry x="1120" y="252" width="48" height="48" as="geometry" />
          </mxCell>
        </UserObject>
        <mxCell id="mhpVxY0XPYVUC-uozozE-181" style="edgeStyle=orthogonalEdgeStyle;curved=1;orthogonalLoop=1;jettySize=auto;html=1;exitX=0.5;exitY=0;exitDx=0;exitDy=0;entryX=1;entryY=0.5;entryDx=0;entryDy=0;fillColor=#fa6800;strokeColor=#C73500;" parent="1" source="mhpVxY0XPYVUC-uozozE-182" target="mhpVxY0XPYVUC-uozozE-177" edge="1">
          <mxGeometry relative="1" as="geometry" />
        </mxCell>
        <UserObject label="t" lucidchartObjectId="0TUIbhMmOhcr" id="mhpVxY0XPYVUC-uozozE-182">
          <mxCell style="html=1;whiteSpace=wrap;ellipse;whiteSpace=wrap;fontSize=13;fontColor=#333333;spacing=3;strokeColor=#5e5e5e;strokeOpacity=100;rounded=1;absoluteArcSize=1;arcSize=7.199999999999999;strokeWidth=2;" parent="1" vertex="1" zOrder="51">
            <mxGeometry x="1216" y="156" width="48" height="48" as="geometry" />
          </mxCell>
        </UserObject>
        <UserObject label="" lucidchartObjectId="0TUIcLSe.Dsl" id="mhpVxY0XPYVUC-uozozE-183">
          <mxCell style="html=1;jettySize=18;whiteSpace=wrap;fontSize=11;strokeColor=#99d2f2;strokeOpacity=100;rounded=0;startArrow=none;;endArrow=block;endFill=1;;exitX=0.8233273001386603;exitY=0.09551767611224485;exitPerimeter=0;entryX=0.1105524451775262;entryY=0.841764722311688;entryPerimeter=0;" parent="1" source="mhpVxY0XPYVUC-uozozE-170" target="mhpVxY0XPYVUC-uozozE-171" edge="1">
            <mxGeometry width="100" height="100" relative="1" as="geometry">
              <Array as="points" />
            </mxGeometry>
          </mxCell>
        </UserObject>
        <mxCell id="mhpVxY0XPYVUC-uozozE-184" value="0/4" style="text;html=1;resizable=0;labelBackgroundColor=#ffffff;align=center;verticalAlign=middle;fontStyle=1;fontColor=#333333;;fontSize=10.666666666666666;" parent="mhpVxY0XPYVUC-uozozE-183" vertex="1">
          <mxGeometry x="-0.13717128299779502" relative="1" as="geometry" />
        </mxCell>
        <UserObject label="" lucidchartObjectId="0TUI8pHJsigk" id="mhpVxY0XPYVUC-uozozE-185">
          <mxCell style="html=1;jettySize=18;whiteSpace=wrap;fontSize=11;strokeColor=#82b366;rounded=0;startArrow=none;;endArrow=block;endFill=1;;exitX=0.8505496542527411;exitY=0.881126466964389;exitPerimeter=0;entryX=0.1183242864720837;entryY=0.14890109918373157;entryPerimeter=0;fillColor=#d5e8d4;" parent="1" source="mhpVxY0XPYVUC-uozozE-170" target="mhpVxY0XPYVUC-uozozE-174" edge="1">
            <mxGeometry width="100" height="100" relative="1" as="geometry">
              <Array as="points" />
            </mxGeometry>
          </mxCell>
        </UserObject>
        <mxCell id="mhpVxY0XPYVUC-uozozE-186" value="4/6" style="text;html=1;resizable=0;labelBackgroundColor=#ffffff;align=center;verticalAlign=middle;fontStyle=1;fontColor=#333333;;fontSize=10.666666666666666;" parent="mhpVxY0XPYVUC-uozozE-185" vertex="1">
          <mxGeometry x="-0.13204608129133955" relative="1" as="geometry" />
        </mxCell>
        <UserObject label="" lucidchartObjectId="0TUIyPDbd9Ul" id="mhpVxY0XPYVUC-uozozE-187">
          <mxCell style="html=1;jettySize=18;whiteSpace=wrap;fontSize=11;strokeColor=#5E5E5E;rounded=1;arcSize=12;edgeStyle=orthogonalEdgeStyle;startArrow=none;;endArrow=block;endFill=1;;exitX=0.5;exitY=-0.018761694744157165;exitPerimeter=0;entryX=0.5000000000000007;entryY=1.0187616947441573;entryPerimeter=0;" parent="1" source="mhpVxY0XPYVUC-uozozE-174" target="mhpVxY0XPYVUC-uozozE-171" edge="1">
            <mxGeometry width="100" height="100" relative="1" as="geometry">
              <Array as="points" />
            </mxGeometry>
          </mxCell>
        </UserObject>
        <mxCell id="mhpVxY0XPYVUC-uozozE-188" value="0/4" style="text;html=1;resizable=0;labelBackgroundColor=#ffffff;align=center;verticalAlign=middle;fontStyle=1;fontColor=#333333;;fontSize=10.666666666666666;" parent="mhpVxY0XPYVUC-uozozE-187" vertex="1">
          <mxGeometry relative="1" as="geometry" />
        </mxCell>
        <UserObject label="" lucidchartObjectId="0TUI1EfdL89q" id="mhpVxY0XPYVUC-uozozE-189">
          <mxCell style="html=1;jettySize=18;whiteSpace=wrap;fontSize=11;strokeColor=#99d2f2;strokeOpacity=100;rounded=1;arcSize=12;edgeStyle=orthogonalEdgeStyle;startArrow=none;;endArrow=block;endFill=1;;exitX=1.0187616947441587;exitY=0.5;exitPerimeter=0;entryX=-0.018761694744158584;entryY=0.5;entryPerimeter=0;" parent="1" source="mhpVxY0XPYVUC-uozozE-171" target="mhpVxY0XPYVUC-uozozE-177" edge="1">
            <mxGeometry width="100" height="100" relative="1" as="geometry">
              <Array as="points" />
            </mxGeometry>
          </mxCell>
        </UserObject>
        <mxCell id="mhpVxY0XPYVUC-uozozE-190" value="0/0" style="text;html=1;resizable=0;labelBackgroundColor=#ffffff;align=center;verticalAlign=middle;fontStyle=1;fontColor=#333333;;fontSize=10.666666666666666;" parent="mhpVxY0XPYVUC-uozozE-189" vertex="1">
          <mxGeometry x="-0.1012666223036216" relative="1" as="geometry" />
        </mxCell>
        <UserObject label="" lucidchartObjectId="0TUIlrKOtf2." id="mhpVxY0XPYVUC-uozozE-191">
          <mxCell style="html=1;jettySize=18;whiteSpace=wrap;fontSize=11;strokeColor=#5E5E5E;rounded=0;startArrow=block;endFill=1;;endArrow=none;;exitX=0.9401428532893341;exitY=0.22597078667528825;exitPerimeter=0;entryX=0.1263159146287532;entryY=0.8584068980278552;entryPerimeter=0;" parent="1" source="mhpVxY0XPYVUC-uozozE-174" target="mhpVxY0XPYVUC-uozozE-177" edge="1">
            <mxGeometry width="100" height="100" relative="1" as="geometry">
              <Array as="points" />
            </mxGeometry>
          </mxCell>
        </UserObject>
        <mxCell id="mhpVxY0XPYVUC-uozozE-192" value="0/9" style="text;html=1;resizable=0;labelBackgroundColor=#ffffff;align=center;verticalAlign=middle;fontStyle=1;fontColor=#333333;;fontSize=10.666666666666666;" parent="mhpVxY0XPYVUC-uozozE-191" vertex="1">
          <mxGeometry x="0.1173580955875253" relative="1" as="geometry" />
        </mxCell>
        <UserObject label="" lucidchartObjectId="0TUItWgnyY6h" id="mhpVxY0XPYVUC-uozozE-193">
          <mxCell style="html=1;jettySize=18;whiteSpace=wrap;fontSize=11;strokeColor=#82b366;rounded=1;arcSize=12;edgeStyle=orthogonalEdgeStyle;startArrow=none;;endArrow=block;endFill=1;;exitX=1.0187616947441587;exitY=0.5;exitPerimeter=0;entryX=-0.018761694744158584;entryY=0.5;entryPerimeter=0;fillColor=#d5e8d4;" parent="1" source="mhpVxY0XPYVUC-uozozE-174" target="mhpVxY0XPYVUC-uozozE-180" edge="1">
            <mxGeometry width="100" height="100" relative="1" as="geometry">
              <Array as="points" />
            </mxGeometry>
          </mxCell>
        </UserObject>
        <mxCell id="mhpVxY0XPYVUC-uozozE-194" value="4/7" style="text;html=1;resizable=0;labelBackgroundColor=#ffffff;align=center;verticalAlign=middle;fontStyle=1;fontColor=#333333;;fontSize=10.666666666666666;" parent="mhpVxY0XPYVUC-uozozE-193" vertex="1">
          <mxGeometry relative="1" as="geometry" />
        </mxCell>
        <UserObject label="" lucidchartObjectId="0TUInPz0SSq~" id="mhpVxY0XPYVUC-uozozE-195">
          <mxCell style="html=1;jettySize=18;whiteSpace=wrap;fontSize=11;strokeColor=#d79b00;rounded=1;arcSize=12;edgeStyle=orthogonalEdgeStyle;startArrow=none;;endArrow=block;endFill=1;;exitX=0.5;exitY=-0.018761694744157165;exitPerimeter=0;entryX=0.5;entryY=1.0187616947441573;entryPerimeter=0;fillColor=#ffe6cc;" parent="1" source="mhpVxY0XPYVUC-uozozE-180" target="mhpVxY0XPYVUC-uozozE-177" edge="1">
            <mxGeometry width="100" height="100" relative="1" as="geometry">
              <Array as="points" />
            </mxGeometry>
          </mxCell>
        </UserObject>
        <mxCell id="mhpVxY0XPYVUC-uozozE-196" value="0" style="text;html=1;resizable=0;labelBackgroundColor=#ffffff;align=center;verticalAlign=middle;fontStyle=1;fontColor=#333333;;fontSize=10.666666666666666;" parent="mhpVxY0XPYVUC-uozozE-195" vertex="1">
          <mxGeometry relative="1" as="geometry" />
        </mxCell>
        <UserObject label="4" lucidchartObjectId="0TUIGq3dbJ5p" id="mhpVxY0XPYVUC-uozozE-197">
          <mxCell style="html=1;jettySize=18;whiteSpace=wrap;fontSize=11;strokeColor=#82b366;rounded=0;startArrow=none;;endArrow=block;endFill=1;;exitX=0.9543155829079778;exitY=0.25140737426147136;exitPerimeter=0;entryX=0.25071949648965997;entryY=0.9550034606797893;entryPerimeter=0;fillColor=#d5e8d4;" parent="1" source="mhpVxY0XPYVUC-uozozE-180" target="mhpVxY0XPYVUC-uozozE-182" edge="1">
            <mxGeometry width="100" height="100" relative="1" as="geometry">
              <Array as="points" />
            </mxGeometry>
          </mxCell>
        </UserObject>
        <mxCell id="mhpVxY0XPYVUC-uozozE-198" value="4/4" style="text;html=1;resizable=0;labelBackgroundColor=#ffffff;align=center;verticalAlign=middle;fontStyle=1;fontColor=#333333;;fontSize=10.666666666666666;" parent="mhpVxY0XPYVUC-uozozE-197" vertex="1">
          <mxGeometry relative="1" as="geometry" />
        </mxCell>
        <UserObject label="" lucidchartObjectId="0TUIasHpLuB7" id="mhpVxY0XPYVUC-uozozE-199">
          <mxCell style="html=1;jettySize=18;whiteSpace=wrap;fontSize=11;strokeColor=#99d2f2;strokeOpacity=100;rounded=0;startArrow=none;;endArrow=block;endFill=1;;exitX=0.9829058849722141;exitY=0.6899484597333446;exitPerimeter=0;entryX=0.16009065402019038;entryY=0.10879503264764515;entryPerimeter=0;" parent="1" source="mhpVxY0XPYVUC-uozozE-177" target="mhpVxY0XPYVUC-uozozE-182" edge="1">
            <mxGeometry width="100" height="100" relative="1" as="geometry">
              <Array as="points" />
            </mxGeometry>
          </mxCell>
        </UserObject>
        <mxCell id="mhpVxY0XPYVUC-uozozE-200" value="1" style="text;html=1;resizable=0;labelBackgroundColor=#ffffff;align=center;verticalAlign=middle;fontStyle=1;fontColor=#333333;;fontSize=10.666666666666666;" parent="mhpVxY0XPYVUC-uozozE-199" vertex="1">
          <mxGeometry relative="1" as="geometry" />
        </mxCell>
        <mxCell id="mhpVxY0XPYVUC-uozozE-201" value="" style="endArrow=classic;html=1;exitX=-0.003;exitY=0.408;exitDx=0;exitDy=0;exitPerimeter=0;entryX=0;entryY=0;entryDx=0;entryDy=0;curved=1;fillColor=#dae8fc;strokeColor=#6c8ebf;" parent="1" source="mhpVxY0XPYVUC-uozozE-171" target="mhpVxY0XPYVUC-uozozE-170" edge="1">
          <mxGeometry width="50" height="50" relative="1" as="geometry">
            <mxPoint x="890" y="102" as="sourcePoint" />
            <mxPoint x="940" y="52" as="targetPoint" />
            <Array as="points">
              <mxPoint x="904" y="92" />
            </Array>
          </mxGeometry>
        </mxCell>
        <mxCell id="mhpVxY0XPYVUC-uozozE-202" value="12" style="text;html=1;align=center;verticalAlign=middle;resizable=0;points=[];autosize=1;" parent="1" vertex="1">
          <mxGeometry x="889" y="88" width="30" height="20" as="geometry" />
        </mxCell>
        <mxCell id="mhpVxY0XPYVUC-uozozE-203" value="19" style="text;html=1;align=center;verticalAlign=middle;resizable=0;points=[];autosize=1;" parent="1" vertex="1">
          <mxGeometry x="1225" y="92" width="30" height="20" as="geometry" />
        </mxCell>
        <mxCell id="mhpVxY0XPYVUC-uozozE-204" value="7" style="text;html=1;align=center;verticalAlign=middle;resizable=0;points=[];autosize=1;" parent="1" vertex="1">
          <mxGeometry x="1112" y="170" width="20" height="20" as="geometry" />
        </mxCell>
        <UserObject label="s" lucidchartObjectId="0TUIZI8wlxAD" id="mhpVxY0XPYVUC-uozozE-205">
          <mxCell style="html=1;whiteSpace=wrap;ellipse;whiteSpace=wrap;fontSize=13;fontColor=#333333;spacing=3;strokeColor=#5e5e5e;strokeOpacity=100;rounded=1;absoluteArcSize=1;arcSize=7.199999999999999;strokeWidth=2;" parent="1" vertex="1" zOrder="46">
            <mxGeometry x="1300" y="146" width="48" height="48" as="geometry" />
          </mxCell>
        </UserObject>
        <UserObject label="v1" lucidchartObjectId="0TUI7hP7bb1-" id="mhpVxY0XPYVUC-uozozE-206">
          <mxCell style="html=1;whiteSpace=wrap;ellipse;whiteSpace=wrap;fontSize=13;fontColor=#333333;spacing=3;strokeColor=#5e5e5e;strokeOpacity=100;rounded=1;absoluteArcSize=1;arcSize=7.199999999999999;strokeWidth=2;" parent="1" vertex="1" zOrder="47">
            <mxGeometry x="1396" y="50" width="48" height="48" as="geometry" />
          </mxCell>
        </UserObject>
        <mxCell id="mhpVxY0XPYVUC-uozozE-207" style="edgeStyle=orthogonalEdgeStyle;curved=1;orthogonalLoop=1;jettySize=auto;html=1;exitX=0;exitY=0.5;exitDx=0;exitDy=0;entryX=0.5;entryY=1;entryDx=0;entryDy=0;fillColor=#008a00;strokeColor=#005700;" parent="1" source="mhpVxY0XPYVUC-uozozE-209" target="mhpVxY0XPYVUC-uozozE-205" edge="1">
          <mxGeometry relative="1" as="geometry" />
        </mxCell>
        <mxCell id="mhpVxY0XPYVUC-uozozE-208" value="11" style="edgeLabel;html=1;align=center;verticalAlign=middle;resizable=0;points=[];" parent="mhpVxY0XPYVUC-uozozE-207" vertex="1" connectable="0">
          <mxGeometry x="-0.1329" y="-24" relative="1" as="geometry">
            <mxPoint as="offset" />
          </mxGeometry>
        </mxCell>
        <UserObject label="v2" lucidchartObjectId="0TUIu22H0gwX" id="mhpVxY0XPYVUC-uozozE-209">
          <mxCell style="html=1;whiteSpace=wrap;ellipse;whiteSpace=wrap;fontSize=13;fontColor=#333333;spacing=3;strokeColor=#5e5e5e;strokeOpacity=100;rounded=1;absoluteArcSize=1;arcSize=7.199999999999999;strokeWidth=2;" parent="1" vertex="1" zOrder="48">
            <mxGeometry x="1396" y="242" width="48" height="48" as="geometry" />
          </mxCell>
        </UserObject>
        <mxCell id="mhpVxY0XPYVUC-uozozE-210" style="edgeStyle=orthogonalEdgeStyle;curved=1;orthogonalLoop=1;jettySize=auto;html=1;exitX=0.5;exitY=0;exitDx=0;exitDy=0;entryX=0.5;entryY=0;entryDx=0;entryDy=0;fillColor=#dae8fc;strokeColor=#6c8ebf;" parent="1" source="mhpVxY0XPYVUC-uozozE-212" target="mhpVxY0XPYVUC-uozozE-206" edge="1">
          <mxGeometry relative="1" as="geometry" />
        </mxCell>
        <mxCell id="mhpVxY0XPYVUC-uozozE-211" style="edgeStyle=orthogonalEdgeStyle;curved=1;orthogonalLoop=1;jettySize=auto;html=1;exitX=0;exitY=1;exitDx=0;exitDy=0;entryX=0;entryY=0;entryDx=0;entryDy=0;fillColor=#fa6800;strokeColor=#C73500;" parent="1" source="mhpVxY0XPYVUC-uozozE-212" target="mhpVxY0XPYVUC-uozozE-215" edge="1">
          <mxGeometry relative="1" as="geometry" />
        </mxCell>
        <UserObject label="v3" lucidchartObjectId="0TUIEPNrfkuP" id="mhpVxY0XPYVUC-uozozE-212">
          <mxCell style="html=1;whiteSpace=wrap;ellipse;whiteSpace=wrap;fontSize=13;fontColor=#333333;spacing=3;strokeColor=#5e5e5e;strokeOpacity=100;rounded=1;absoluteArcSize=1;arcSize=7.199999999999999;strokeWidth=2;" parent="1" vertex="1" zOrder="49">
            <mxGeometry x="1540" y="50" width="48" height="48" as="geometry" />
          </mxCell>
        </UserObject>
        <mxCell id="mhpVxY0XPYVUC-uozozE-213" style="edgeStyle=orthogonalEdgeStyle;curved=1;orthogonalLoop=1;jettySize=auto;html=1;exitX=0.5;exitY=1;exitDx=0;exitDy=0;entryX=0.5;entryY=1;entryDx=0;entryDy=0;fillColor=#008a00;strokeColor=#005700;" parent="1" source="mhpVxY0XPYVUC-uozozE-215" target="mhpVxY0XPYVUC-uozozE-209" edge="1">
          <mxGeometry relative="1" as="geometry" />
        </mxCell>
        <mxCell id="mhpVxY0XPYVUC-uozozE-214" value="11" style="edgeLabel;html=1;align=center;verticalAlign=middle;resizable=0;points=[];" parent="mhpVxY0XPYVUC-uozozE-213" vertex="1" connectable="0">
          <mxGeometry x="-0.0533" y="-2" relative="1" as="geometry">
            <mxPoint as="offset" />
          </mxGeometry>
        </mxCell>
        <UserObject label="v4" lucidchartObjectId="0TUIhYQ5SV~0" id="mhpVxY0XPYVUC-uozozE-215">
          <mxCell style="html=1;whiteSpace=wrap;ellipse;whiteSpace=wrap;fontSize=13;fontColor=#333333;spacing=3;strokeColor=#5e5e5e;strokeOpacity=100;rounded=1;absoluteArcSize=1;arcSize=7.199999999999999;strokeWidth=2;" parent="1" vertex="1" zOrder="50">
            <mxGeometry x="1540" y="242" width="48" height="48" as="geometry" />
          </mxCell>
        </UserObject>
        <mxCell id="mhpVxY0XPYVUC-uozozE-216" style="edgeStyle=orthogonalEdgeStyle;curved=1;orthogonalLoop=1;jettySize=auto;html=1;exitX=0.5;exitY=0;exitDx=0;exitDy=0;entryX=1;entryY=0.5;entryDx=0;entryDy=0;fillColor=#fa6800;strokeColor=#C73500;" parent="1" source="mhpVxY0XPYVUC-uozozE-217" target="mhpVxY0XPYVUC-uozozE-212" edge="1">
          <mxGeometry relative="1" as="geometry" />
        </mxCell>
        <mxCell id="mhpVxY0XPYVUC-uozozE-240" style="edgeStyle=orthogonalEdgeStyle;curved=1;orthogonalLoop=1;jettySize=auto;html=1;exitX=0.5;exitY=1;exitDx=0;exitDy=0;entryX=1.013;entryY=0.588;entryDx=0;entryDy=0;entryPerimeter=0;fillColor=#008a00;strokeColor=#005700;" parent="1" source="mhpVxY0XPYVUC-uozozE-217" target="mhpVxY0XPYVUC-uozozE-215" edge="1">
          <mxGeometry relative="1" as="geometry" />
        </mxCell>
        <mxCell id="mhpVxY0XPYVUC-uozozE-241" value="4" style="edgeLabel;html=1;align=center;verticalAlign=middle;resizable=0;points=[];" parent="mhpVxY0XPYVUC-uozozE-240" vertex="1" connectable="0">
          <mxGeometry x="-0.2329" y="-14" relative="1" as="geometry">
            <mxPoint as="offset" />
          </mxGeometry>
        </mxCell>
        <UserObject label="t" lucidchartObjectId="0TUIbhMmOhcr" id="mhpVxY0XPYVUC-uozozE-217">
          <mxCell style="html=1;whiteSpace=wrap;ellipse;whiteSpace=wrap;fontSize=13;fontColor=#333333;spacing=3;strokeColor=#5e5e5e;strokeOpacity=100;rounded=1;absoluteArcSize=1;arcSize=7.199999999999999;strokeWidth=2;" parent="1" vertex="1" zOrder="51">
            <mxGeometry x="1636" y="146" width="48" height="48" as="geometry" />
          </mxCell>
        </UserObject>
        <UserObject label="" lucidchartObjectId="0TUIcLSe.Dsl" id="mhpVxY0XPYVUC-uozozE-218">
          <mxCell style="html=1;jettySize=18;whiteSpace=wrap;fontSize=11;strokeColor=#99d2f2;strokeOpacity=100;rounded=0;startArrow=none;;endArrow=block;endFill=1;;exitX=0.8233273001386603;exitY=0.09551767611224485;exitPerimeter=0;entryX=0.1105524451775262;entryY=0.841764722311688;entryPerimeter=0;" parent="1" source="mhpVxY0XPYVUC-uozozE-205" target="mhpVxY0XPYVUC-uozozE-206" edge="1">
            <mxGeometry width="100" height="100" relative="1" as="geometry">
              <Array as="points" />
            </mxGeometry>
          </mxCell>
        </UserObject>
        <mxCell id="mhpVxY0XPYVUC-uozozE-219" value="4" style="text;html=1;resizable=0;labelBackgroundColor=#ffffff;align=center;verticalAlign=middle;fontStyle=1;fontColor=#333333;;fontSize=10.666666666666666;" parent="mhpVxY0XPYVUC-uozozE-218" vertex="1">
          <mxGeometry x="-0.13717128299779502" relative="1" as="geometry" />
        </mxCell>
        <UserObject label="" lucidchartObjectId="0TUI8pHJsigk" id="mhpVxY0XPYVUC-uozozE-220">
          <mxCell style="html=1;jettySize=18;whiteSpace=wrap;fontSize=11;strokeColor=#82b366;rounded=0;startArrow=none;;endArrow=block;endFill=1;;exitX=0.8505496542527411;exitY=0.881126466964389;exitPerimeter=0;entryX=0.1183242864720837;entryY=0.14890109918373157;entryPerimeter=0;fillColor=#d5e8d4;" parent="1" source="mhpVxY0XPYVUC-uozozE-205" target="mhpVxY0XPYVUC-uozozE-209" edge="1">
            <mxGeometry width="100" height="100" relative="1" as="geometry">
              <Array as="points" />
            </mxGeometry>
          </mxCell>
        </UserObject>
        <mxCell id="mhpVxY0XPYVUC-uozozE-221" value="2" style="text;html=1;resizable=0;labelBackgroundColor=#ffffff;align=center;verticalAlign=middle;fontStyle=1;fontColor=#333333;;fontSize=10.666666666666666;" parent="mhpVxY0XPYVUC-uozozE-220" vertex="1">
          <mxGeometry x="-0.13204608129133955" relative="1" as="geometry" />
        </mxCell>
        <UserObject label="" lucidchartObjectId="0TUIyPDbd9Ul" id="mhpVxY0XPYVUC-uozozE-222">
          <mxCell style="html=1;jettySize=18;whiteSpace=wrap;fontSize=11;strokeColor=#5E5E5E;rounded=1;arcSize=12;edgeStyle=orthogonalEdgeStyle;startArrow=none;;endArrow=block;endFill=1;;exitX=0.5;exitY=-0.018761694744157165;exitPerimeter=0;entryX=0.5000000000000007;entryY=1.0187616947441573;entryPerimeter=0;" parent="1" source="mhpVxY0XPYVUC-uozozE-209" target="mhpVxY0XPYVUC-uozozE-206" edge="1">
            <mxGeometry width="100" height="100" relative="1" as="geometry">
              <Array as="points" />
            </mxGeometry>
          </mxCell>
        </UserObject>
        <mxCell id="mhpVxY0XPYVUC-uozozE-223" value="4" style="text;html=1;resizable=0;labelBackgroundColor=#ffffff;align=center;verticalAlign=middle;fontStyle=1;fontColor=#333333;;fontSize=10.666666666666666;" parent="mhpVxY0XPYVUC-uozozE-222" vertex="1">
          <mxGeometry relative="1" as="geometry" />
        </mxCell>
        <UserObject label="" lucidchartObjectId="0TUI1EfdL89q" id="mhpVxY0XPYVUC-uozozE-224">
          <mxCell style="html=1;jettySize=18;whiteSpace=wrap;fontSize=11;strokeColor=#99d2f2;strokeOpacity=100;rounded=1;arcSize=12;edgeStyle=orthogonalEdgeStyle;startArrow=none;;endArrow=block;endFill=1;;exitX=1.0187616947441587;exitY=0.5;exitPerimeter=0;entryX=-0.018761694744158584;entryY=0.5;entryPerimeter=0;" parent="1" source="mhpVxY0XPYVUC-uozozE-206" target="mhpVxY0XPYVUC-uozozE-212" edge="1">
            <mxGeometry width="100" height="100" relative="1" as="geometry">
              <Array as="points" />
            </mxGeometry>
          </mxCell>
        </UserObject>
        <mxCell id="mhpVxY0XPYVUC-uozozE-225" value="0" style="text;html=1;resizable=0;labelBackgroundColor=#ffffff;align=center;verticalAlign=middle;fontStyle=1;fontColor=#333333;;fontSize=10.666666666666666;" parent="mhpVxY0XPYVUC-uozozE-224" vertex="1">
          <mxGeometry x="-0.1012666223036216" relative="1" as="geometry" />
        </mxCell>
        <UserObject label="" lucidchartObjectId="0TUIlrKOtf2." id="mhpVxY0XPYVUC-uozozE-226">
          <mxCell style="html=1;jettySize=18;whiteSpace=wrap;fontSize=11;strokeColor=#5E5E5E;rounded=0;startArrow=block;endFill=1;;endArrow=none;;exitX=0.9401428532893341;exitY=0.22597078667528825;exitPerimeter=0;entryX=0.1263159146287532;entryY=0.8584068980278552;entryPerimeter=0;" parent="1" source="mhpVxY0XPYVUC-uozozE-209" target="mhpVxY0XPYVUC-uozozE-212" edge="1">
            <mxGeometry width="100" height="100" relative="1" as="geometry">
              <Array as="points" />
            </mxGeometry>
          </mxCell>
        </UserObject>
        <mxCell id="mhpVxY0XPYVUC-uozozE-227" value="9" style="text;html=1;resizable=0;labelBackgroundColor=#ffffff;align=center;verticalAlign=middle;fontStyle=1;fontColor=#333333;;fontSize=10.666666666666666;" parent="mhpVxY0XPYVUC-uozozE-226" vertex="1">
          <mxGeometry x="0.1173580955875253" relative="1" as="geometry" />
        </mxCell>
        <UserObject label="" lucidchartObjectId="0TUItWgnyY6h" id="mhpVxY0XPYVUC-uozozE-228">
          <mxCell style="html=1;jettySize=18;whiteSpace=wrap;fontSize=11;strokeColor=#82b366;rounded=1;arcSize=12;edgeStyle=orthogonalEdgeStyle;startArrow=none;;endArrow=block;endFill=1;;exitX=1.0187616947441587;exitY=0.5;exitPerimeter=0;entryX=-0.018761694744158584;entryY=0.5;entryPerimeter=0;fillColor=#d5e8d4;" parent="1" source="mhpVxY0XPYVUC-uozozE-209" target="mhpVxY0XPYVUC-uozozE-215" edge="1">
            <mxGeometry width="100" height="100" relative="1" as="geometry">
              <Array as="points" />
            </mxGeometry>
          </mxCell>
        </UserObject>
        <mxCell id="mhpVxY0XPYVUC-uozozE-229" value="3" style="text;html=1;resizable=0;labelBackgroundColor=#ffffff;align=center;verticalAlign=middle;fontStyle=1;fontColor=#333333;;fontSize=10.666666666666666;" parent="mhpVxY0XPYVUC-uozozE-228" vertex="1">
          <mxGeometry relative="1" as="geometry" />
        </mxCell>
        <UserObject label="" lucidchartObjectId="0TUInPz0SSq~" id="mhpVxY0XPYVUC-uozozE-230">
          <mxCell style="html=1;jettySize=18;whiteSpace=wrap;fontSize=11;strokeColor=#d79b00;rounded=1;arcSize=12;edgeStyle=orthogonalEdgeStyle;startArrow=none;;endArrow=block;endFill=1;;exitX=0.5;exitY=-0.018761694744157165;exitPerimeter=0;entryX=0.5;entryY=1.0187616947441573;entryPerimeter=0;fillColor=#ffe6cc;" parent="1" source="mhpVxY0XPYVUC-uozozE-215" target="mhpVxY0XPYVUC-uozozE-212" edge="1">
            <mxGeometry width="100" height="100" relative="1" as="geometry">
              <Array as="points" />
            </mxGeometry>
          </mxCell>
        </UserObject>
        <mxCell id="mhpVxY0XPYVUC-uozozE-231" value="0" style="text;html=1;resizable=0;labelBackgroundColor=#ffffff;align=center;verticalAlign=middle;fontStyle=1;fontColor=#333333;;fontSize=10.666666666666666;" parent="mhpVxY0XPYVUC-uozozE-230" vertex="1">
          <mxGeometry relative="1" as="geometry" />
        </mxCell>
        <UserObject label="4" lucidchartObjectId="0TUIGq3dbJ5p" id="mhpVxY0XPYVUC-uozozE-232">
          <mxCell style="html=1;jettySize=18;whiteSpace=wrap;fontSize=11;strokeColor=#82b366;rounded=0;startArrow=none;;endArrow=block;endFill=1;;exitX=0.9543155829079778;exitY=0.25140737426147136;exitPerimeter=0;entryX=0.25071949648965997;entryY=0.9550034606797893;entryPerimeter=0;fillColor=#d5e8d4;" parent="1" source="mhpVxY0XPYVUC-uozozE-215" target="mhpVxY0XPYVUC-uozozE-217" edge="1">
            <mxGeometry width="100" height="100" relative="1" as="geometry">
              <Array as="points" />
            </mxGeometry>
          </mxCell>
        </UserObject>
        <mxCell id="mhpVxY0XPYVUC-uozozE-233" value="0" style="text;html=1;resizable=0;labelBackgroundColor=#ffffff;align=center;verticalAlign=middle;fontStyle=1;fontColor=#333333;;fontSize=10.666666666666666;" parent="mhpVxY0XPYVUC-uozozE-232" vertex="1">
          <mxGeometry relative="1" as="geometry" />
        </mxCell>
        <UserObject label="" lucidchartObjectId="0TUIasHpLuB7" id="mhpVxY0XPYVUC-uozozE-234">
          <mxCell style="html=1;jettySize=18;whiteSpace=wrap;fontSize=11;strokeColor=#99d2f2;strokeOpacity=100;rounded=0;startArrow=none;;endArrow=block;endFill=1;;exitX=0.9829058849722141;exitY=0.6899484597333446;exitPerimeter=0;entryX=0.16009065402019038;entryY=0.10879503264764515;entryPerimeter=0;" parent="1" source="mhpVxY0XPYVUC-uozozE-212" target="mhpVxY0XPYVUC-uozozE-217" edge="1">
            <mxGeometry width="100" height="100" relative="1" as="geometry">
              <Array as="points" />
            </mxGeometry>
          </mxCell>
        </UserObject>
        <mxCell id="mhpVxY0XPYVUC-uozozE-235" value="1" style="text;html=1;resizable=0;labelBackgroundColor=#ffffff;align=center;verticalAlign=middle;fontStyle=1;fontColor=#333333;;fontSize=10.666666666666666;" parent="mhpVxY0XPYVUC-uozozE-234" vertex="1">
          <mxGeometry relative="1" as="geometry" />
        </mxCell>
        <mxCell id="mhpVxY0XPYVUC-uozozE-236" value="" style="endArrow=classic;html=1;exitX=-0.003;exitY=0.408;exitDx=0;exitDy=0;exitPerimeter=0;entryX=0;entryY=0;entryDx=0;entryDy=0;curved=1;fillColor=#dae8fc;strokeColor=#6c8ebf;" parent="1" source="mhpVxY0XPYVUC-uozozE-206" target="mhpVxY0XPYVUC-uozozE-205" edge="1">
          <mxGeometry width="50" height="50" relative="1" as="geometry">
            <mxPoint x="1310" y="92" as="sourcePoint" />
            <mxPoint x="1360" y="42" as="targetPoint" />
            <Array as="points">
              <mxPoint x="1324" y="82" />
            </Array>
          </mxGeometry>
        </mxCell>
        <mxCell id="mhpVxY0XPYVUC-uozozE-237" value="12" style="text;html=1;align=center;verticalAlign=middle;resizable=0;points=[];autosize=1;" parent="1" vertex="1">
          <mxGeometry x="1309" y="78" width="30" height="20" as="geometry" />
        </mxCell>
        <mxCell id="mhpVxY0XPYVUC-uozozE-238" value="19" style="text;html=1;align=center;verticalAlign=middle;resizable=0;points=[];autosize=1;" parent="1" vertex="1">
          <mxGeometry x="1645" y="82" width="30" height="20" as="geometry" />
        </mxCell>
        <mxCell id="mhpVxY0XPYVUC-uozozE-239" value="7" style="text;html=1;align=center;verticalAlign=middle;resizable=0;points=[];autosize=1;" parent="1" vertex="1">
          <mxGeometry x="1532" y="160" width="20" height="20" as="geometry" />
        </mxCell>
        <mxCell id="mhpVxY0XPYVUC-uozozE-242" value="Max Flow: 23" style="text;html=1;align=center;verticalAlign=middle;resizable=0;points=[];autosize=1;" parent="1" vertex="1">
          <mxGeometry x="1460" y="338" width="90" height="20" as="geometry" />
        </mxCell>
        <mxCell id="mhpVxY0XPYVUC-uozozE-278" value="Max Flow Min Cut" style="text;html=1;align=center;verticalAlign=middle;resizable=0;points=[];autosize=1;" parent="1" vertex="1">
          <mxGeometry x="1219" y="468" width="110" height="20" as="geometry" />
        </mxCell>
        <UserObject label="s" lucidchartObjectId="0TUIZI8wlxAD" id="mhpVxY0XPYVUC-uozozE-280">
          <mxCell style="html=1;whiteSpace=wrap;ellipse;whiteSpace=wrap;fontSize=13;fontColor=#333333;spacing=3;strokeColor=#5e5e5e;strokeOpacity=100;rounded=1;absoluteArcSize=1;arcSize=7.199999999999999;strokeWidth=2;" parent="1" vertex="1" zOrder="46">
            <mxGeometry x="1180" y="640" width="48" height="48" as="geometry" />
          </mxCell>
        </UserObject>
        <UserObject label="v1" lucidchartObjectId="0TUI7hP7bb1-" id="mhpVxY0XPYVUC-uozozE-281">
          <mxCell style="html=1;whiteSpace=wrap;ellipse;whiteSpace=wrap;fontSize=13;fontColor=#333333;spacing=3;strokeColor=#5e5e5e;strokeOpacity=100;rounded=1;absoluteArcSize=1;arcSize=7.199999999999999;strokeWidth=2;" parent="1" vertex="1" zOrder="47">
            <mxGeometry x="1276" y="544" width="48" height="48" as="geometry" />
          </mxCell>
        </UserObject>
        <mxCell id="mhpVxY0XPYVUC-uozozE-282" style="edgeStyle=orthogonalEdgeStyle;curved=1;orthogonalLoop=1;jettySize=auto;html=1;exitX=0;exitY=0.5;exitDx=0;exitDy=0;entryX=0.5;entryY=1;entryDx=0;entryDy=0;fillColor=#008a00;strokeColor=#005700;" parent="1" source="mhpVxY0XPYVUC-uozozE-284" target="mhpVxY0XPYVUC-uozozE-280" edge="1">
          <mxGeometry relative="1" as="geometry" />
        </mxCell>
        <mxCell id="mhpVxY0XPYVUC-uozozE-283" value="11" style="edgeLabel;html=1;align=center;verticalAlign=middle;resizable=0;points=[];" parent="mhpVxY0XPYVUC-uozozE-282" vertex="1" connectable="0">
          <mxGeometry x="-0.1329" y="-24" relative="1" as="geometry">
            <mxPoint as="offset" />
          </mxGeometry>
        </mxCell>
        <UserObject label="v2" lucidchartObjectId="0TUIu22H0gwX" id="mhpVxY0XPYVUC-uozozE-284">
          <mxCell style="html=1;whiteSpace=wrap;ellipse;whiteSpace=wrap;fontSize=13;fontColor=#333333;spacing=3;strokeColor=#5e5e5e;strokeOpacity=100;rounded=1;absoluteArcSize=1;arcSize=7.199999999999999;strokeWidth=2;" parent="1" vertex="1" zOrder="48">
            <mxGeometry x="1276" y="736" width="48" height="48" as="geometry" />
          </mxCell>
        </UserObject>
        <mxCell id="mhpVxY0XPYVUC-uozozE-285" style="edgeStyle=orthogonalEdgeStyle;curved=1;orthogonalLoop=1;jettySize=auto;html=1;exitX=0.5;exitY=0;exitDx=0;exitDy=0;entryX=0.5;entryY=0;entryDx=0;entryDy=0;fillColor=#dae8fc;strokeColor=#6c8ebf;" parent="1" source="mhpVxY0XPYVUC-uozozE-287" target="mhpVxY0XPYVUC-uozozE-281" edge="1">
          <mxGeometry relative="1" as="geometry" />
        </mxCell>
        <mxCell id="mhpVxY0XPYVUC-uozozE-286" style="edgeStyle=orthogonalEdgeStyle;curved=1;orthogonalLoop=1;jettySize=auto;html=1;exitX=0;exitY=1;exitDx=0;exitDy=0;entryX=0;entryY=0;entryDx=0;entryDy=0;fillColor=#fa6800;strokeColor=#C73500;" parent="1" source="mhpVxY0XPYVUC-uozozE-287" target="mhpVxY0XPYVUC-uozozE-290" edge="1">
          <mxGeometry relative="1" as="geometry" />
        </mxCell>
        <UserObject label="v3" lucidchartObjectId="0TUIEPNrfkuP" id="mhpVxY0XPYVUC-uozozE-287">
          <mxCell style="html=1;whiteSpace=wrap;ellipse;whiteSpace=wrap;fontSize=13;fontColor=#333333;spacing=3;strokeColor=#5e5e5e;strokeOpacity=100;rounded=1;absoluteArcSize=1;arcSize=7.199999999999999;strokeWidth=2;" parent="1" vertex="1" zOrder="49">
            <mxGeometry x="1420" y="544" width="48" height="48" as="geometry" />
          </mxCell>
        </UserObject>
        <mxCell id="mhpVxY0XPYVUC-uozozE-288" style="edgeStyle=orthogonalEdgeStyle;curved=1;orthogonalLoop=1;jettySize=auto;html=1;exitX=0.5;exitY=1;exitDx=0;exitDy=0;entryX=0.5;entryY=1;entryDx=0;entryDy=0;fillColor=#008a00;strokeColor=#005700;" parent="1" source="mhpVxY0XPYVUC-uozozE-290" target="mhpVxY0XPYVUC-uozozE-284" edge="1">
          <mxGeometry relative="1" as="geometry" />
        </mxCell>
        <mxCell id="mhpVxY0XPYVUC-uozozE-289" value="11" style="edgeLabel;html=1;align=center;verticalAlign=middle;resizable=0;points=[];" parent="mhpVxY0XPYVUC-uozozE-288" vertex="1" connectable="0">
          <mxGeometry x="-0.0533" y="-2" relative="1" as="geometry">
            <mxPoint as="offset" />
          </mxGeometry>
        </mxCell>
        <UserObject label="v4" lucidchartObjectId="0TUIhYQ5SV~0" id="mhpVxY0XPYVUC-uozozE-290">
          <mxCell style="html=1;whiteSpace=wrap;ellipse;whiteSpace=wrap;fontSize=13;fontColor=#333333;spacing=3;strokeColor=#5e5e5e;strokeOpacity=100;rounded=1;absoluteArcSize=1;arcSize=7.199999999999999;strokeWidth=2;" parent="1" vertex="1" zOrder="50">
            <mxGeometry x="1420" y="736" width="48" height="48" as="geometry" />
          </mxCell>
        </UserObject>
        <mxCell id="mhpVxY0XPYVUC-uozozE-291" style="edgeStyle=orthogonalEdgeStyle;curved=1;orthogonalLoop=1;jettySize=auto;html=1;exitX=0.5;exitY=0;exitDx=0;exitDy=0;entryX=1;entryY=0.5;entryDx=0;entryDy=0;fillColor=#fa6800;strokeColor=#C73500;" parent="1" source="mhpVxY0XPYVUC-uozozE-294" target="mhpVxY0XPYVUC-uozozE-287" edge="1">
          <mxGeometry relative="1" as="geometry" />
        </mxCell>
        <mxCell id="mhpVxY0XPYVUC-uozozE-292" style="edgeStyle=orthogonalEdgeStyle;curved=1;orthogonalLoop=1;jettySize=auto;html=1;exitX=0.5;exitY=1;exitDx=0;exitDy=0;entryX=1.013;entryY=0.588;entryDx=0;entryDy=0;entryPerimeter=0;fillColor=#008a00;strokeColor=#005700;" parent="1" source="mhpVxY0XPYVUC-uozozE-294" target="mhpVxY0XPYVUC-uozozE-290" edge="1">
          <mxGeometry relative="1" as="geometry" />
        </mxCell>
        <mxCell id="mhpVxY0XPYVUC-uozozE-293" value="4" style="edgeLabel;html=1;align=center;verticalAlign=middle;resizable=0;points=[];" parent="mhpVxY0XPYVUC-uozozE-292" vertex="1" connectable="0">
          <mxGeometry x="-0.2329" y="-14" relative="1" as="geometry">
            <mxPoint as="offset" />
          </mxGeometry>
        </mxCell>
        <UserObject label="t" lucidchartObjectId="0TUIbhMmOhcr" id="mhpVxY0XPYVUC-uozozE-294">
          <mxCell style="html=1;whiteSpace=wrap;ellipse;whiteSpace=wrap;fontSize=13;fontColor=#333333;spacing=3;strokeColor=#5e5e5e;strokeOpacity=100;rounded=1;absoluteArcSize=1;arcSize=7.199999999999999;strokeWidth=2;" parent="1" vertex="1" zOrder="51">
            <mxGeometry x="1516" y="640" width="48" height="48" as="geometry" />
          </mxCell>
        </UserObject>
        <UserObject label="" lucidchartObjectId="0TUIcLSe.Dsl" id="mhpVxY0XPYVUC-uozozE-295">
          <mxCell style="html=1;jettySize=18;whiteSpace=wrap;fontSize=11;strokeColor=#99d2f2;strokeOpacity=100;rounded=0;startArrow=none;;endArrow=block;endFill=1;;exitX=0.8233273001386603;exitY=0.09551767611224485;exitPerimeter=0;entryX=0.1105524451775262;entryY=0.841764722311688;entryPerimeter=0;" parent="1" source="mhpVxY0XPYVUC-uozozE-280" target="mhpVxY0XPYVUC-uozozE-281" edge="1">
            <mxGeometry width="100" height="100" relative="1" as="geometry">
              <Array as="points" />
            </mxGeometry>
          </mxCell>
        </UserObject>
        <mxCell id="mhpVxY0XPYVUC-uozozE-296" value="4" style="text;html=1;resizable=0;labelBackgroundColor=#ffffff;align=center;verticalAlign=middle;fontStyle=1;fontColor=#333333;;fontSize=10.666666666666666;" parent="mhpVxY0XPYVUC-uozozE-295" vertex="1">
          <mxGeometry x="-0.13717128299779502" relative="1" as="geometry" />
        </mxCell>
        <UserObject label="" lucidchartObjectId="0TUI8pHJsigk" id="mhpVxY0XPYVUC-uozozE-297">
          <mxCell style="html=1;jettySize=18;whiteSpace=wrap;fontSize=11;strokeColor=#82b366;rounded=0;startArrow=none;;endArrow=block;endFill=1;;exitX=0.8505496542527411;exitY=0.881126466964389;exitPerimeter=0;entryX=0.1183242864720837;entryY=0.14890109918373157;entryPerimeter=0;fillColor=#d5e8d4;" parent="1" source="mhpVxY0XPYVUC-uozozE-280" target="mhpVxY0XPYVUC-uozozE-284" edge="1">
            <mxGeometry width="100" height="100" relative="1" as="geometry">
              <Array as="points" />
            </mxGeometry>
          </mxCell>
        </UserObject>
        <mxCell id="mhpVxY0XPYVUC-uozozE-298" value="2" style="text;html=1;resizable=0;labelBackgroundColor=#ffffff;align=center;verticalAlign=middle;fontStyle=1;fontColor=#333333;;fontSize=10.666666666666666;" parent="mhpVxY0XPYVUC-uozozE-297" vertex="1">
          <mxGeometry x="-0.13204608129133955" relative="1" as="geometry" />
        </mxCell>
        <UserObject label="" lucidchartObjectId="0TUIyPDbd9Ul" id="mhpVxY0XPYVUC-uozozE-299">
          <mxCell style="html=1;jettySize=18;whiteSpace=wrap;fontSize=11;strokeColor=#5E5E5E;rounded=1;arcSize=12;edgeStyle=orthogonalEdgeStyle;startArrow=none;;endArrow=block;endFill=1;;exitX=0.5;exitY=-0.018761694744157165;exitPerimeter=0;entryX=0.5000000000000007;entryY=1.0187616947441573;entryPerimeter=0;" parent="1" source="mhpVxY0XPYVUC-uozozE-284" target="mhpVxY0XPYVUC-uozozE-281" edge="1">
            <mxGeometry width="100" height="100" relative="1" as="geometry">
              <Array as="points" />
            </mxGeometry>
          </mxCell>
        </UserObject>
        <mxCell id="mhpVxY0XPYVUC-uozozE-300" value="4" style="text;html=1;resizable=0;labelBackgroundColor=#ffffff;align=center;verticalAlign=middle;fontStyle=1;fontColor=#333333;;fontSize=10.666666666666666;" parent="mhpVxY0XPYVUC-uozozE-299" vertex="1">
          <mxGeometry relative="1" as="geometry" />
        </mxCell>
        <UserObject label="" lucidchartObjectId="0TUI1EfdL89q" id="mhpVxY0XPYVUC-uozozE-301">
          <mxCell style="html=1;jettySize=18;whiteSpace=wrap;fontSize=11;strokeColor=#99d2f2;strokeOpacity=100;rounded=1;arcSize=12;edgeStyle=orthogonalEdgeStyle;startArrow=none;;endArrow=block;endFill=1;;exitX=1.0187616947441587;exitY=0.5;exitPerimeter=0;entryX=-0.018761694744158584;entryY=0.5;entryPerimeter=0;" parent="1" source="mhpVxY0XPYVUC-uozozE-281" target="mhpVxY0XPYVUC-uozozE-287" edge="1">
            <mxGeometry width="100" height="100" relative="1" as="geometry">
              <Array as="points" />
            </mxGeometry>
          </mxCell>
        </UserObject>
        <mxCell id="mhpVxY0XPYVUC-uozozE-302" value="0(12)" style="text;html=1;resizable=0;labelBackgroundColor=#ffffff;align=center;verticalAlign=middle;fontStyle=1;fontColor=#333333;;fontSize=10.666666666666666;" parent="mhpVxY0XPYVUC-uozozE-301" vertex="1">
          <mxGeometry x="-0.1012666223036216" relative="1" as="geometry" />
        </mxCell>
        <UserObject label="" lucidchartObjectId="0TUIlrKOtf2." id="mhpVxY0XPYVUC-uozozE-303">
          <mxCell style="html=1;jettySize=18;whiteSpace=wrap;fontSize=11;strokeColor=#5E5E5E;rounded=0;startArrow=block;endFill=1;;endArrow=none;;exitX=0.9401428532893341;exitY=0.22597078667528825;exitPerimeter=0;entryX=0.1263159146287532;entryY=0.8584068980278552;entryPerimeter=0;" parent="1" source="mhpVxY0XPYVUC-uozozE-284" target="mhpVxY0XPYVUC-uozozE-287" edge="1">
            <mxGeometry width="100" height="100" relative="1" as="geometry">
              <Array as="points" />
            </mxGeometry>
          </mxCell>
        </UserObject>
        <mxCell id="mhpVxY0XPYVUC-uozozE-304" value="9" style="text;html=1;resizable=0;labelBackgroundColor=#ffffff;align=center;verticalAlign=middle;fontStyle=1;fontColor=#333333;;fontSize=10.666666666666666;" parent="mhpVxY0XPYVUC-uozozE-303" vertex="1">
          <mxGeometry x="0.1173580955875253" relative="1" as="geometry" />
        </mxCell>
        <UserObject label="" lucidchartObjectId="0TUItWgnyY6h" id="mhpVxY0XPYVUC-uozozE-305">
          <mxCell style="html=1;jettySize=18;whiteSpace=wrap;fontSize=11;strokeColor=#82b366;rounded=1;arcSize=12;edgeStyle=orthogonalEdgeStyle;startArrow=none;;endArrow=block;endFill=1;;exitX=1.0187616947441587;exitY=0.5;exitPerimeter=0;entryX=-0.018761694744158584;entryY=0.5;entryPerimeter=0;fillColor=#d5e8d4;" parent="1" source="mhpVxY0XPYVUC-uozozE-284" target="mhpVxY0XPYVUC-uozozE-290" edge="1">
            <mxGeometry width="100" height="100" relative="1" as="geometry">
              <Array as="points" />
            </mxGeometry>
          </mxCell>
        </UserObject>
        <mxCell id="mhpVxY0XPYVUC-uozozE-306" value="3" style="text;html=1;resizable=0;labelBackgroundColor=#ffffff;align=center;verticalAlign=middle;fontStyle=1;fontColor=#333333;;fontSize=10.666666666666666;" parent="mhpVxY0XPYVUC-uozozE-305" vertex="1">
          <mxGeometry relative="1" as="geometry" />
        </mxCell>
        <UserObject label="" lucidchartObjectId="0TUInPz0SSq~" id="mhpVxY0XPYVUC-uozozE-307">
          <mxCell style="html=1;jettySize=18;whiteSpace=wrap;fontSize=11;strokeColor=#d79b00;rounded=1;arcSize=12;edgeStyle=orthogonalEdgeStyle;startArrow=none;;endArrow=block;endFill=1;;exitX=0.5;exitY=-0.018761694744157165;exitPerimeter=0;entryX=0.5;entryY=1.0187616947441573;entryPerimeter=0;fillColor=#ffe6cc;" parent="1" source="mhpVxY0XPYVUC-uozozE-290" target="mhpVxY0XPYVUC-uozozE-287" edge="1">
            <mxGeometry width="100" height="100" relative="1" as="geometry">
              <Array as="points" />
            </mxGeometry>
          </mxCell>
        </UserObject>
        <mxCell id="mhpVxY0XPYVUC-uozozE-308" value="0(7)" style="text;html=1;resizable=0;labelBackgroundColor=#ffffff;align=center;verticalAlign=middle;fontStyle=1;fontColor=#333333;;fontSize=10.666666666666666;" parent="mhpVxY0XPYVUC-uozozE-307" vertex="1">
          <mxGeometry relative="1" as="geometry" />
        </mxCell>
        <UserObject label="4" lucidchartObjectId="0TUIGq3dbJ5p" id="mhpVxY0XPYVUC-uozozE-309">
          <mxCell style="html=1;jettySize=18;whiteSpace=wrap;fontSize=11;strokeColor=#82b366;rounded=0;startArrow=none;;endArrow=block;endFill=1;;exitX=0.9543155829079778;exitY=0.25140737426147136;exitPerimeter=0;entryX=0.25071949648965997;entryY=0.9550034606797893;entryPerimeter=0;fillColor=#d5e8d4;" parent="1" source="mhpVxY0XPYVUC-uozozE-290" target="mhpVxY0XPYVUC-uozozE-294" edge="1">
            <mxGeometry width="100" height="100" relative="1" as="geometry">
              <Array as="points" />
            </mxGeometry>
          </mxCell>
        </UserObject>
        <mxCell id="mhpVxY0XPYVUC-uozozE-310" value="0(4)" style="text;html=1;resizable=0;labelBackgroundColor=#ffffff;align=center;verticalAlign=middle;fontStyle=1;fontColor=#333333;;fontSize=10.666666666666666;" parent="mhpVxY0XPYVUC-uozozE-309" vertex="1">
          <mxGeometry relative="1" as="geometry" />
        </mxCell>
        <UserObject label="" lucidchartObjectId="0TUIasHpLuB7" id="mhpVxY0XPYVUC-uozozE-311">
          <mxCell style="html=1;jettySize=18;whiteSpace=wrap;fontSize=11;strokeColor=#99d2f2;strokeOpacity=100;rounded=0;startArrow=none;;endArrow=block;endFill=1;;exitX=0.9829058849722141;exitY=0.6899484597333446;exitPerimeter=0;entryX=0.16009065402019038;entryY=0.10879503264764515;entryPerimeter=0;" parent="1" source="mhpVxY0XPYVUC-uozozE-287" target="mhpVxY0XPYVUC-uozozE-294" edge="1">
            <mxGeometry width="100" height="100" relative="1" as="geometry">
              <Array as="points" />
            </mxGeometry>
          </mxCell>
        </UserObject>
        <mxCell id="mhpVxY0XPYVUC-uozozE-312" value="1" style="text;html=1;resizable=0;labelBackgroundColor=#ffffff;align=center;verticalAlign=middle;fontStyle=1;fontColor=#333333;;fontSize=10.666666666666666;" parent="mhpVxY0XPYVUC-uozozE-311" vertex="1">
          <mxGeometry relative="1" as="geometry" />
        </mxCell>
        <mxCell id="mhpVxY0XPYVUC-uozozE-313" value="" style="endArrow=classic;html=1;exitX=-0.003;exitY=0.408;exitDx=0;exitDy=0;exitPerimeter=0;entryX=0;entryY=0;entryDx=0;entryDy=0;curved=1;fillColor=#dae8fc;strokeColor=#6c8ebf;" parent="1" source="mhpVxY0XPYVUC-uozozE-281" target="mhpVxY0XPYVUC-uozozE-280" edge="1">
          <mxGeometry width="50" height="50" relative="1" as="geometry">
            <mxPoint x="1190" y="586" as="sourcePoint" />
            <mxPoint x="1240" y="536" as="targetPoint" />
            <Array as="points">
              <mxPoint x="1204" y="576" />
            </Array>
          </mxGeometry>
        </mxCell>
        <mxCell id="mhpVxY0XPYVUC-uozozE-314" value="12" style="text;html=1;align=center;verticalAlign=middle;resizable=0;points=[];autosize=1;" parent="1" vertex="1">
          <mxGeometry x="1189" y="572" width="30" height="20" as="geometry" />
        </mxCell>
        <mxCell id="mhpVxY0XPYVUC-uozozE-315" value="19" style="text;html=1;align=center;verticalAlign=middle;resizable=0;points=[];autosize=1;" parent="1" vertex="1">
          <mxGeometry x="1525" y="576" width="30" height="20" as="geometry" />
        </mxCell>
        <mxCell id="mhpVxY0XPYVUC-uozozE-316" value="7" style="text;html=1;align=center;verticalAlign=middle;resizable=0;points=[];autosize=1;" parent="1" vertex="1">
          <mxGeometry x="1412" y="654" width="20" height="20" as="geometry" />
        </mxCell>
        <mxCell id="mhpVxY0XPYVUC-uozozE-279" value="" style="endArrow=none;html=1;fillColor=#6a00ff;strokeColor=#3700CC;" parent="1" edge="1">
          <mxGeometry width="50" height="50" relative="1" as="geometry">
            <mxPoint x="1596" y="790" as="sourcePoint" />
            <mxPoint x="1276" y="490" as="targetPoint" />
          </mxGeometry>
        </mxCell>
        <mxCell id="mhpVxY0XPYVUC-uozozE-318" value="12 + 7 + 4 = 23" style="text;html=1;align=center;verticalAlign=middle;resizable=0;points=[];autosize=1;" parent="1" vertex="1">
          <mxGeometry x="1339" y="824" width="100" height="20" as="geometry" />
        </mxCell>
        <mxCell id="mhpVxY0XPYVUC-uozozE-319" value="1)" style="text;html=1;align=center;verticalAlign=middle;resizable=0;points=[];autosize=1;" parent="1" vertex="1">
          <mxGeometry x="25" y="10" width="30" height="20" as="geometry" />
        </mxCell>
        <mxCell id="mhpVxY0XPYVUC-uozozE-320" value="2)" style="text;html=1;align=center;verticalAlign=middle;resizable=0;points=[];autosize=1;" parent="1" vertex="1">
          <mxGeometry x="485" y="10" width="30" height="20" as="geometry" />
        </mxCell>
        <mxCell id="mhpVxY0XPYVUC-uozozE-321" value="3)" style="text;html=1;align=center;verticalAlign=middle;resizable=0;points=[];autosize=1;" parent="1" vertex="1">
          <mxGeometry x="25" y="350" width="30" height="20" as="geometry" />
        </mxCell>
        <mxCell id="mhpVxY0XPYVUC-uozozE-322" value="4)" style="text;html=1;align=center;verticalAlign=middle;resizable=0;points=[];autosize=1;" parent="1" vertex="1">
          <mxGeometry x="465" y="340" width="30" height="20" as="geometry" />
        </mxCell>
        <mxCell id="mhpVxY0XPYVUC-uozozE-323" value="5)" style="text;html=1;align=center;verticalAlign=middle;resizable=0;points=[];autosize=1;" parent="1" vertex="1">
          <mxGeometry x="35" y="660" width="30" height="20" as="geometry" />
        </mxCell>
        <mxCell id="mhpVxY0XPYVUC-uozozE-324" value="6)" style="text;html=1;align=center;verticalAlign=middle;resizable=0;points=[];autosize=1;" parent="1" vertex="1">
          <mxGeometry x="495" y="670" width="30" height="20" as="geometry" />
        </mxCell>
        <mxCell id="mhpVxY0XPYVUC-uozozE-325" value="7)" style="text;html=1;align=center;verticalAlign=middle;resizable=0;points=[];autosize=1;" parent="1" vertex="1">
          <mxGeometry x="885" y="30" width="30" height="20" as="geometry" />
        </mxCell>
        <mxCell id="mhpVxY0XPYVUC-uozozE-326" value="8)" style="text;html=1;align=center;verticalAlign=middle;resizable=0;points=[];autosize=1;" parent="1" vertex="1">
          <mxGeometry x="1305" y="30" width="30" height="20" as="geometry" />
        </mxCell>
        <mxCell id="RijjFH4tVb_KaYhUiYPn-340" style="edgeStyle=orthogonalEdgeStyle;curved=1;orthogonalLoop=1;jettySize=auto;html=1;exitX=1;exitY=0.5;exitDx=0;exitDy=0;entryX=0;entryY=0.5;entryDx=0;entryDy=0;endSize=2;startSize=2;startArrow=classic;startFill=1;" edge="1" parent="1" source="RijjFH4tVb_KaYhUiYPn-342" target="RijjFH4tVb_KaYhUiYPn-344">
          <mxGeometry relative="1" as="geometry" />
        </mxCell>
        <mxCell id="RijjFH4tVb_KaYhUiYPn-341" style="edgeStyle=orthogonalEdgeStyle;curved=1;orthogonalLoop=1;jettySize=auto;html=1;exitX=0.5;exitY=1;exitDx=0;exitDy=0;entryX=0.5;entryY=0;entryDx=0;entryDy=0;startArrow=classic;startFill=1;startSize=2;endSize=2;" edge="1" parent="1" source="RijjFH4tVb_KaYhUiYPn-342" target="RijjFH4tVb_KaYhUiYPn-346">
          <mxGeometry relative="1" as="geometry" />
        </mxCell>
        <mxCell id="RijjFH4tVb_KaYhUiYPn-342" value="s" style="ellipse;whiteSpace=wrap;html=1;aspect=fixed;" vertex="1" parent="1">
          <mxGeometry x="1845" y="92" width="20" height="20" as="geometry" />
        </mxCell>
        <mxCell id="RijjFH4tVb_KaYhUiYPn-343" style="edgeStyle=orthogonalEdgeStyle;curved=1;orthogonalLoop=1;jettySize=auto;html=1;exitX=0.5;exitY=1;exitDx=0;exitDy=0;entryX=0.5;entryY=0;entryDx=0;entryDy=0;startArrow=classic;startFill=1;startSize=2;endSize=2;" edge="1" parent="1" source="RijjFH4tVb_KaYhUiYPn-344" target="RijjFH4tVb_KaYhUiYPn-347">
          <mxGeometry relative="1" as="geometry" />
        </mxCell>
        <mxCell id="RijjFH4tVb_KaYhUiYPn-344" value="0/1" style="ellipse;whiteSpace=wrap;html=1;aspect=fixed;" vertex="1" parent="1">
          <mxGeometry x="1905" y="92" width="20" height="20" as="geometry" />
        </mxCell>
        <mxCell id="RijjFH4tVb_KaYhUiYPn-345" style="edgeStyle=orthogonalEdgeStyle;curved=1;orthogonalLoop=1;jettySize=auto;html=1;exitX=1;exitY=0.5;exitDx=0;exitDy=0;entryX=0;entryY=0.5;entryDx=0;entryDy=0;endSize=2;startSize=2;startArrow=classic;startFill=1;" edge="1" parent="1" source="RijjFH4tVb_KaYhUiYPn-346" target="RijjFH4tVb_KaYhUiYPn-347">
          <mxGeometry relative="1" as="geometry" />
        </mxCell>
        <mxCell id="RijjFH4tVb_KaYhUiYPn-346" value="0/1" style="ellipse;whiteSpace=wrap;html=1;aspect=fixed;" vertex="1" parent="1">
          <mxGeometry x="1845" y="150" width="20" height="20" as="geometry" />
        </mxCell>
        <mxCell id="RijjFH4tVb_KaYhUiYPn-347" value="t" style="ellipse;whiteSpace=wrap;html=1;aspect=fixed;" vertex="1" parent="1">
          <mxGeometry x="1905" y="150" width="20" height="20" as="geometry" />
        </mxCell>
        <mxCell id="RijjFH4tVb_KaYhUiYPn-348" value="0/1" style="text;html=1;align=center;verticalAlign=middle;resizable=0;points=[];autosize=1;" vertex="1" parent="1">
          <mxGeometry x="1910" y="118" width="30" height="20" as="geometry" />
        </mxCell>
        <mxCell id="RijjFH4tVb_KaYhUiYPn-349" value="0/1" style="text;html=1;align=center;verticalAlign=middle;resizable=0;points=[];autosize=1;" vertex="1" parent="1">
          <mxGeometry x="1875" y="84" width="30" height="20" as="geometry" />
        </mxCell>
        <mxCell id="RijjFH4tVb_KaYhUiYPn-350" value="0/1" style="text;html=1;align=center;verticalAlign=middle;resizable=0;points=[];autosize=1;" vertex="1" parent="1">
          <mxGeometry x="1825" y="118" width="30" height="20" as="geometry" />
        </mxCell>
        <mxCell id="RijjFH4tVb_KaYhUiYPn-351" value="0/1" style="text;html=1;align=center;verticalAlign=middle;resizable=0;points=[];autosize=1;" vertex="1" parent="1">
          <mxGeometry x="1875" y="160" width="30" height="20" as="geometry" />
        </mxCell>
        <mxCell id="RijjFH4tVb_KaYhUiYPn-352" style="edgeStyle=orthogonalEdgeStyle;curved=1;orthogonalLoop=1;jettySize=auto;html=1;exitX=1;exitY=0.5;exitDx=0;exitDy=0;entryX=0;entryY=0.5;entryDx=0;entryDy=0;endSize=2;startSize=2;startArrow=classic;startFill=1;" edge="1" parent="1" source="RijjFH4tVb_KaYhUiYPn-354">
          <mxGeometry relative="1" as="geometry">
            <mxPoint x="2077.5" y="140" as="targetPoint" />
          </mxGeometry>
        </mxCell>
        <mxCell id="RijjFH4tVb_KaYhUiYPn-353" style="edgeStyle=orthogonalEdgeStyle;curved=1;orthogonalLoop=1;jettySize=auto;html=1;exitX=0.5;exitY=1;exitDx=0;exitDy=0;entryX=0.5;entryY=0;entryDx=0;entryDy=0;startArrow=classic;startFill=1;startSize=2;endSize=2;" edge="1" parent="1" source="RijjFH4tVb_KaYhUiYPn-354">
          <mxGeometry relative="1" as="geometry">
            <mxPoint x="2027.5" y="188" as="targetPoint" />
          </mxGeometry>
        </mxCell>
        <mxCell id="RijjFH4tVb_KaYhUiYPn-354" value="s" style="ellipse;whiteSpace=wrap;html=1;aspect=fixed;" vertex="1" parent="1">
          <mxGeometry x="2017.5" y="130" width="20" height="20" as="geometry" />
        </mxCell>
        <mxCell id="RijjFH4tVb_KaYhUiYPn-355" style="edgeStyle=orthogonalEdgeStyle;curved=1;orthogonalLoop=1;jettySize=auto;html=1;entryX=0.5;entryY=0;entryDx=0;entryDy=0;startArrow=classic;startFill=1;startSize=2;endSize=2;" edge="1" parent="1" target="RijjFH4tVb_KaYhUiYPn-359">
          <mxGeometry relative="1" as="geometry">
            <mxPoint x="2127.5" y="186" as="sourcePoint" />
          </mxGeometry>
        </mxCell>
        <mxCell id="RijjFH4tVb_KaYhUiYPn-357" style="edgeStyle=orthogonalEdgeStyle;curved=1;orthogonalLoop=1;jettySize=auto;html=1;exitX=1;exitY=0.5;exitDx=0;exitDy=0;entryX=0;entryY=0.5;entryDx=0;entryDy=0;endSize=2;startSize=2;startArrow=classic;startFill=1;" edge="1" parent="1" target="RijjFH4tVb_KaYhUiYPn-359">
          <mxGeometry relative="1" as="geometry">
            <mxPoint x="2077.5" y="238" as="sourcePoint" />
          </mxGeometry>
        </mxCell>
        <mxCell id="RijjFH4tVb_KaYhUiYPn-359" value="t" style="ellipse;whiteSpace=wrap;html=1;aspect=fixed;" vertex="1" parent="1">
          <mxGeometry x="2117.5" y="228" width="20" height="20" as="geometry" />
        </mxCell>
        <mxCell id="RijjFH4tVb_KaYhUiYPn-360" value="0/1" style="text;html=1;align=center;verticalAlign=middle;resizable=0;points=[];autosize=1;" vertex="1" parent="1">
          <mxGeometry x="2122.5" y="196" width="30" height="20" as="geometry" />
        </mxCell>
        <mxCell id="RijjFH4tVb_KaYhUiYPn-361" value="0/1" style="text;html=1;align=center;verticalAlign=middle;resizable=0;points=[];autosize=1;" vertex="1" parent="1">
          <mxGeometry x="2047.5" y="122" width="30" height="20" as="geometry" />
        </mxCell>
        <mxCell id="RijjFH4tVb_KaYhUiYPn-362" value="0/1" style="text;html=1;align=center;verticalAlign=middle;resizable=0;points=[];autosize=1;" vertex="1" parent="1">
          <mxGeometry x="1997.5" y="156" width="30" height="20" as="geometry" />
        </mxCell>
        <mxCell id="RijjFH4tVb_KaYhUiYPn-363" value="0/1" style="text;html=1;align=center;verticalAlign=middle;resizable=0;points=[];autosize=1;" vertex="1" parent="1">
          <mxGeometry x="2087.5" y="238" width="30" height="20" as="geometry" />
        </mxCell>
        <mxCell id="RijjFH4tVb_KaYhUiYPn-364" value="v1" style="ellipse;whiteSpace=wrap;html=1;aspect=fixed;" vertex="1" parent="1">
          <mxGeometry x="2077.5" y="130" width="20" height="20" as="geometry" />
        </mxCell>
        <mxCell id="RijjFH4tVb_KaYhUiYPn-369" style="edgeStyle=orthogonalEdgeStyle;curved=1;orthogonalLoop=1;jettySize=auto;html=1;exitX=0.5;exitY=1;exitDx=0;exitDy=0;entryX=0;entryY=0.5;entryDx=0;entryDy=0;startArrow=classic;startFill=1;startSize=2;endSize=2;" edge="1" parent="1" source="RijjFH4tVb_KaYhUiYPn-365" target="RijjFH4tVb_KaYhUiYPn-367">
          <mxGeometry relative="1" as="geometry" />
        </mxCell>
        <mxCell id="RijjFH4tVb_KaYhUiYPn-365" value="v2" style="ellipse;whiteSpace=wrap;html=1;aspect=fixed;" vertex="1" parent="1">
          <mxGeometry x="2017.5" y="188" width="20" height="20" as="geometry" />
        </mxCell>
        <mxCell id="RijjFH4tVb_KaYhUiYPn-368" style="edgeStyle=orthogonalEdgeStyle;curved=1;orthogonalLoop=1;jettySize=auto;html=1;exitX=0.5;exitY=0;exitDx=0;exitDy=0;entryX=1;entryY=0.5;entryDx=0;entryDy=0;startArrow=classic;startFill=1;startSize=2;endSize=2;" edge="1" parent="1" source="RijjFH4tVb_KaYhUiYPn-366" target="RijjFH4tVb_KaYhUiYPn-364">
          <mxGeometry relative="1" as="geometry">
            <Array as="points">
              <mxPoint x="2127.5" y="140" />
            </Array>
          </mxGeometry>
        </mxCell>
        <mxCell id="RijjFH4tVb_KaYhUiYPn-366" value="v3" style="ellipse;whiteSpace=wrap;html=1;aspect=fixed;" vertex="1" parent="1">
          <mxGeometry x="2117.5" y="162" width="20" height="20" as="geometry" />
        </mxCell>
        <mxCell id="RijjFH4tVb_KaYhUiYPn-367" value="v4" style="ellipse;whiteSpace=wrap;html=1;aspect=fixed;" vertex="1" parent="1">
          <mxGeometry x="2057.5" y="228" width="20" height="20" as="geometry" />
        </mxCell>
        <mxCell id="RijjFH4tVb_KaYhUiYPn-370" value="0/1" style="text;html=1;align=center;verticalAlign=middle;resizable=0;points=[];autosize=1;" vertex="1" parent="1">
          <mxGeometry x="2117.5" y="130" width="30" height="20" as="geometry" />
        </mxCell>
        <mxCell id="RijjFH4tVb_KaYhUiYPn-371" value="0/1" style="text;html=1;align=center;verticalAlign=middle;resizable=0;points=[];autosize=1;" vertex="1" parent="1">
          <mxGeometry x="2007.5" y="228" width="30" height="20" as="geometry" />
        </mxCell>
        <mxCell id="RijjFH4tVb_KaYhUiYPn-373" value="&lt;font style=&quot;font-size: 4px&quot;&gt;Vertice capacity represented as two vertices with an edge with same capacity&lt;/font&gt;" style="text;html=1;align=center;verticalAlign=middle;resizable=0;points=[];autosize=1;" vertex="1" parent="1">
          <mxGeometry x="2050" y="84" width="150" height="20" as="geometry" />
        </mxCell>
        <mxCell id="RijjFH4tVb_KaYhUiYPn-374" value="1)" style="text;html=1;align=center;verticalAlign=middle;resizable=0;points=[];autosize=1;" vertex="1" parent="1">
          <mxGeometry x="1800" y="82" width="30" height="20" as="geometry" />
        </mxCell>
        <mxCell id="RijjFH4tVb_KaYhUiYPn-375" value="2)" style="text;html=1;align=center;verticalAlign=middle;resizable=0;points=[];autosize=1;" vertex="1" parent="1">
          <mxGeometry x="1960" y="84" width="30" height="20" as="geometry" />
        </mxCell>
        <mxCell id="RijjFH4tVb_KaYhUiYPn-376" style="edgeStyle=orthogonalEdgeStyle;curved=1;orthogonalLoop=1;jettySize=auto;html=1;exitX=1;exitY=0.5;exitDx=0;exitDy=0;entryX=0;entryY=0.5;entryDx=0;entryDy=0;endSize=2;startSize=2;startArrow=classic;startFill=1;" edge="1" parent="1" source="RijjFH4tVb_KaYhUiYPn-378" target="RijjFH4tVb_KaYhUiYPn-381">
          <mxGeometry relative="1" as="geometry" />
        </mxCell>
        <mxCell id="RijjFH4tVb_KaYhUiYPn-377" style="edgeStyle=orthogonalEdgeStyle;curved=1;orthogonalLoop=1;jettySize=auto;html=1;exitX=0.5;exitY=1;exitDx=0;exitDy=0;entryX=0.5;entryY=0;entryDx=0;entryDy=0;startArrow=classic;startFill=1;startSize=2;endSize=2;" edge="1" parent="1" source="RijjFH4tVb_KaYhUiYPn-378" target="RijjFH4tVb_KaYhUiYPn-389">
          <mxGeometry relative="1" as="geometry" />
        </mxCell>
        <mxCell id="RijjFH4tVb_KaYhUiYPn-378" value="0/1" style="ellipse;whiteSpace=wrap;html=1;aspect=fixed;" vertex="1" parent="1">
          <mxGeometry x="3200" y="102" width="20" height="20" as="geometry" />
        </mxCell>
        <mxCell id="RijjFH4tVb_KaYhUiYPn-379" style="edgeStyle=orthogonalEdgeStyle;curved=1;orthogonalLoop=1;jettySize=auto;html=1;exitX=1;exitY=0.5;exitDx=0;exitDy=0;entryX=0;entryY=0.5;entryDx=0;entryDy=0;endSize=2;startSize=2;startArrow=classic;startFill=1;" edge="1" parent="1" source="RijjFH4tVb_KaYhUiYPn-381" target="RijjFH4tVb_KaYhUiYPn-384">
          <mxGeometry relative="1" as="geometry" />
        </mxCell>
        <mxCell id="RijjFH4tVb_KaYhUiYPn-380" style="edgeStyle=orthogonalEdgeStyle;curved=1;orthogonalLoop=1;jettySize=auto;html=1;exitX=0.5;exitY=1;exitDx=0;exitDy=0;entryX=0.5;entryY=0;entryDx=0;entryDy=0;startArrow=classic;startFill=1;startSize=2;endSize=2;" edge="1" parent="1" source="RijjFH4tVb_KaYhUiYPn-381" target="RijjFH4tVb_KaYhUiYPn-392">
          <mxGeometry relative="1" as="geometry" />
        </mxCell>
        <mxCell id="RijjFH4tVb_KaYhUiYPn-381" value="0/1" style="ellipse;whiteSpace=wrap;html=1;aspect=fixed;" vertex="1" parent="1">
          <mxGeometry x="3260" y="102" width="20" height="20" as="geometry" />
        </mxCell>
        <mxCell id="RijjFH4tVb_KaYhUiYPn-382" style="edgeStyle=orthogonalEdgeStyle;curved=1;orthogonalLoop=1;jettySize=auto;html=1;exitX=1;exitY=0.5;exitDx=0;exitDy=0;entryX=0;entryY=0.5;entryDx=0;entryDy=0;endSize=2;startSize=2;startArrow=classic;startFill=1;" edge="1" parent="1" source="RijjFH4tVb_KaYhUiYPn-384" target="RijjFH4tVb_KaYhUiYPn-386">
          <mxGeometry relative="1" as="geometry" />
        </mxCell>
        <mxCell id="RijjFH4tVb_KaYhUiYPn-383" style="edgeStyle=orthogonalEdgeStyle;curved=1;orthogonalLoop=1;jettySize=auto;html=1;exitX=0.5;exitY=1;exitDx=0;exitDy=0;entryX=0.5;entryY=0;entryDx=0;entryDy=0;startArrow=classic;startFill=1;startSize=2;endSize=2;" edge="1" parent="1" source="RijjFH4tVb_KaYhUiYPn-384" target="RijjFH4tVb_KaYhUiYPn-395">
          <mxGeometry relative="1" as="geometry" />
        </mxCell>
        <mxCell id="RijjFH4tVb_KaYhUiYPn-384" value="0/1" style="ellipse;whiteSpace=wrap;html=1;aspect=fixed;" vertex="1" parent="1">
          <mxGeometry x="3320" y="102" width="20" height="20" as="geometry" />
        </mxCell>
        <mxCell id="RijjFH4tVb_KaYhUiYPn-385" style="edgeStyle=orthogonalEdgeStyle;curved=1;orthogonalLoop=1;jettySize=auto;html=1;exitX=0.5;exitY=1;exitDx=0;exitDy=0;entryX=0.5;entryY=0;entryDx=0;entryDy=0;startArrow=classic;startFill=1;startSize=2;endSize=2;" edge="1" parent="1" source="RijjFH4tVb_KaYhUiYPn-386" target="RijjFH4tVb_KaYhUiYPn-397">
          <mxGeometry relative="1" as="geometry" />
        </mxCell>
        <mxCell id="RijjFH4tVb_KaYhUiYPn-386" value="0/1" style="ellipse;whiteSpace=wrap;html=1;aspect=fixed;" vertex="1" parent="1">
          <mxGeometry x="3380" y="102" width="20" height="20" as="geometry" />
        </mxCell>
        <mxCell id="RijjFH4tVb_KaYhUiYPn-387" style="edgeStyle=orthogonalEdgeStyle;curved=1;orthogonalLoop=1;jettySize=auto;html=1;exitX=1;exitY=0.5;exitDx=0;exitDy=0;entryX=0;entryY=0.5;entryDx=0;entryDy=0;endSize=2;startSize=2;startArrow=classic;startFill=1;" edge="1" parent="1" source="RijjFH4tVb_KaYhUiYPn-389" target="RijjFH4tVb_KaYhUiYPn-392">
          <mxGeometry relative="1" as="geometry" />
        </mxCell>
        <mxCell id="RijjFH4tVb_KaYhUiYPn-388" style="edgeStyle=orthogonalEdgeStyle;curved=1;orthogonalLoop=1;jettySize=auto;html=1;exitX=0.5;exitY=1;exitDx=0;exitDy=0;entryX=0.5;entryY=0;entryDx=0;entryDy=0;startArrow=classic;startFill=1;startSize=2;endSize=2;" edge="1" parent="1" source="RijjFH4tVb_KaYhUiYPn-389" target="RijjFH4tVb_KaYhUiYPn-400">
          <mxGeometry relative="1" as="geometry" />
        </mxCell>
        <mxCell id="RijjFH4tVb_KaYhUiYPn-389" value="" style="ellipse;whiteSpace=wrap;html=1;aspect=fixed;" vertex="1" parent="1">
          <mxGeometry x="3200" y="164" width="20" height="20" as="geometry" />
        </mxCell>
        <mxCell id="RijjFH4tVb_KaYhUiYPn-390" style="edgeStyle=orthogonalEdgeStyle;curved=1;orthogonalLoop=1;jettySize=auto;html=1;exitX=1;exitY=0.5;exitDx=0;exitDy=0;entryX=0;entryY=0.5;entryDx=0;entryDy=0;endSize=2;startSize=2;startArrow=classic;startFill=1;" edge="1" parent="1" source="RijjFH4tVb_KaYhUiYPn-392" target="RijjFH4tVb_KaYhUiYPn-395">
          <mxGeometry relative="1" as="geometry" />
        </mxCell>
        <mxCell id="RijjFH4tVb_KaYhUiYPn-391" style="edgeStyle=orthogonalEdgeStyle;curved=1;orthogonalLoop=1;jettySize=auto;html=1;exitX=0.5;exitY=1;exitDx=0;exitDy=0;entryX=0.5;entryY=0;entryDx=0;entryDy=0;startArrow=classic;startFill=1;startSize=2;endSize=2;" edge="1" parent="1" source="RijjFH4tVb_KaYhUiYPn-392" target="RijjFH4tVb_KaYhUiYPn-403">
          <mxGeometry relative="1" as="geometry" />
        </mxCell>
        <mxCell id="RijjFH4tVb_KaYhUiYPn-392" value="" style="ellipse;whiteSpace=wrap;html=1;aspect=fixed;" vertex="1" parent="1">
          <mxGeometry x="3260" y="164" width="20" height="20" as="geometry" />
        </mxCell>
        <mxCell id="RijjFH4tVb_KaYhUiYPn-393" style="edgeStyle=orthogonalEdgeStyle;curved=1;orthogonalLoop=1;jettySize=auto;html=1;exitX=1;exitY=0.5;exitDx=0;exitDy=0;entryX=0;entryY=0.5;entryDx=0;entryDy=0;endSize=2;startSize=2;startArrow=classic;startFill=1;" edge="1" parent="1" source="RijjFH4tVb_KaYhUiYPn-395" target="RijjFH4tVb_KaYhUiYPn-397">
          <mxGeometry relative="1" as="geometry" />
        </mxCell>
        <mxCell id="RijjFH4tVb_KaYhUiYPn-394" style="edgeStyle=orthogonalEdgeStyle;curved=1;orthogonalLoop=1;jettySize=auto;html=1;exitX=0.5;exitY=1;exitDx=0;exitDy=0;entryX=0.5;entryY=0;entryDx=0;entryDy=0;startArrow=classic;startFill=1;startSize=2;endSize=2;" edge="1" parent="1" source="RijjFH4tVb_KaYhUiYPn-395" target="RijjFH4tVb_KaYhUiYPn-406">
          <mxGeometry relative="1" as="geometry" />
        </mxCell>
        <mxCell id="RijjFH4tVb_KaYhUiYPn-395" value="" style="ellipse;whiteSpace=wrap;html=1;aspect=fixed;" vertex="1" parent="1">
          <mxGeometry x="3320" y="164" width="20" height="20" as="geometry" />
        </mxCell>
        <mxCell id="RijjFH4tVb_KaYhUiYPn-396" style="edgeStyle=orthogonalEdgeStyle;curved=1;orthogonalLoop=1;jettySize=auto;html=1;exitX=0.5;exitY=1;exitDx=0;exitDy=0;entryX=0.5;entryY=0;entryDx=0;entryDy=0;startArrow=classic;startFill=1;startSize=2;endSize=2;" edge="1" parent="1" source="RijjFH4tVb_KaYhUiYPn-397" target="RijjFH4tVb_KaYhUiYPn-408">
          <mxGeometry relative="1" as="geometry" />
        </mxCell>
        <mxCell id="RijjFH4tVb_KaYhUiYPn-397" value="" style="ellipse;whiteSpace=wrap;html=1;aspect=fixed;" vertex="1" parent="1">
          <mxGeometry x="3380" y="164" width="20" height="20" as="geometry" />
        </mxCell>
        <mxCell id="RijjFH4tVb_KaYhUiYPn-398" style="edgeStyle=orthogonalEdgeStyle;curved=1;orthogonalLoop=1;jettySize=auto;html=1;exitX=1;exitY=0.5;exitDx=0;exitDy=0;entryX=0;entryY=0.5;entryDx=0;entryDy=0;endSize=2;startSize=2;startArrow=classic;startFill=1;" edge="1" parent="1" source="RijjFH4tVb_KaYhUiYPn-400" target="RijjFH4tVb_KaYhUiYPn-403">
          <mxGeometry relative="1" as="geometry" />
        </mxCell>
        <mxCell id="RijjFH4tVb_KaYhUiYPn-399" style="edgeStyle=orthogonalEdgeStyle;curved=1;orthogonalLoop=1;jettySize=auto;html=1;exitX=0.5;exitY=1;exitDx=0;exitDy=0;entryX=0.5;entryY=0;entryDx=0;entryDy=0;startArrow=classic;startFill=1;startSize=2;endSize=2;" edge="1" parent="1" source="RijjFH4tVb_KaYhUiYPn-400" target="RijjFH4tVb_KaYhUiYPn-410">
          <mxGeometry relative="1" as="geometry" />
        </mxCell>
        <mxCell id="RijjFH4tVb_KaYhUiYPn-400" value="" style="ellipse;whiteSpace=wrap;html=1;aspect=fixed;" vertex="1" parent="1">
          <mxGeometry x="3200" y="222" width="20" height="20" as="geometry" />
        </mxCell>
        <mxCell id="RijjFH4tVb_KaYhUiYPn-401" style="edgeStyle=orthogonalEdgeStyle;curved=1;orthogonalLoop=1;jettySize=auto;html=1;exitX=1;exitY=0.5;exitDx=0;exitDy=0;entryX=0;entryY=0.5;entryDx=0;entryDy=0;endSize=2;startSize=2;startArrow=classic;startFill=1;" edge="1" parent="1" source="RijjFH4tVb_KaYhUiYPn-403" target="RijjFH4tVb_KaYhUiYPn-406">
          <mxGeometry relative="1" as="geometry" />
        </mxCell>
        <mxCell id="RijjFH4tVb_KaYhUiYPn-402" style="edgeStyle=orthogonalEdgeStyle;curved=1;orthogonalLoop=1;jettySize=auto;html=1;exitX=0.5;exitY=1;exitDx=0;exitDy=0;entryX=0.5;entryY=0;entryDx=0;entryDy=0;startArrow=classic;startFill=1;startSize=2;endSize=2;" edge="1" parent="1" source="RijjFH4tVb_KaYhUiYPn-403" target="RijjFH4tVb_KaYhUiYPn-412">
          <mxGeometry relative="1" as="geometry" />
        </mxCell>
        <mxCell id="RijjFH4tVb_KaYhUiYPn-403" value="" style="ellipse;whiteSpace=wrap;html=1;aspect=fixed;" vertex="1" parent="1">
          <mxGeometry x="3260" y="222" width="20" height="20" as="geometry" />
        </mxCell>
        <mxCell id="RijjFH4tVb_KaYhUiYPn-404" style="edgeStyle=orthogonalEdgeStyle;curved=1;orthogonalLoop=1;jettySize=auto;html=1;exitX=1;exitY=0.5;exitDx=0;exitDy=0;entryX=0;entryY=0.5;entryDx=0;entryDy=0;endSize=2;startSize=2;startArrow=classic;startFill=1;" edge="1" parent="1" source="RijjFH4tVb_KaYhUiYPn-406" target="RijjFH4tVb_KaYhUiYPn-408">
          <mxGeometry relative="1" as="geometry" />
        </mxCell>
        <mxCell id="RijjFH4tVb_KaYhUiYPn-405" style="edgeStyle=orthogonalEdgeStyle;curved=1;orthogonalLoop=1;jettySize=auto;html=1;exitX=0.5;exitY=1;exitDx=0;exitDy=0;entryX=0.5;entryY=0;entryDx=0;entryDy=0;startArrow=classic;startFill=1;startSize=2;endSize=2;" edge="1" parent="1" source="RijjFH4tVb_KaYhUiYPn-406" target="RijjFH4tVb_KaYhUiYPn-414">
          <mxGeometry relative="1" as="geometry" />
        </mxCell>
        <mxCell id="RijjFH4tVb_KaYhUiYPn-406" value="" style="ellipse;whiteSpace=wrap;html=1;aspect=fixed;" vertex="1" parent="1">
          <mxGeometry x="3320" y="222" width="20" height="20" as="geometry" />
        </mxCell>
        <mxCell id="RijjFH4tVb_KaYhUiYPn-407" style="edgeStyle=orthogonalEdgeStyle;curved=1;orthogonalLoop=1;jettySize=auto;html=1;exitX=0.5;exitY=1;exitDx=0;exitDy=0;entryX=0.5;entryY=0;entryDx=0;entryDy=0;startArrow=classic;startFill=1;startSize=2;endSize=2;" edge="1" parent="1" source="RijjFH4tVb_KaYhUiYPn-408" target="RijjFH4tVb_KaYhUiYPn-415">
          <mxGeometry relative="1" as="geometry" />
        </mxCell>
        <mxCell id="RijjFH4tVb_KaYhUiYPn-408" value="" style="ellipse;whiteSpace=wrap;html=1;aspect=fixed;" vertex="1" parent="1">
          <mxGeometry x="3380" y="222" width="20" height="20" as="geometry" />
        </mxCell>
        <mxCell id="RijjFH4tVb_KaYhUiYPn-409" style="edgeStyle=orthogonalEdgeStyle;curved=1;orthogonalLoop=1;jettySize=auto;html=1;exitX=1;exitY=0.5;exitDx=0;exitDy=0;entryX=0;entryY=0.5;entryDx=0;entryDy=0;endSize=2;startSize=2;startArrow=classic;startFill=1;" edge="1" parent="1" source="RijjFH4tVb_KaYhUiYPn-410" target="RijjFH4tVb_KaYhUiYPn-412">
          <mxGeometry relative="1" as="geometry" />
        </mxCell>
        <mxCell id="RijjFH4tVb_KaYhUiYPn-410" value="" style="ellipse;whiteSpace=wrap;html=1;aspect=fixed;" vertex="1" parent="1">
          <mxGeometry x="3200" y="284" width="20" height="20" as="geometry" />
        </mxCell>
        <mxCell id="RijjFH4tVb_KaYhUiYPn-411" style="edgeStyle=orthogonalEdgeStyle;curved=1;orthogonalLoop=1;jettySize=auto;html=1;exitX=1;exitY=0.5;exitDx=0;exitDy=0;entryX=0;entryY=0.5;entryDx=0;entryDy=0;endSize=2;startSize=2;startArrow=classic;startFill=1;" edge="1" parent="1" source="RijjFH4tVb_KaYhUiYPn-412" target="RijjFH4tVb_KaYhUiYPn-414">
          <mxGeometry relative="1" as="geometry" />
        </mxCell>
        <mxCell id="RijjFH4tVb_KaYhUiYPn-412" value="" style="ellipse;whiteSpace=wrap;html=1;aspect=fixed;" vertex="1" parent="1">
          <mxGeometry x="3260" y="284" width="20" height="20" as="geometry" />
        </mxCell>
        <mxCell id="RijjFH4tVb_KaYhUiYPn-413" style="edgeStyle=orthogonalEdgeStyle;curved=1;orthogonalLoop=1;jettySize=auto;html=1;exitX=1;exitY=0.5;exitDx=0;exitDy=0;entryX=0;entryY=0.5;entryDx=0;entryDy=0;endSize=2;startSize=2;startArrow=classic;startFill=1;" edge="1" parent="1" source="RijjFH4tVb_KaYhUiYPn-414" target="RijjFH4tVb_KaYhUiYPn-415">
          <mxGeometry relative="1" as="geometry" />
        </mxCell>
        <mxCell id="RijjFH4tVb_KaYhUiYPn-414" value="" style="ellipse;whiteSpace=wrap;html=1;aspect=fixed;" vertex="1" parent="1">
          <mxGeometry x="3320" y="284" width="20" height="20" as="geometry" />
        </mxCell>
        <mxCell id="RijjFH4tVb_KaYhUiYPn-415" value="" style="ellipse;whiteSpace=wrap;html=1;aspect=fixed;" vertex="1" parent="1">
          <mxGeometry x="3380" y="284" width="20" height="20" as="geometry" />
        </mxCell>
        <mxCell id="RijjFH4tVb_KaYhUiYPn-416" style="edgeStyle=orthogonalEdgeStyle;curved=1;orthogonalLoop=1;jettySize=auto;html=1;exitX=1;exitY=0.5;exitDx=0;exitDy=0;entryX=0;entryY=0.5;entryDx=0;entryDy=0;endSize=2;startSize=2;startArrow=classic;startFill=1;" edge="1" parent="1" source="RijjFH4tVb_KaYhUiYPn-418" target="RijjFH4tVb_KaYhUiYPn-421">
          <mxGeometry relative="1" as="geometry" />
        </mxCell>
        <mxCell id="RijjFH4tVb_KaYhUiYPn-417" style="edgeStyle=orthogonalEdgeStyle;curved=1;orthogonalLoop=1;jettySize=auto;html=1;exitX=0.5;exitY=1;exitDx=0;exitDy=0;entryX=0.5;entryY=0;entryDx=0;entryDy=0;startArrow=classic;startFill=1;startSize=2;endSize=2;" edge="1" parent="1" source="RijjFH4tVb_KaYhUiYPn-418" target="RijjFH4tVb_KaYhUiYPn-426">
          <mxGeometry relative="1" as="geometry" />
        </mxCell>
        <mxCell id="RijjFH4tVb_KaYhUiYPn-418" value="" style="ellipse;whiteSpace=wrap;html=1;aspect=fixed;" vertex="1" parent="1">
          <mxGeometry x="3470" y="102" width="20" height="20" as="geometry" />
        </mxCell>
        <mxCell id="RijjFH4tVb_KaYhUiYPn-419" style="edgeStyle=orthogonalEdgeStyle;curved=1;orthogonalLoop=1;jettySize=auto;html=1;exitX=1;exitY=0.5;exitDx=0;exitDy=0;entryX=0;entryY=0.5;entryDx=0;entryDy=0;endSize=2;startSize=2;startArrow=classic;startFill=1;" edge="1" parent="1" source="RijjFH4tVb_KaYhUiYPn-421" target="RijjFH4tVb_KaYhUiYPn-423">
          <mxGeometry relative="1" as="geometry" />
        </mxCell>
        <mxCell id="RijjFH4tVb_KaYhUiYPn-420" style="edgeStyle=orthogonalEdgeStyle;curved=1;orthogonalLoop=1;jettySize=auto;html=1;exitX=0.5;exitY=1;exitDx=0;exitDy=0;entryX=0.5;entryY=0;entryDx=0;entryDy=0;startArrow=classic;startFill=1;startSize=2;endSize=2;" edge="1" parent="1" source="RijjFH4tVb_KaYhUiYPn-421" target="RijjFH4tVb_KaYhUiYPn-429">
          <mxGeometry relative="1" as="geometry" />
        </mxCell>
        <mxCell id="RijjFH4tVb_KaYhUiYPn-421" value="" style="ellipse;whiteSpace=wrap;html=1;aspect=fixed;" vertex="1" parent="1">
          <mxGeometry x="3530" y="102" width="20" height="20" as="geometry" />
        </mxCell>
        <mxCell id="RijjFH4tVb_KaYhUiYPn-422" style="edgeStyle=orthogonalEdgeStyle;curved=1;orthogonalLoop=1;jettySize=auto;html=1;exitX=0.5;exitY=1;exitDx=0;exitDy=0;entryX=0.5;entryY=0;entryDx=0;entryDy=0;startArrow=classic;startFill=1;startSize=2;endSize=2;" edge="1" parent="1" source="RijjFH4tVb_KaYhUiYPn-423" target="RijjFH4tVb_KaYhUiYPn-431">
          <mxGeometry relative="1" as="geometry" />
        </mxCell>
        <mxCell id="RijjFH4tVb_KaYhUiYPn-423" value="" style="ellipse;whiteSpace=wrap;html=1;aspect=fixed;" vertex="1" parent="1">
          <mxGeometry x="3590" y="102" width="20" height="20" as="geometry" />
        </mxCell>
        <mxCell id="RijjFH4tVb_KaYhUiYPn-424" style="edgeStyle=orthogonalEdgeStyle;curved=1;orthogonalLoop=1;jettySize=auto;html=1;exitX=1;exitY=0.5;exitDx=0;exitDy=0;entryX=0;entryY=0.5;entryDx=0;entryDy=0;endSize=2;startSize=2;startArrow=classic;startFill=1;" edge="1" parent="1" source="RijjFH4tVb_KaYhUiYPn-426" target="RijjFH4tVb_KaYhUiYPn-429">
          <mxGeometry relative="1" as="geometry" />
        </mxCell>
        <mxCell id="RijjFH4tVb_KaYhUiYPn-425" style="edgeStyle=orthogonalEdgeStyle;curved=1;orthogonalLoop=1;jettySize=auto;html=1;exitX=0.5;exitY=1;exitDx=0;exitDy=0;entryX=0.5;entryY=0;entryDx=0;entryDy=0;startArrow=classic;startFill=1;startSize=2;endSize=2;" edge="1" parent="1" source="RijjFH4tVb_KaYhUiYPn-426" target="RijjFH4tVb_KaYhUiYPn-433">
          <mxGeometry relative="1" as="geometry" />
        </mxCell>
        <mxCell id="RijjFH4tVb_KaYhUiYPn-426" value="" style="ellipse;whiteSpace=wrap;html=1;aspect=fixed;" vertex="1" parent="1">
          <mxGeometry x="3470" y="164" width="20" height="20" as="geometry" />
        </mxCell>
        <mxCell id="RijjFH4tVb_KaYhUiYPn-427" style="edgeStyle=orthogonalEdgeStyle;curved=1;orthogonalLoop=1;jettySize=auto;html=1;exitX=1;exitY=0.5;exitDx=0;exitDy=0;entryX=0;entryY=0.5;entryDx=0;entryDy=0;endSize=2;startSize=2;startArrow=classic;startFill=1;" edge="1" parent="1" source="RijjFH4tVb_KaYhUiYPn-429" target="RijjFH4tVb_KaYhUiYPn-431">
          <mxGeometry relative="1" as="geometry" />
        </mxCell>
        <mxCell id="RijjFH4tVb_KaYhUiYPn-428" style="edgeStyle=orthogonalEdgeStyle;curved=1;orthogonalLoop=1;jettySize=auto;html=1;exitX=0.5;exitY=1;exitDx=0;exitDy=0;entryX=0.5;entryY=0;entryDx=0;entryDy=0;startArrow=classic;startFill=1;startSize=2;endSize=2;" edge="1" parent="1" source="RijjFH4tVb_KaYhUiYPn-429" target="RijjFH4tVb_KaYhUiYPn-435">
          <mxGeometry relative="1" as="geometry" />
        </mxCell>
        <mxCell id="RijjFH4tVb_KaYhUiYPn-429" value="s" style="ellipse;whiteSpace=wrap;html=1;aspect=fixed;" vertex="1" parent="1">
          <mxGeometry x="3530" y="164" width="20" height="20" as="geometry" />
        </mxCell>
        <mxCell id="RijjFH4tVb_KaYhUiYPn-430" style="edgeStyle=orthogonalEdgeStyle;curved=1;orthogonalLoop=1;jettySize=auto;html=1;exitX=0.5;exitY=1;exitDx=0;exitDy=0;entryX=0.5;entryY=0;entryDx=0;entryDy=0;startArrow=classic;startFill=1;startSize=2;endSize=2;" edge="1" parent="1" source="RijjFH4tVb_KaYhUiYPn-431" target="RijjFH4tVb_KaYhUiYPn-436">
          <mxGeometry relative="1" as="geometry" />
        </mxCell>
        <mxCell id="RijjFH4tVb_KaYhUiYPn-431" value="0/1" style="ellipse;whiteSpace=wrap;html=1;aspect=fixed;" vertex="1" parent="1">
          <mxGeometry x="3590" y="164" width="20" height="20" as="geometry" />
        </mxCell>
        <mxCell id="RijjFH4tVb_KaYhUiYPn-432" style="edgeStyle=orthogonalEdgeStyle;curved=1;orthogonalLoop=1;jettySize=auto;html=1;exitX=1;exitY=0.5;exitDx=0;exitDy=0;entryX=0;entryY=0.5;entryDx=0;entryDy=0;endSize=2;startSize=2;startArrow=classic;startFill=1;" edge="1" parent="1" source="RijjFH4tVb_KaYhUiYPn-433" target="RijjFH4tVb_KaYhUiYPn-435">
          <mxGeometry relative="1" as="geometry" />
        </mxCell>
        <mxCell id="RijjFH4tVb_KaYhUiYPn-433" value="" style="ellipse;whiteSpace=wrap;html=1;aspect=fixed;" vertex="1" parent="1">
          <mxGeometry x="3470" y="222" width="20" height="20" as="geometry" />
        </mxCell>
        <mxCell id="RijjFH4tVb_KaYhUiYPn-434" style="edgeStyle=orthogonalEdgeStyle;curved=1;orthogonalLoop=1;jettySize=auto;html=1;exitX=1;exitY=0.5;exitDx=0;exitDy=0;entryX=0;entryY=0.5;entryDx=0;entryDy=0;endSize=2;startSize=2;startArrow=classic;startFill=1;" edge="1" parent="1" source="RijjFH4tVb_KaYhUiYPn-435" target="RijjFH4tVb_KaYhUiYPn-436">
          <mxGeometry relative="1" as="geometry" />
        </mxCell>
        <mxCell id="RijjFH4tVb_KaYhUiYPn-435" value="" style="ellipse;whiteSpace=wrap;html=1;aspect=fixed;" vertex="1" parent="1">
          <mxGeometry x="3530" y="222" width="20" height="20" as="geometry" />
        </mxCell>
        <mxCell id="RijjFH4tVb_KaYhUiYPn-436" value="t" style="ellipse;whiteSpace=wrap;html=1;aspect=fixed;" vertex="1" parent="1">
          <mxGeometry x="3590" y="222" width="20" height="20" as="geometry" />
        </mxCell>
        <mxCell id="RijjFH4tVb_KaYhUiYPn-437" value="0/1" style="text;html=1;align=center;verticalAlign=middle;resizable=0;points=[];autosize=1;" vertex="1" parent="1">
          <mxGeometry x="3595" y="190" width="30" height="20" as="geometry" />
        </mxCell>
        <mxCell id="RijjFH4tVb_KaYhUiYPn-438" value="0/1" style="text;html=1;align=center;verticalAlign=middle;resizable=0;points=[];autosize=1;" vertex="1" parent="1">
          <mxGeometry x="3560" y="156" width="30" height="20" as="geometry" />
        </mxCell>
        <mxCell id="RijjFH4tVb_KaYhUiYPn-439" value="0/1" style="text;html=1;align=center;verticalAlign=middle;resizable=0;points=[];autosize=1;" vertex="1" parent="1">
          <mxGeometry x="3510" y="190" width="30" height="20" as="geometry" />
        </mxCell>
        <mxCell id="RijjFH4tVb_KaYhUiYPn-440" value="0/1" style="text;html=1;align=center;verticalAlign=middle;resizable=0;points=[];autosize=1;" vertex="1" parent="1">
          <mxGeometry x="3560" y="232" width="30" height="20" as="geometry" />
        </mxCell>
        <mxCell id="RijjFH4tVb_KaYhUiYPn-442" value="Escape Problem" style="text;html=1;align=center;verticalAlign=middle;resizable=0;points=[];autosize=1;" vertex="1" parent="1">
          <mxGeometry x="1720" y="10" width="100" height="20" as="geometry" />
        </mxCell>
        <mxCell id="RijjFH4tVb_KaYhUiYPn-443" value="a)" style="text;html=1;align=center;verticalAlign=middle;resizable=0;points=[];autosize=1;" vertex="1" parent="1">
          <mxGeometry x="1725" y="60" width="30" height="20" as="geometry" />
        </mxCell>
        <mxCell id="RijjFH4tVb_KaYhUiYPn-444" value="b)" style="text;html=1;align=center;verticalAlign=middle;resizable=0;points=[];autosize=1;" vertex="1" parent="1">
          <mxGeometry x="1735" y="340" width="30" height="20" as="geometry" />
        </mxCell>
      </root>
    </mxGraphModel>
  </diagram>
</mxfile>
